<svg xmlns="http://www.w3.org/2000/svg" width="87" height="106">
    <path fill="#FFF" fill-rule="evenodd" d="M86.43 34.213c-1.434 4.332-5.26 7.27-9.7 7.675 5.439 10.709 10.404 29.138-7.661 44.618C67.884 88.872 58.792 106 44.248 106h-.524c-14.545 0-23.636-17.128-24.822-19.494C.837 71.026 5.801 52.597 11.241 41.888c-4.44-.407-8.265-3.343-9.699-7.676-1.063-3.2-.627-6.443 1.296-9.638 2.268-3.774 5.63-5.607 9.767-5.355.952-3.034 2.4-6.04 4.562-8.753C22.259 4.074 30.294.592 41.061.074L41.06.038a62.732 62.732 0 0 1 2.515-.033c.836-.006 1.684.004 2.549.033l-.001.037c10.821.521 18.93 4.014 24.143 10.436 2.201 2.711 3.698 5.71 4.702 8.738 4.325-.396 7.82 1.424 10.165 5.326 1.923 3.193 2.359 6.437 1.297 9.638zM4.959 25.872c-1.526 2.538-1.884 5.076-1.064 7.546 1.149 3.472 4.296 5.793 7.886 6a48.528 48.528 0 0 1-.796-7.793c-.588.091-1.23.287-1.935.615a1.211 1.211 0 0 1-.518.115c-.469 0-.918-.27-1.128-.727a1.258 1.258 0 0 1 .608-1.661c1.057-.492 2.052-.762 2.987-.855.079-2.339.349-4.862.935-7.417-2.983-.034-5.272 1.343-6.975 4.177zm68.625 15.377a1.244 1.244 0 0 1-.162-.609c0-.099.014-.194.036-.286l-.002-.001c.04-.17 3.857-17.225-5.118-28.267-5.121-6.299-13.435-9.52-24.744-9.579-11.259.058-19.493 3.259-24.485 9.517-8.799 11.032-4.64 28.136-4.596 28.307l-.006.002c.016.061.032.123.038.188.025.264-.035.515-.154.73l.001.001C7.813 53.084 3.567 70.236 20.697 84.759l.203.172.115.24c.088.184 8.978 18.326 22.709 18.326h.524c13.73 0 22.62-18.142 22.708-18.326l.116-.24.203-.172c17.129-14.523 12.883-31.675 6.304-43.507l.005-.003zm9.428-15.376c-1.772-2.95-4.185-4.322-7.334-4.172.63 2.54.948 5.048 1.072 7.376.997.064 2.07.359 3.211.891.622.289.893 1.033.605 1.661a1.239 1.239 0 0 1-1.646.61c-.776-.36-1.475-.563-2.107-.635a48.147 48.147 0 0 1-.648 7.813c3.609-.198 6.758-2.517 7.911-5.998.821-2.472.462-5.01-1.064-7.546zM60.014 67.779l-.282 4.675c-.491 8.139-7.5 14.515-15.956 14.515-7.823 0-14.449-5.39-15.755-12.816a15.2 15.2 0 0 1-.201-1.7l-.278-4.63c-3.829-1.791-5.826-11.623-5.826-21.252 0-8.728 1.568-16.443 3.999-19.695 2.276-3.672 10.692-5.317 18.061-5.317 9.115 0 16.464 2.323 18.289 5.781l.004.007c.021.036.049.086.077.146 2.212 3.559 3.584 10.843 3.584 19.078 0 9.212-1.799 19.269-5.716 21.208zM43.776 84.466c5.783 0 10.762-3.501 12.67-8.45-1.538.537-3.666 1.096-5.885 1.096-1.394 0-2.821-.22-4.154-.806-1.15-.506-2.04-1.832-2.684-3.329-.644 1.497-1.534 2.824-2.683 3.329-1.333.586-2.76.806-4.154.806-2.164 0-4.242-.532-5.769-1.056 1.921 4.988 6.903 8.41 12.659 8.41zm16.222-55.725l-.052-.098-.001.001a2.334 2.334 0 0 1-.078-.141c-1.158-2.156-7.18-4.441-16.091-4.441-8.441 0-14.75 2.119-15.973 4.168l-.08.117c-1.755 2.304-3.525 8.832-3.525 18.224 0 12.35 2.989 18.962 4.592 19.043l.048.002c1.585-.086 4.595-6.801 4.595-19.045l-.001-.43c-3.561-.222-5.209-2.778-5.596-4.248l-.215-.813.665-.507c1.004-.765 2.036-1.21 3.069-1.322a3.94 3.94 0 0 1 3.026.955 4.25 4.25 0 0 1 1.455 3.006 75.381 75.381 0 0 1 .079 3.359c0 9.737-2.017 19.581-5.885 21.287l.267 4.444c.015.257.06.524.093.788 1.606.701 6.214 2.432 9.659.921.99-.435 2.168-3.54 2.425-5.692l-.01-.042-.601-1.526c-.663-1.234-1.919-2.713-4.074-2.439a1.243 1.243 0 0 1-1.341-.879 1.256 1.256 0 0 1 .63-1.481l1.428-.724a3.348 3.348 0 0 1 2.703-.15 3.059 3.059 0 0 1 1.78 1.748l.691 1.756.691-1.756c.319-.81.95-1.431 1.779-1.748a3.35 3.35 0 0 1 2.704.15l1.427.724c.539.273.805.899.63 1.481a1.238 1.238 0 0 1-1.341.879c-2.132-.27-3.38 1.146-4.046 2.367l-.535 1.361c-.005.068-.014.143-.021.216.246 2.125 1.452 5.325 2.429 5.755 3.554 1.562 8.303-.31 9.776-.972.03-.245.068-.488.082-.737l.266-4.404c-3.936-1.576-5.989-11.504-5.989-21.327a75.68 75.68 0 0 1 .078-3.352 4.221 4.221 0 0 1 1.522-3.057 4.025 4.025 0 0 1 3.186-.881c.954.147 1.91.582 2.842 1.291l.666.508-.215.813c-.388 1.47-2.036 4.025-5.596 4.248l-.002.43c0 12.323 3.049 19.046 4.616 19.046 1.651-.186 4.62-6.885 4.62-19.046 0-7.741-1.276-14.739-3.251-17.83zM33.371 43.625l-.013-.293a1.731 1.731 0 0 0-.591-1.225 1.509 1.509 0 0 0-1.146-.368 3.03 3.03 0 0 0-1.004.307c.415.63 1.231 1.419 2.754 1.579zm20.704.001c1.533-.159 2.348-.951 2.759-1.578a3.065 3.065 0 0 0-.894-.293 1.558 1.558 0 0 0-1.237.345 1.71 1.71 0 0 0-.615 1.236l-.013.29zm1.025-1.678c.43-.147.864-.015.968.293.103.309-.163.68-.593.827-.429.146-.864.014-.967-.295-.103-.308.162-.679.592-.825zm-22.671 0c.43.146.696.517.593.825-.104.309-.537.441-.968.295-.429-.147-.695-.518-.592-.827.103-.308.538-.44.967-.293z" opacity=".102"/>
</svg>
