<svg xmlns="http://www.w3.org/2000/svg" width="446" height="446">
    <path fill="#FFF" fill-rule="evenodd" d="M445.982 225.083a.568.568 0 0 1-.546.425c-3.164.016-3.92.714-4.09 1.129-.169.415-.117 1.442 2.132 3.667a.567.567 0 0 1-.798.805c-2.249-2.225-3.277-2.266-3.69-2.092-.413.173-1.104.936-1.087 4.099a.568.568 0 0 1-1.134.006c-.016-3.163-.714-3.919-1.129-4.088-.41-.171-1.443-.118-3.669 2.13a.567.567 0 0 1-.805-.797c2.225-2.248 2.266-3.276 2.093-3.689-.174-.413-.938-1.103-4.101-1.086a.562.562 0 0 1-.439-.219h-97.893c.002-.09.008-.18.01-.27.002-.098.001-.198.003-.296h97.801a.562.562 0 0 1 .512-.349c3.164-.015 3.92-.714 4.09-1.128.169-.415.117-1.443-2.132-3.667a.568.568 0 0 1 .798-.805c2.248 2.223 3.277 2.265 3.69 2.092.413-.174 1.104-.937 1.087-4.099a.568.568 0 0 1 1.134-.007c.016 3.163.714 3.919 1.129 4.088.409.172 1.442.119 3.669-2.13a.565.565 0 0 1 .951.54.556.556 0 0 1-.146.257c-2.225 2.248-2.267 3.276-2.093 3.689.174.413.937 1.104 4.101 1.087a.569.569 0 0 1 .552.708zm-84.091-41.143a.56.56 0 0 1 .132-.319l3.364-3.957-.213-.853a6.592 6.592 0 0 1 .815-5.087l2.852-4.532c-.171-.907-.579-4.118 1.614-6.507 2.185-2.38 6.192-3.126 11.912-2.212.286.044 6.77 1.075 9.854 3.047 1.208-1.116 3.262-1.04 4.628-.177l.073.046c1.355.852 4.529 2.848 2.762 13.227a16.513 16.513 0 0 1-.946 3.374.553.553 0 0 1-.101.357c-.034.047-.07.087-.105.133-2.853 6.48-9.143 8.862-10.565 9.326a.281.281 0 0 0-.172.155c-.036.08-3.489 8.202 2.625 16.808.011.016.013.034.022.051a.54.54 0 0 1 .071.216c.002.021.012.039.012.061 0 .017-.008.031-.009.048a.646.646 0 0 1-.061.21.548.548 0 0 1-.057.085.54.54 0 0 1-.08.085c-.012.011-.019.025-.032.035-.022.016-.048.023-.071.035-.019.01-.037.021-.057.029a.58.58 0 0 1-.2.04l-.002-.001h-14.972l-.003.001a.62.62 0 0 1-.095-.008c-.024-.004-.042-.018-.065-.025a.475.475 0 0 1-.193-.101.523.523 0 0 1-.137-.164.607.607 0 0 1-.041-.09.65.65 0 0 1-.024-.118c-.002-.021-.012-.04-.012-.061 0-.016.008-.029.009-.044.001-.017-.005-.032-.002-.05.258-1.53-.802-7.197-1.845-9.05a3.465 3.465 0 0 0-2.681-1.749l-4.458-.436a3.02 3.02 0 0 1-1.92-.922c-1.096-1.172-.316-2.259.059-2.78.059-.083.14-.196.186-.274-.173-.281-.682-.662-1.028-.854a.552.552 0 0 1-.17-.145c-.39-.494-.274-.883-.171-1.07.15-.274.435-.435.849-.517-.429-.325-.735-.697-.724-1.087.005-.198.1-.673.849-.808.162-.029.275-.081.302-.139.039-.08.011-.235-.029-.362-1.508-.734-1.809-2.18-1.749-2.87zm2.399 1.919c.121.05.221.14.283.255.047.086.448.863.118 1.549-.106.221-.319.493-.743.658.446.319 1.254.737 1.909.894.199.048.727.175.636.706-.091.533-.604.479-.943.445-.878-.091-1.42-.107-1.754-.092.398.286.898.724 1.078 1.226.167.467-.122.87-.377 1.226-.445.619-.573.896-.151 1.347a1.88 1.88 0 0 0 1.201.567l4.459.436a4.604 4.604 0 0 1 3.558 2.321c.99 1.759 2.062 6.781 2.023 9.133h13.305c-5.638-8.79-2.172-16.941-2.135-17.025.162-.369.475-.652.859-.777 1.057-.345 4.997-1.826 7.905-5.46-2.181 1.36-4.365 1.61-5.651 1.61a7.639 7.639 0 0 1-1.149-.075.568.568 0 0 1 .182-1.119c.217.035 5.13.75 8.635-3.767.44-1.02.789-2.146 1.009-3.391-3.163 3.087-7.044 3.388-8.433 3.388-.295 0-.477-.013-.518-.017a.567.567 0 0 1-.518-.61.574.574 0 0 1 .611-.519c.058.007 5.625.385 9.165-4.308a27.3 27.3 0 0 0 .222-3.528c-2.926 3.126-6.512 3.541-8.178 3.541-.533 0-.869-.041-.924-.048a.566.566 0 0 1 .149-1.124c.218.029 5.338.625 8.859-4.014-.389-3.504-1.88-4.446-2.664-4.939l-.075-.048c-.917-.579-2.681-.808-3.476.297-.265.366-.292 1.108.125 1.668.589.792 1.844.931 3.442.38a.565.565 0 1 1 .369 1.071c-2.978 1.026-4.294-.201-4.721-.775-.538-.723-.672-1.701-.397-2.483-2.872-1.83-9.326-2.855-9.394-2.866-5.316-.848-8.981-.225-10.894 1.852-1.722 1.869-1.509 4.466-1.367 5.383l8.084 1.775c.672.147 1.14.753 1.113 1.44l-.25 6.245a.286.286 0 0 0 .085.215l5.065 4.969a.567.567 0 1 1-.794.809l-5.065-4.97a1.42 1.42 0 0 1-.423-1.068l.249-6.245a.283.283 0 0 0-.223-.289l-8.061-1.77-2.762 4.389a5.459 5.459 0 0 0-.674 4.209l.283 1.136a.565.565 0 0 1-.117.504l-3.419 4.022c.021.366.191 1.221 1.269 1.661zm2.75-8.736c.289-.143.67-.283 1.099-.375l1.554-.523c.415-.14.861-.097 1.254.121.416.23.72.631.834 1.102l.203.84a.567.567 0 0 1-1.026.443c-.678-1.039-1.771-1.046-2.539-.882l-.946.318a.566.566 0 0 1-.433-1.044zm.086 1.631a.567.567 0 0 1 .753.216c.037.051.655.86 3.449 1.755a.566.566 0 0 1-.096 1.101l-2.641.364a.566.566 0 0 1-.155-1.122l.472-.066c-1.55-.735-1.943-1.338-2.02-1.483a.567.567 0 0 1 .238-.765zm13.639 8.643a.569.569 0 0 1 .64.479c.035.223.164.513.28.555.084.031.345-.028.797-.429 1.627-1.442 2.67-3.727 2.426-5.316a.566.566 0 1 1 1.12-.171c.303 1.967-.872 4.632-2.794 6.335-.541.48-1.046.722-1.506.722-.15 0-.295-.027-.435-.078-.823-.302-.993-1.339-1.01-1.456a.567.567 0 0 1 .482-.641zm1.312-.045a.566.566 0 1 1 0-1.133.566.566 0 0 1 0 1.133zm35.3-67.02c-3.05-.84-3.968-.372-4.243-.02-.275.354-.503 1.357 1.059 4.107a.566.566 0 1 1-.986.56c-1.562-2.75-2.543-3.066-2.986-3.013-.444.056-1.315.603-2.156 3.652a.569.569 0 0 1-1.114-.15c0-.05.007-.1.021-.151.841-3.049.373-3.966.02-4.24-.353-.275-1.358-.503-4.109 1.057a.552.552 0 0 1-.519.011l-84.796 48.937c-.044-.079-.084-.161-.128-.24-.048-.086-.099-.169-.147-.255l84.748-48.91c-.001-.011-.004-.023-.004-.034a.563.563 0 0 1 .287-.493c2.751-1.562 3.069-2.541 3.014-2.985-.056-.445-.604-1.316-3.654-2.156a.567.567 0 0 1 .301-1.092c3.05.839 3.967.371 4.243.02.275-.354.504-1.357-1.059-4.107a.565.565 0 0 1 .214-.772.565.565 0 0 1 .772.212c1.562 2.749 2.537 3.069 2.986 3.013.444-.056 1.316-.603 2.157-3.652a.567.567 0 0 1 1.092.301c-.84 3.049-.373 3.966-.019 4.24.353.277 1.358.504 4.108-1.057a.567.567 0 1 1 .56.985c-2.752 1.561-3.07 2.54-3.014 2.984.055.445.603 1.316 3.653 2.156a.567.567 0 1 1-.301 1.092zm-63.48-15.54c2.462 4.801 4.713 13.068-3.464 20.011-.539 1.065-4.652 8.74-11.233 8.74h-.237c-6.581 0-10.694-7.675-11.233-8.74-8.177-6.943-5.926-15.21-3.463-20.011-2.009-.184-3.742-1.488-4.391-3.431-.481-1.436-.284-2.891.586-4.324 1.026-1.691 2.549-2.505 4.417-2.395.431-1.362 1.086-2.711 2.066-3.93 2.305-2.866 5.938-4.432 10.814-4.662l-.001-.014a30.98 30.98 0 0 1 1.133-.016c.379-.002.765.003 1.158.016v.015c4.892.232 8.566 1.802 10.926 4.681.997 1.218 1.675 2.565 2.13 3.925 1.953-.173 3.536.633 4.596 2.38.87 1.433 1.068 2.888.586 4.325-.649 1.942-2.382 3.246-4.39 3.43zm-32.465-7.167c-.7 1.151-.857 2.256-.481 3.377.518 1.551 1.931 2.585 3.555 2.683a21.516 21.516 0 0 1-.359-3.477 3.296 3.296 0 0 0-.867.273.568.568 0 0 1-.475-1.029 4.239 4.239 0 0 1 1.349-.385c.036-1.045.158-2.171.421-3.312-1.341-.013-2.375.604-3.143 1.87zm28.662-6.18c-2.31-2.815-6.057-4.252-11.154-4.289-5.112.03-8.845 1.451-11.107 4.262-3.98 4.942-2.098 12.606-2.079 12.683l-.01.003c.007.028.022.053.025.083a.552.552 0 0 1-.079.326l.009.005c-2.975 5.301-4.896 12.986 2.851 19.494l.092.077.053.11c.04.082 4.06 8.211 10.268 8.211h.237c6.218 0 10.228-8.129 10.268-8.211l.052-.109.093-.078c7.747-6.507 5.722-14.341 2.747-19.642.017-.076 1.792-7.978-2.266-12.925zm6.638 6.18c-.8-1.318-1.886-1.934-3.307-1.868.284 1.137.428 2.26.484 3.303.451.029.934.154 1.45.393a.565.565 0 0 1-.239 1.08.558.558 0 0 1-.237-.052 3.126 3.126 0 0 0-.945-.284 21.425 21.425 0 0 1-.292 3.487c1.628-.092 3.047-1.126 3.567-2.681.375-1.122.218-2.227-.481-3.378zm-10.394 18.776l-.128 2.1c-.222 3.651-3.395 6.512-7.223 6.512-3.542 0-6.542-2.418-7.133-5.749a6.857 6.857 0 0 1-.091-.763l-.126-2.082c-1.73-.812-2.635-5.207-2.635-9.52 0-3.913.71-7.372 1.81-8.831 1.031-1.647 4.84-2.385 8.175-2.385 4.125 0 7.452 1.042 8.278 2.594.007.013.02.034.034.063 1.002 1.588 1.625 4.86 1.625 8.559 0 4.127-.815 8.625-2.586 9.502zm-7.351 7.478c2.609 0 4.855-1.562 5.721-3.772-.695.24-1.653.488-2.652.488-.632 0-1.277-.099-1.882-.362-.518-.226-.92-.817-1.211-1.484-.292.667-.693 1.258-1.212 1.484-.603.263-1.25.362-1.881.362-.974 0-1.909-.236-2.6-.47.872 2.227 3.12 3.754 5.717 3.754zm7.334-24.968l.494-.316-.015.004-.484.305-.045-.082-.025-.05c-.496-.929-3.222-1.956-7.259-1.956-3.817 0-6.669.948-7.222 1.865l-.036.053c-.793 1.032-1.593 3.957-1.593 8.165 0 5.533 1.349 8.494 2.072 8.53l.027.002c.716-.053 2.067-3.06 2.067-8.532v-.187c-1.611-.102-2.356-1.248-2.532-1.908l-.098-.368.304-.229c.455-.344.923-.544 1.391-.594.5-.056.988.099 1.374.429.394.338.635.832.66 1.352a32.951 32.951 0 0 1 .035 1.505c0 4.361-.914 8.759-2.662 9.533l.12 2.001c.007.114.027.233.042.35.729.315 2.809 1.087 4.363.411.437-.191.977-1.603 1.093-2.554l-.275-.693c-.3-.552-.866-1.217-1.837-1.09a.568.568 0 0 1-.326-1.068l.646-.325a1.53 1.53 0 0 1 1.228-.067c.376.143.663.423.808.787l.307.774.308-.774c.144-.364.431-.644.807-.787a1.526 1.526 0 0 1 1.228.067l.646.325a.566.566 0 0 1-.325 1.068c-.963-.121-1.523.512-1.824 1.057l-.242.609c-.002.03-.006.064-.01.097.112.951.655 2.382 1.096 2.574 1.596.695 3.744-.138 4.415-.435.013-.109.03-.216.037-.326l.12-1.98c-1.779-.715-2.709-5.154-2.709-9.554 0-.261.003-.52.01-.775.005-.245.014-.488.025-.728a1.894 1.894 0 0 1 .691-1.374 1.842 1.842 0 0 1 1.445-.396c.433.066.866.261 1.289.581l.303.23-.098.367c-.175.66-.921 1.806-2.531 1.908l-.001.187c0 5.521 1.376 8.532 2.083 8.532.744-.083 2.084-3.084 2.084-8.532 0-3.468-.577-6.604-1.469-7.988zm-12.637 6.418c-.194-.066-.315-.232-.268-.37.047-.138.243-.198.438-.132a.45.45 0 0 1 .198.139c-.018-.019-.028-.045-.049-.063a.674.674 0 0 0-.514-.164 1.364 1.364 0 0 0-.447.135c.188.279.554.626 1.232.699l-.006-.125a.764.764 0 0 0-.185-.442c.038.062.06.129.039.191-.047.139-.243.198-.438.132zm9.968.244c.677-.073 1.043-.419 1.231-.7a1.382 1.382 0 0 0-.393-.127.7.7 0 0 0-.556.154.757.757 0 0 0-.277.55l-.005.123zm.895-.614c.047.138-.073.304-.268.37-.194.066-.391.007-.437-.132-.047-.138.073-.304.268-.37.194-.066.39-.006.437.132zm-4.838-68.173c-3.046.855-3.591 1.728-3.644 2.173-.053.445.27 1.422 3.029 2.97a.567.567 0 0 1-.555.988c-2.759-1.548-3.762-1.315-4.114-1.038-.352.277-.815 1.196.04 4.241a.566.566 0 0 1-1.091.306c-.855-3.045-1.729-3.589-2.174-3.642-.446-.046-1.422.269-2.971 3.027a.557.557 0 0 1-.446.277l-48.876 84.62c-.077-.047-.152-.097-.229-.144-.085-.051-.172-.098-.257-.149l48.846-84.567a.56.56 0 0 1-.027-.591c1.549-2.759 1.316-3.76 1.039-4.113-.277-.352-1.197-.815-4.242.04a.566.566 0 1 1-.307-1.091c3.046-.854 3.59-1.728 3.643-2.173.054-.445-.269-1.421-3.028-2.969a.569.569 0 0 1-.217-.772.57.57 0 0 1 .772-.217c2.759 1.549 3.762 1.315 4.114 1.039.352-.277.815-1.196-.04-4.241a.569.569 0 0 1 .392-.699.567.567 0 0 1 .699.393c.855 3.045 1.729 3.589 2.174 3.642.45.044 1.423-.27 2.972-3.027a.566.566 0 1 1 .988.554c-1.549 2.758-1.316 3.76-1.039 4.112.277.351 1.197.814 4.242-.04a.567.567 0 0 1 .307 1.091zm-61.981 21.84a19.156 19.156 0 0 1 1.44 5.273c.221-.095.439-.194.647-.302a.566.566 0 1 1 .519 1.007c-.336.174-.693.328-1.057.472a20.023 20.023 0 0 1-.072 3.265c.542-.035 1.08-.105 1.606-.225a.567.567 0 0 1 .251 1.106c-.654.148-1.327.233-2.005.267-.122.777-.29 1.577-.509 2.398.327.047.657.086.991.109a.567.567 0 0 1-.038 1.132l-.04-.001a14.99 14.99 0 0 1-1.231-.143c-.682 2.16-1.713 4.458-3.194 6.897a.568.568 0 0 1-.779.189.566.566 0 0 1-.19-.778c1.401-2.306 2.38-4.479 3.032-6.522-3.161-.72-5.83-2.306-7.341-3.607-.785 1.997-1.646 4.923-1.662 8.206l.009.009-.008.234.001.102-.005.01-.003.167c0 .306-.061.583-.172.844.6.651 1.076 1.589 1.331 2.654.344 1.434.218 2.793-.336 3.635-.292.445-.692.723-1.156.804a1.726 1.726 0 0 1-.277.023c-.606 0-1.222-.335-1.762-.941-.44.633-1.015.996-1.636.996-.62 0-1.194-.365-1.634-1.001-.542.608-1.16.945-1.767.945-.093 0-.187-.008-.28-.024-.464-.081-.863-.36-1.154-.804-.552-.843-.674-2.202-.326-3.637.256-1.055.729-1.987 1.324-2.637a2.115 2.115 0 0 1-.202-.88h.566l-.567-.012c.075-3.605-.89-6.82-1.73-8.914-1.537 1.354-4.193 3.012-7.249 3.783.653 2.055 1.636 4.244 3.048 6.567a.566.566 0 0 1-.969.589c-1.487-2.448-2.521-4.756-3.203-6.923-.445.076-.894.138-1.349.169l-.04.001a.567.567 0 0 1-.039-1.132c.375-.026.745-.075 1.113-.133a23.038 23.038 0 0 1-.502-2.371 11.732 11.732 0 0 1-2.132-.27.568.568 0 0 1 .25-1.106c.567.129 1.149.199 1.733.23a20.134 20.134 0 0 1-.075-3.227 11.702 11.702 0 0 1-1.182-.515.566.566 0 1 1 .519-1.007c.245.126.504.241.769.35a19.147 19.147 0 0 1 1.453-5.338c-2.448-1.988-4.658-4.121-5.49-5.372a.855.855 0 0 1-.255-.581c-.038-.886.103-4.146 3.517-8.727.514-1.56 2.67-3.312 5.544-4.492 1.314-.54 2.683-.918 3.958-1.092a.758.758 0 0 1 .741.322.7.7 0 0 1 .031.746l-1.371 2.342 3.315.6a.747.747 0 0 1 .596.546.705.705 0 0 1-.254.728c-.969.778-2.221 1.496-3.618 2.072-1.884.771-3.853 1.202-5.462 1.202h-.013c-2.589 3.515-2.496 4.887-2.456 5.48l.001.025.037.057c.438.683 1.487 1.809 2.85 3.059a22.317 22.317 0 0 1 4.199-4.753c.711-.598 1.842-.577 2.52.046l.927.851a4.002 4.002 0 0 1 .781-2.274.776.776 0 0 1 .991-.199l2.638 1.506 2.492-1.424a.76.76 0 0 1 1.008.222c.446.644.687 1.399.708 2.18l.939-.862c.678-.623 1.808-.644 2.52-.046a22.341 22.341 0 0 1 4.241 4.819c1.393-1.271 2.482-2.429 2.928-3.125l.038-.082c.041-.593.134-1.965-2.456-5.48h-.013c-1.609 0-3.578-.431-5.46-1.201-1.399-.577-2.652-1.295-3.623-2.076a.702.702 0 0 1-.251-.725.745.745 0 0 1 .594-.545l3.317-.601-1.367-2.335a.706.706 0 0 1 .027-.753.754.754 0 0 1 .742-.322c1.274.174 2.643.552 3.958 1.092 2.873 1.181 5.03 2.932 5.543 4.492 3.413 4.579 3.555 7.84 3.517 8.735a.848.848 0 0 1-.255.573c-.821 1.231-3.085 3.381-5.603 5.389zm-.939.734c-1.608 1.229-3.253 2.342-4.653 3.093a11.25 11.25 0 0 1-.522 2.553c1.729.222 4.242.016 6.442-.692a18.092 18.092 0 0 0-1.267-4.954zm1.357 6.108a18 18 0 0 1-5.074.758 12.16 12.16 0 0 1-1.874-.134c-.03.065-.058.134-.088.197v.037l-.081.126-.005.009c-.022.044-.048.085-.071.129 1.482.73 4.252 1.697 7.092 1.775a19.2 19.2 0 0 0 .101-2.897zm-.727 6.21c.201-.75.358-1.48.474-2.191-2.801-.095-5.578-.961-7.458-1.89-.068.142-.139.296-.213.462 1.302 1.215 4.003 2.9 7.197 3.619zm-17.397 9.974c-.267 1.102-.199 2.181.173 2.749.117.179.252.282.401.308.416.078.991-.394 1.441-1.16.012-.021.031-.033.045-.051.026-.033.051-.065.083-.092a.519.519 0 0 1 .093-.058c.023-.013.041-.032.066-.042.01-.004.021-.002.031-.005a.538.538 0 0 1 .118-.019c.033-.003.065-.009.097-.006.038.003.074.015.11.026.035.01.069.018.101.035.01.005.022.005.032.011.024.013.038.036.059.053.029.023.056.044.08.072a.544.544 0 0 1 .067.106c.011.02.027.035.036.057.261.69.665 1.137 1.027 1.137.364 0 .768-.445 1.029-1.132.009-.022.026-.037.037-.058a.52.52 0 0 1 .066-.104.493.493 0 0 1 .083-.074c.02-.017.034-.038.057-.051.009-.006.02-.006.029-.011a.569.569 0 0 1 .112-.038c.033-.009.064-.02.098-.023.036-.003.07.003.105.006.04.004.077.008.115.02.009.003.02.001.03.005.023.009.04.027.061.038.035.019.068.036.099.062.03.025.055.057.079.089.015.019.035.032.048.053.448.761 1.022 1.219 1.433 1.156.149-.026.285-.13.403-.31.374-.568.445-1.647.181-2.748-.189-.788-.526-1.499-.933-2.002-.374.32-.842.587-1.382.765-.29.096-.593.167-.898.21a5.825 5.825 0 0 1-1.7.001 5.056 5.056 0 0 1-.9-.211 4.074 4.074 0 0 1-1.378-.759c-.407.503-.743 1.211-.934 1.995zm-9.275-10.015c3.076-.761 5.725-2.492 7.094-3.797-.048-.104-.09-.192-.135-.285l-.034.015c-1.85.923-4.602 1.794-7.388 1.912.114.7.267 1.418.463 2.155zm-.615-3.278c2.833-.105 5.583-1.079 7.036-1.804l.017-.007c-.011-.023-.024-.043-.036-.066l-.099-.099-.001-.107c-.038-.079-.071-.162-.107-.243-.603.098-1.288.15-2.025.15-1.532 0-3.271-.223-4.886-.687a19.27 19.27 0 0 0 .101 2.863zm-.013-4.016c2.176.662 4.668.838 6.41.606a11.37 11.37 0 0 1-.495-2.476c-1.384-.742-3.03-1.869-4.641-3.12a18.013 18.013 0 0 0-1.274 4.99zm-1.753-11.201a.853.853 0 0 1-.249-.549l-.008-.133c-.054-.793-.166-2.444 2.853-6.469l.178-.237.296.011c1.511.059 3.441-.349 5.304-1.111a15.084 15.084 0 0 0 2.576-1.352l-2.947-.533a.748.748 0 0 1-.551-.42.708.708 0 0 1 .038-.657l1.222-2.087c-.943.189-1.923.488-2.874.88-2.974 1.221-4.634 2.857-4.917 3.859l-.029.101-.063.085c-3.152 4.197-3.361 7.181-3.353 7.972l.036.057c.665 1.036 2.72 3.053 5.077 4.993.183-.361.373-.708.569-1.044-1.428-1.294-2.597-2.521-3.158-3.366zm3.502 5.146c1.39 1.095 2.832 2.117 4.125 2.868.008-.34.027-.678.063-1.01a48.244 48.244 0 0 1-3.658-2.867c-.183.325-.36.66-.53 1.009zm6.213-6.636c-.266-.243-.743-.249-1.024-.014-.989.832-2.622 2.4-4.067 4.656a47.803 47.803 0 0 0 3.272 2.609c.524-2.348 1.765-4.384 3.509-5.7l-1.69-1.551zm9.117 2.099l-.432-.268.215-.449.001-.001.004-.008a2.872 2.872 0 0 0-.056-2.588l-2.746 1.568-2.902-1.656a2.877 2.877 0 0 0-.121 2.636.545.545 0 0 1 .051.113l.183.385-.43.268-.018.012c-.012.006-.022.017-.034.022-2.341 1.484-3.795 4.411-3.795 7.66 0 .11.015.218.018.327l.001.001v.026c.048 1.418.364 2.799.947 4.016h.001l.033.069c.235.398 3.188 5.527 3.058 11.984 0 .219.078.434.231.64.262.353.718.648 1.282.832.228.076.465.131.709.166a4.666 4.666 0 0 0 2.079-.166c.568-.187 1.023-.484 1.282-.836a.953.953 0 0 0 .198-.613v-.058l-.096-.096.102-.246c-.011-6.218 2.788-11.104 3.069-11.58l.021-.038a9.29 9.29 0 0 0 .417-.998c.383-1.085.576-2.24.576-3.43 0-1.108-.168-2.186-.5-3.202a9.063 9.063 0 0 0-.531-1.301c-.683-1.369-1.656-2.472-2.817-3.191zm3.923-2.113c-.281-.235-.759-.229-1.024.014l-1.703 1.563c1.072.811 1.979 1.905 2.634 3.219.233.462.434.953.596 1.459.117.359.209.727.29 1.098a47.366 47.366 0 0 0 3.315-2.633 21.04 21.04 0 0 0-4.108-4.72zm4.697 5.707a48.287 48.287 0 0 1-3.707 2.894c.031.298.049.598.057.9 1.275-.74 2.73-1.754 4.145-2.845a18.766 18.766 0 0 0-.495-.949zm3.285-12.815l-.063-.085-.029-.101c-.283-1.002-1.943-2.638-4.916-3.859a15.793 15.793 0 0 0-2.875-.88l1.225 2.092a.705.705 0 0 1 .035.652.75.75 0 0 1-.554.421l-2.943.532c.75.5 1.625.96 2.577 1.352 1.861.761 3.796 1.167 5.302 1.111l.297-.011.177.237c3.019 4.025 2.907 5.676 2.853 6.469l-.007.122a.86.86 0 0 1-.25.56c-.566.852-1.774 2.112-3.238 3.433.185.321.365.651.539.994 2.376-1.911 4.485-3.915 5.187-5.01l.036-.057c.007-.808-.211-3.789-3.353-7.972zm-12.381 24.216c-.238.12-.498.18-.757.18-.198 0-.396-.036-.582-.107a1.5 1.5 0 0 1-.877-.853l-.427-1.076-.427 1.076a1.507 1.507 0 0 1-.877.854 1.66 1.66 0 0 1-1.338-.074l-.739-.371a.566.566 0 0 1 .325-1.069c1.149.148 1.817-.613 2.171-1.258l.351-.884a.56.56 0 0 1 .275-.319l.036-.019c.016-.007.028-.019.044-.024.03-.009.059-.006.088-.01.03-.005.06-.011.09-.011.032 0 .062.005.094.011.028.004.057.001.085.01.017.005.029.017.045.024.013.006.024.013.036.02a.556.556 0 0 1 .262.286l.013.032.338.851c.352.652 1.027 1.433 2.184 1.291a.567.567 0 1 1 .325 1.069l-.738.371zM233.081 9.37c-3.156-.043-3.932.645-4.108 1.056-.177.412-.143 1.441 2.066 3.704a.57.57 0 0 1-.01.802.568.568 0 0 1-.802-.01c-2.209-2.264-3.237-2.324-3.653-2.157-.416.165-1.119.916-1.159 4.079a.562.562 0 0 1-.182.405v97.829c-.09-.002-.18-.008-.27-.01l-.297-.003V17.366a.562.562 0 0 1-.385-.532v-.005c.04-3.162-.645-3.93-1.056-4.107-.411-.179-1.441-.144-3.706 2.065a.566.566 0 1 1-.791-.811c2.265-2.208 2.324-3.235 2.158-3.651-.167-.416-.918-1.119-4.082-1.159a.567.567 0 0 1-.559-.569v-.005a.567.567 0 0 1 .566-.559h.008c3.16.048 3.932-.644 4.109-1.056.176-.412.143-1.44-2.066-3.704a.562.562 0 0 1 .01-.801.567.567 0 0 1 .801.01c2.209 2.264 3.236 2.322 3.653 2.157.416-.167 1.12-.918 1.159-4.08a.567.567 0 0 1 .567-.559h.007c.311.004.56.256.56.566v.008c-.04 3.162.645 3.93 1.057 4.106.412.176 1.44.144 3.705-2.064a.566.566 0 1 1 .791.811c-2.264 2.208-2.324 3.235-2.157 3.651.166.416.917 1.119 4.081 1.159.31.004.559.256.559.566v.007c-.003.313-.253.579-.574.56zm-23.506 52.522c-.721.217-.903.458-.946.54.045.111.177.39.461.587.404.275.65.731.653 1.217.003.298-.096.976-.988 1.334.066.079.119.163.157.253.057.135.232.546.032 1.03s-.694.873-1.554 1.222a.669.669 0 0 0-.394.376c-.212.505.033 1.321.135 1.567l.029.091c.015.065.35 1.588-.642 2.775-.713.853-1.89 1.284-3.502 1.284-.146 0-.295-.003-.447-.01-.008 0-.014-.004-.021-.005-.01-.001-.018.003-.028.001l-1.933-.256a3.781 3.781 0 0 0-3.422 1.326c-1.835 2.21-3.791 5.725-2.685 9.913.006.024.001.047.004.072.003.024.014.045.015.071 0 .014-.007.026-.008.04a.606.606 0 0 1-.023.114c-.01.034-.019.067-.034.098a.603.603 0 0 1-.06.089.55.55 0 0 1-.071.081c-.026.023-.056.04-.086.059a.663.663 0 0 1-.104.05c-.013.005-.023.015-.037.018a.554.554 0 0 1-.139.019h-.004l-8.748.025c-.017.001-.035.007-.052.007-.015 0-.028-.006-.042-.007h-.031l-11.476.033h-.002c-.024 0-.044-.011-.068-.014l-8.342.014h-.001a.558.558 0 0 1-.234-.054c-.019-.009-.034-.024-.052-.035a.588.588 0 0 1-.139-.114c-.007-.008-.018-.011-.025-.02-.014-.019-.017-.04-.029-.059a.608.608 0 0 1-.051-.106.575.575 0 0 1-.023-.111c-.003-.023-.013-.043-.013-.067 0-.013.006-.024.007-.037a.54.54 0 0 1 .023-.113c.009-.034.018-.068.033-.1.016-.031.037-.058.058-.085a.54.54 0 0 1 .077-.088c.01-.009.014-.02.025-.028.039-.031 4.081-3.21 6.511-11.14a.83.83 0 0 0-.128-.743.832.832 0 0 0-.675-.34h-4.399c-.448 0-.847-.285-.993-.708l-1.782-5.156-.487-.146a1.044 1.044 0 0 1-.745-.907 19.462 19.462 0 0 1 .416-6.14l.006-.025-.27-.231a1.053 1.053 0 0 1-.334-1.071c.236-.876.524-1.74.855-2.567.318-.79.685-1.574 1.095-2.335l-.171-.164a1.044 1.044 0 0 1-.213-1.228 17.767 17.767 0 0 1 2.703-3.928 1.05 1.05 0 0 1-.05-1.439 27.02 27.02 0 0 1 2.352-2.36 23.679 23.679 0 0 1 2.426-1.857 1.052 1.052 0 0 1 .44-1.064 9.79 9.79 0 0 1 .747-.464c1.898-1.052 3.886-1.771 5.909-2.138.45-.081.927-.153 1.419-.215a16.677 16.677 0 0 1 6.301.422 19.317 19.317 0 0 1 2.476-.479c5.697-.713 11.339 1.527 15.102 5.987l.005.005.031.033a17.308 17.308 0 0 1 1.656 2.342l2.59 4.393a5.312 5.312 0 0 1 .645 3.166c-.05.453.065.905.324 1.276l2.351 3.384c.314.45.39 1.012.202 1.502-.169.445-.578 1.038-1.568 1.338zm-29.974-22.245c-.472.059-.928.128-1.358.206-1.901.345-3.772 1.022-5.561 2.014-.199.11-.392.231-.581.358l.004.005.429.5-.428-.499h.001c.054.063 5.458 6.285 9.679 8.378a.566.566 0 1 1-.503 1.015c-3.852-1.91-8.424-6.846-9.697-8.27a22.632 22.632 0 0 0-2.32 1.759 26.52 26.52 0 0 0-2.192 2.193l.702.614c.854.735 3.122 2.615 5.66 4.125 1.838 1.094 3.452 1.779 4.797 2.037a.568.568 0 0 1-.214 1.113c-1.475-.282-3.212-1.014-5.163-2.176-2.599-1.547-4.865-3.418-5.777-4.203a16.74 16.74 0 0 0-1.351 1.67 16.555 16.555 0 0 0-1.173 1.955l.423.405c.152.124 5.59 4.57 11.373 5.022a.567.567 0 1 1-.089 1.13c-5.171-.405-9.901-3.669-11.47-4.859a21.524 21.524 0 0 0-.936 1.998 21.506 21.506 0 0 0-.799 2.388l.426.363c.697.33 7.624 3.519 11.881 2.404a.564.564 0 0 1 .692.404.568.568 0 0 1-.404.692c-.726.19-1.512.272-2.324.272-3.764 0-8.097-1.748-9.737-2.476a18.338 18.338 0 0 0-.338 5.402l.677.203c.313.053 5.363.879 9.088.062a3.72 3.72 0 0 0 .258-.061c.52-.126.977-.278 1.371-.454a.566.566 0 1 1 .462 1.035 9.21 9.21 0 0 1-1.551.517 6.396 6.396 0 0 1-.299.07c-1.32.29-2.773.389-4.139.389-1.822 0-3.485-.175-4.476-.306l1.552 4.492h4.34c.632 0 1.21.291 1.586.799.376.508.486 1.145.302 1.748-1.786 5.825-4.371 9.164-5.821 10.69l17.844-.029c-.879-4.546 1.509-8.306 3.068-10.184 1.083-1.305 2.742-1.948 4.443-1.726l1.903.253c1.457.069 2.474-.228 3.011-.87.561-.671.445-1.576.414-1.761-.114-.293-.507-1.443-.114-2.382a1.8 1.8 0 0 1 1.014-.989c.78-.317.913-.558.932-.604.007-.017.018-.045-.025-.148-.004.011-.09-.067-.346-.158a1.948 1.948 0 0 0-.333-.079l-.45-.081-.06-.481c-.018-.539.463-.655 1.423-.885.336-.08.506-.196.504-.344a.375.375 0 0 0-.163-.295 2.405 2.405 0 0 1-.943-1.327c-.029-.148-.179-1.236 1.745-1.816.44-.133.722-.354.837-.656a.502.502 0 0 0-.072-.452l-2.354-3.383c-.416-.6-.6-1.326-.52-2.045a4.155 4.155 0 0 0-.1-1.447c-.937-.669-1.935-.364-2.597.009l-.817.596a.57.57 0 0 1-.768-.094.568.568 0 0 1 .042-.773c.235-.226.559-.476.944-.695l1.343-.978a1.53 1.53 0 0 1 .758-.28l-1.888-3.201a16.315 16.315 0 0 0-1.392-1.985l-4.284.009c-.527-.02-.676.086-.717.131-.042.048-.132.217-.048.753l.468 3.45a6.801 6.801 0 0 1-1.816 5.626l-2.415 2.618-2.466-1.063c-.26-.13-.582-.25-.821-.16-.228.085-.384.365-.475.584-.241.593-.258 1.328-.258 1.336-.011 1.071.169 2.07.533 2.962a5.819 5.819 0 0 0 1.788 2.409c.13.101.31.121.463.042l1.209-.632a.567.567 0 0 1 .526 1.004l-1.214.634a1.566 1.566 0 0 1-1.686-.159 6.938 6.938 0 0 1-2.136-2.87c-.421-1.032-.628-2.178-.617-3.406.001-.042.019-.954.343-1.749.258-.625.637-1.034 1.129-1.217.498-.186 1.069-.12 1.695.196l1.698.731 1.876-2.034a5.678 5.678 0 0 0 1.522-4.697l-.023-.16-.444-3.281c-.074-.47-.123-1.168.321-1.668.329-.371.846-.547 1.583-.513l3.266-.007 1.277-.003h-.001l-1.276.003a16.021 16.021 0 0 0-7.027-4.208 15.516 15.516 0 0 0-6.258-.494zm8.776-.056c-.158.019-.315.051-.472.075a17.21 17.21 0 0 1 6.655 4.843l.007.007c.01.012.021.021.031.032a17.514 17.514 0 0 1 1.656 2.342l.383.649-.144-1.059c-.074-.47-.123-1.168.322-1.668.329-.371.848-.548 1.583-.512l3.262-.008c-3.486-3.567-8.361-5.315-13.283-4.701zM210.011 59.7l-2.352-3.385a2.991 2.991 0 0 1-.519-2.043 4.23 4.23 0 0 0-.111-1.499c-.816-.619-1.687-.368-2.274-.043l-.754.549a.567.567 0 0 1-.727-.867 4.46 4.46 0 0 1 .852-.627l1.198-.871c.194-.142.417-.224.65-.256l-1.919-3.25a16.274 16.274 0 0 0-1.391-1.985l-4.284.009c-.53-.019-.677.086-.717.132-.043.047-.132.216-.048.752l.468 3.453c.013.089.021.182.03.274l.73 1.239a5.313 5.313 0 0 1 .645 3.17c-.05.449.065.901.324 1.274l2.354 3.383c.311.449.386 1.01.201 1.5-.17.447-.58 1.041-1.569 1.339-.721.218-.904.459-.947.541.045.111.177.389.461.585.405.279.65.735.652 1.219.003.297-.095.975-.987 1.334.068.08.121.166.159.258.055.13.23.541.029 1.026-.199.484-.693.872-1.553 1.221a.665.665 0 0 0-.393.373c-.211.502.027 1.304.137 1.571l.028.09c.015.064.349 1.589-.642 2.775-.778.93-2.105 1.361-3.951 1.274-.009 0-.016-.005-.024-.006-.009 0-.016.003-.025.002l-1.933-.257a3.777 3.777 0 0 0-3.421 1.326c-1.766 2.127-3.639 5.469-2.785 9.459l7.626-.022c-.883-4.579 1.502-8.336 3.064-10.216a4.902 4.902 0 0 1 4.443-1.726l1.893.251c1.459.067 2.474-.224 3.013-.861.567-.67.451-1.579.419-1.77-.113-.294-.504-1.442-.111-2.381.19-.455.541-.797 1.013-.989.781-.317.914-.558.933-.604.007-.017.018-.045-.025-.148 0 .005-.086-.065-.347-.158-.109-.039-.221-.059-.335-.081l-.446-.081-.062-.476c-.021-.54.462-.656 1.422-.888.338-.08.508-.195.506-.343a.363.363 0 0 0-.162-.293 2.421 2.421 0 0 1-.944-1.329c-.029-.147-.181-1.236 1.744-1.817.44-.133.722-.354.837-.656a.494.494 0 0 0-.073-.451zm-4.749-4.279l.546.288a.566.566 0 1 1-.529 1.002l-2.233-1.177a.566.566 0 0 1-.298-.559c0-.008-.004-.016-.004-.025a.557.557 0 0 1 .589-.544c.819.032 2.321-.066 2.867-.465a.567.567 0 0 1 .668.915c-.409.299-1.011.468-1.606.565zm-10.707-.958c.818.031 2.321-.067 2.867-.465a.567.567 0 0 1 .669.915c-.41.299-1.012.468-1.607.565l.546.288a.566.566 0 1 1-.529 1.002l-2.232-1.177a.565.565 0 0 1-.298-.559c0-.008-.004-.016-.004-.025a.562.562 0 0 1 .588-.544zm-10.142 4.634l-.268.113c-.517.216-.875.67-.935 1.185-.045.397.048.804.262 1.142a.567.567 0 0 1-.957.607 2.907 2.907 0 0 1-.431-1.88c.107-.921.729-1.726 1.623-2.099l.268-.112a.566.566 0 1 1 .438 1.044zm-59.006-20.036c-3.045-.858-3.964-.398-4.242-.046-.277.352-.512 1.353 1.033 4.113a.563.563 0 0 1-.097.68l48.82 84.523c-.08.044-.162.084-.241.128-.086.048-.17.099-.255.147l-48.906-84.672a.558.558 0 0 1-.31-.253c-1.545-2.759-2.525-3.09-2.967-3.031-.445.053-1.32.595-2.18 3.638a.566.566 0 1 1-1.09-.307c.859-3.044.397-3.964.046-4.241-.352-.278-1.354-.512-4.115 1.033a.567.567 0 0 1-.554-.989c2.761-1.545 3.085-2.521 3.033-2.966-.053-.445-.595-1.319-3.64-2.179a.566.566 0 1 1 .308-1.09c3.044.859 3.964.397 4.242.047.278-.352.512-1.354-1.033-4.114a.566.566 0 0 1 .989-.553c1.545 2.759 2.521 3.079 2.967 3.031.445-.052 1.32-.595 2.18-3.639a.567.567 0 1 1 1.091.308c-.86 3.044-.398 3.963-.047 4.241.352.278 1.355.512 4.115-1.033a.57.57 0 0 1 .844.494.567.567 0 0 1-.29.496c-2.761 1.544-3.085 2.52-3.033 2.965.053.445.596 1.319 3.64 2.179a.565.565 0 0 1 .392.698.564.564 0 0 1-.7.392zm-4.871 50.744c1.698-.001 4.969-.464 9.779-3.15a1.36 1.36 0 0 1 1.746.353c.187.239.29.539.29.843 0 .243-.065.481-.188.688-.903 1.55-4.381 6.652-11.612 8.481.375.427 1.335 1.102 3.548.726.506-.086.969-.151 1.416-.2 1.514-.163 2.852-.071 4.014.264.019.004.039.005.059.009l.131.047-.002.005c.986.313 1.845.8 2.554 1.48.601.576.891 1.276.837 2.023-.131 1.836-2.299 3.41-2.392 3.476a8.165 8.165 0 0 1-6.095 1.683 7.818 7.818 0 0 1-4.66-2.339l-.963 16.684a10.307 10.307 0 0 1-3.511 7.162c-.809 3.008-3.554 5.232-6.815 5.232-3.262 0-6.006-2.224-6.815-5.232a10.303 10.303 0 0 1-3.511-7.162l-.965-16.684a7.813 7.813 0 0 1-4.659 2.339 8.207 8.207 0 0 1-6.117-1.699c-.07-.05-2.239-1.624-2.37-3.46-.053-.747.236-1.447.837-2.023.713-.683 1.575-1.172 2.567-1.485l-.003-.006.12-.041.052-.008c1.163-.336 2.503-.43 4.02-.265.448.049.912.114 1.416.2 2.213.377 3.174-.299 3.549-.727-7.23-1.828-10.709-6.93-11.615-8.484a1.34 1.34 0 0 1-.186-.684c0-.304.104-.604.291-.844a1.358 1.358 0 0 1 1.746-.351c4.809 2.684 8.083 3.144 9.778 3.148 1.065-2.209 5.886-3.744 11.865-3.744 5.976 0 10.795 1.533 11.864 3.745zm10.65-1.84a.227.227 0 0 0 .031-.114.233.233 0 0 0-.348-.207c-4.849 2.708-8.269 3.252-10.141 3.29l-.014.238h.001l-.011.155-.263 4.551c6.689-1.757 9.903-6.469 10.745-7.913zm-10.884 10.329l-.08 1.391c.474-.304.961-.579 1.46-.822a3.92 3.92 0 0 1-1.38-.569zm-.072 4.479c1.091 1.461 2.702 2.397 4.538 2.636a7.059 7.059 0 0 0 5.266-1.463c.53-.383 1.868-1.571 1.944-2.654.029-.411-.132-.778-.491-1.123-.609-.583-1.342-.994-2.196-1.252-3.131-.671-6.435.191-9.151 2.191l-.083 1.424c.057.082.115.162.173.241zM96.614 90.934c-1.874-.039-5.291-.582-10.139-3.289a.234.234 0 0 0-.32.316c.844 1.448 4.059 6.16 10.745 7.917l-.286-4.944zm.426 7.362c-.343.232-.797.44-1.378.567.499.242.985.517 1.458.821l-.08-1.388zm.162 2.809c-2.711-1.996-6.008-2.858-9.135-2.193a.093.093 0 0 0-.013.004l-.05.023-.026.001c-.822.26-1.531.663-2.122 1.229-.359.345-.519.712-.49 1.123.076 1.083 1.413 2.271 1.922 2.638a7.054 7.054 0 0 0 5.288 1.479 6.689 6.689 0 0 0 4.709-2.876l-.083-1.428zm21.364 7.609c-.016.006-.03.014-.046.019-.652.22-1.309.022-1.466-.441-.156-.463.246-1.019.898-1.239.246-.084.493-.107.714-.078l.024-.404c-.397.02-.838.191-1.22.494-.385.303-.668.706-.776 1.107-.055.199-.112.578.117.867.321.407 1.066.408 1.733.04l.022-.365zm-.7 12.099l.606-10.477c-.301.096-.602.15-.893.15-.663 0-1.266-.249-1.658-.744-.392-.497-.509-1.178-.321-1.868.173-.639.588-1.242 1.167-1.698.608-.481 1.319-.735 1.988-.738l.193-3.337a14.436 14.436 0 0 0-2.829 3.623c-2.936 5.346-2.153 11.669 1.739 15.168.002-.027.007-.052.008-.079zm-9.194 11.326a5.928 5.928 0 0 0 5.062-2.855 10.282 10.282 0 0 1-5.062 1.336 10.28 10.28 0 0 1-5.062-1.336 5.928 5.928 0 0 0 5.062 2.855zm-5.808-4.725a9.17 9.17 0 0 0 11.615 0 5.89 5.89 0 0 0-.706-4.213l.152 1.686c.045.498-.122.981-.469 1.361a1.976 1.976 0 0 1-1.456.638l-1.06.002a.568.568 0 0 1-.191-1.1c1.502-.538 1.833-1.897 1.858-2.892l-.109-1.207a5.902 5.902 0 0 0-7.653 0l-.109 1.207c.025.995.356 2.354 1.859 2.892a.565.565 0 0 1-.191 1.1h-.001l-1.06-.002a1.976 1.976 0 0 1-1.456-.638 1.769 1.769 0 0 1-.469-1.361l.152-1.685a5.882 5.882 0 0 0-.706 4.212zm-4.191-20.523c.204-.017.426.006.65.081.651.22 1.053.776.897 1.24-.155.458-.801.655-1.445.446l.021.371c.687.414 1.479.433 1.814.01.228-.289.171-.668.117-.867-.109-.401-.392-.804-.776-1.107-.408-.322-.881-.499-1.297-.498l.019.324zm-.084-1.454c.69-.018 1.433.239 2.065.739.578.456.993 1.059 1.166 1.698.188.69.071 1.371-.321 1.867-.391.496-.995.745-1.658.745-.315 0-.644-.057-.97-.17l.606 10.497c.002.027.007.052.009.079 3.892-3.499 4.675-9.822 1.738-15.168a14.375 14.375 0 0 0-2.828-3.623l.193 3.336zm20.973-15.06c-.631-1.567-4.876-3.184-10.89-3.184-6.015 0-10.26 1.617-10.889 3.18a.974.974 0 0 0-.055.176l.025.46.01.018.001.151.541 9.355a15.404 15.404 0 0 1 3.913 4.646c3.326 6.054 2.214 13.287-2.544 17.019a9.156 9.156 0 0 0 1.935 3.975 7.07 7.07 0 0 1 7.063-7.024 7.07 7.07 0 0 1 7.062 7.024 9.156 9.156 0 0 0 1.935-3.975c-4.757-3.732-5.869-10.965-2.543-17.019a15.404 15.404 0 0 1 3.913-4.646l.577-9.984a.994.994 0 0 0-.054-.172zm-73.161 22.135c-3.065.785-3.628 1.647-3.692 2.09-.063.443.237 1.427 2.96 3.038a.564.564 0 0 1 .278.488c0 .011-.003.02-.004.03l84.587 48.818c-.047.077-.097.152-.144.229-.051.085-.098.172-.149.256l-84.614-48.833a.554.554 0 0 1-.531-.013c-2.723-1.611-3.731-1.4-4.089-1.131-.358.269-.842 1.177-.056 4.24a.567.567 0 0 1-1.098.281c-.786-3.063-1.647-3.626-2.091-3.69-.445-.063-1.428.238-3.039 2.959a.566.566 0 1 1-.976-.576c1.612-2.723 1.401-3.73 1.132-4.088-.269-.358-1.177-.842-4.242-.056a.566.566 0 1 1-.281-1.097c3.064-.786 3.628-1.647 3.691-2.091.063-.443-.237-1.427-2.96-3.038a.564.564 0 0 1-.199-.775.566.566 0 0 1 .776-.199c2.723 1.61 3.731 1.401 4.089 1.131.359-.269.842-1.177.056-4.241a.566.566 0 0 1 1.098-.281c.786 3.063 1.648 3.626 2.091 3.69.444.063 1.429-.237 3.039-2.959a.567.567 0 0 1 .976.577c-1.611 2.722-1.401 3.729-1.132 4.087.269.359 1.179.841 4.242.057a.565.565 0 0 1 .708.548c0 .253-.17.483-.426.549zm8.964 79.498a.857.857 0 0 1 .304 1.064.86.86 0 0 1-.993.501c-3.088-.7-8.741-2.634-11.901-7.721-2.331-3.751-2.829-8.495-1.479-14.1 1.389-5.767 4.028-9.456 7.844-10.966 6.698-2.649 14.481 2.375 14.81 2.591l.187.123a35.622 35.622 0 0 1 7.752.002l.191-.125c.328-.215 8.113-5.24 14.81-2.591 3.815 1.51 6.454 5.199 7.843 10.966 1.35 5.605.853 10.348-1.478 14.1-3.16 5.087-8.814 7.021-11.902 7.721a.86.86 0 0 1-.993-.501.858.858 0 0 1 .306-1.065c2.529-1.741 6.823-5.53 7.152-11.34.004-.078.005-.156.007-.234a8.31 8.31 0 0 1-3.219.653c-2.193 0-4.339-.866-5.89-2.482l-2.815 17.904c-.477 2.386-.942 4.7-2.045 6.416a5.992 5.992 0 0 1-5.857 4.766 5.988 5.988 0 0 1-5.869-4.839c-1.073-1.704-1.546-3.977-2.029-6.316l-2.816-17.906c-1.549 1.599-3.682 2.457-5.861 2.457a8.306 8.306 0 0 1-3.219-.653c.002.079.002.158.006.237.33 5.807 4.624 9.596 7.154 11.338zm23.629-14.826c2.011 2.692 5.727 3.526 8.775 2.027-.298-2.525-1.733-4.789-3.94-6.167-.221.031-.44.063-.658.1a8.507 8.507 0 0 1-1.422.128c-.911 0-1.605-.177-2.129-.415l-.67 4.265.044.062zm.379-6.585a9.725 9.725 0 0 1 5.008 1.452c2.755 1.698 4.466 4.614 4.577 7.801a9.832 9.832 0 0 1-.008.879c-.312 5.5-3.852 9.293-6.542 11.403 3.011-.871 7.34-2.783 9.884-6.878 2.165-3.484 2.616-7.938 1.339-13.236-1.297-5.388-3.706-8.812-7.159-10.178-5.439-2.153-11.961 1.401-13.455 2.29.247 1.086 1.398 4.472 6.356 6.467zm-2.526 12.602c-.62.165-1.219-.033-1.368-.475-.158-.467.248-1.028.906-1.251.258-.087.516-.107.745-.074l.051-.324c-.481-.089-1.083.093-1.586.492-.398.314-.69.73-.803 1.144-.056.209-.115.602.123.905.346.437 1.157.422 1.866.003l.066-.42zm-8.848 23.358a4.833 4.833 0 0 0 3.517-1.521c-.928.454-2.073.715-3.517.715-1.453 0-2.604-.267-3.534-.734a4.83 4.83 0 0 0 3.534 1.54zm-4.782-4.083c.955 1.399 2.375 2.144 4.782 2.144 2.396 0 3.824-.767 4.783-2.155.038-.246.064-.496.064-.752a4.852 4.852 0 0 0-4.847-4.846 4.853 4.853 0 0 0-4.848 4.846c0 .26.027.514.066.763zm-4.351-21.085c.199-.012.412.012.627.084.658.223 1.065.784.907 1.251-.139.412-.67.616-1.244.507l.071.452c.686.365 1.422.355 1.756-.068.239-.302.179-.695.123-.904-.113-.414-.405-.83-.802-1.143-.471-.373-1.025-.554-1.489-.505l.051.326zm-.227-1.444c.774-.099 1.643.16 2.368.734.591.466 1.015 1.082 1.192 1.735.192.704.073 1.398-.326 1.904-.4.505-1.015.759-1.691.759a2.98 2.98 0 0 1-.753-.112l1.787 11.367c.312 1.512.608 2.83.981 3.952.643-2.609 2.997-4.552 5.802-4.552 2.812 0 5.171 1.953 5.807 4.572.383-1.141.676-2.479.98-3.995l1.787-11.371a2.996 2.996 0 0 1-.857.139c-.676 0-1.291-.254-1.69-.759-.4-.506-.519-1.2-.328-1.904.178-.653.602-1.269 1.194-1.736.755-.598 1.667-.857 2.464-.721l1.324-8.423c-4.854-2.053-6.291-5.397-6.698-6.88a34.392 34.392 0 0 0-7.933-.004c-.407 1.485-1.847 4.843-6.73 6.897l1.32 8.398zm-1.602-2.765l.016-.023-.674-4.289c-.52.231-1.205.402-2.097.402-.427 0-.9-.039-1.425-.129a26.479 26.479 0 0 0-.656-.099c-2.209 1.38-3.646 3.647-3.941 6.167 3.049 1.498 6.764.665 8.777-2.029zm-9.965 2.666c.112-3.185 1.823-6.099 4.577-7.797a9.729 9.729 0 0 1 5.008-1.452c4.955-1.994 6.108-5.377 6.356-6.466-1.158-.688-5.331-2.972-9.677-2.972-1.27 0-2.554.196-3.783.682-3.45 1.368-5.858 4.791-7.155 10.177-1.276 5.298-.825 9.752 1.34 13.237 2.544 4.094 6.874 6.007 9.884 6.877-2.691-2.111-6.23-5.904-6.542-11.401a9.996 9.996 0 0 1-.016-.544c0-.116.002-.229.008-.341zm16.355-9.69c.541.697 2.207 1.446 4.588 1.446 2.38 0 4.047-.749 4.588-1.446a.568.568 0 0 1 .895.695c-.889 1.144-3.042 1.884-5.483 1.884-2.442 0-4.594-.74-5.483-1.884a.567.567 0 0 1 .895-.695zm3.081 29.088c.434.163.766.484.934.903l.557 1.387.556-1.387c.169-.42.501-.74.935-.903.461-.174.98-.143 1.426.083l.81.411a.568.568 0 0 1 .285.673.573.573 0 0 1-.614.395c-1.3-.167-2.051.684-2.45 1.408l-.404 1.006a.479.479 0 0 1-.195.219c-.038.033-.087.055-.135.077-.02.01-.036.025-.057.032-.034.011-.067.012-.1.016-.014.001-.025.012-.039.012l-.018-.003-.018.003a.567.567 0 0 1-.526-.356l-.391-.974c-.398-.73-1.157-1.611-2.464-1.44a.566.566 0 1 1-.328-1.068l.809-.411a1.777 1.777 0 0 1 1.427-.083zm48.376 21.651c-.003.099-.002.198-.004.297h-97.5a.576.576 0 0 1-.544.426c-3.165-.029-3.934.64-4.111 1.052-.177.411-.145 1.44 2.061 3.706a.566.566 0 1 1-.812.79c-2.207-2.267-3.234-2.33-3.65-2.162-.416.166-1.121.916-1.165 4.078a.566.566 0 0 1-.566.559h-.008a.567.567 0 0 1-.559-.566v-.008c.044-3.163-.64-3.932-1.052-4.108-.411-.178-1.44-.145-3.708 2.06a.568.568 0 0 1-.962-.406c0-.147.057-.295.172-.406 2.267-2.206 2.328-3.233 2.163-3.649-.166-.416-.916-1.121-4.08-1.164A.568.568 0 0 1 0 220.83v-.008a.579.579 0 0 1 .575-.559c3.175.061 3.933-.64 4.11-1.051.177-.411.145-1.44-2.061-3.707a.564.564 0 0 1 .011-.801.565.565 0 0 1 .801.011c2.206 2.266 3.233 2.326 3.65 2.162.416-.166 1.121-.916 1.165-4.078a.566.566 0 0 1 .566-.559h.008a.566.566 0 0 1 .559.566v.008c-.044 3.163.64 3.932 1.052 4.109.413.18 1.441.145 3.708-2.06a.566.566 0 1 1 .79.812c-2.268 2.205-2.328 3.232-2.162 3.648.165.416.916 1.121 4.079 1.164a.564.564 0 0 1 .354.14h97.688c-.002.091-.008.18-.009.27zM45.808 247.98c5.256-4.628 11.874-6.652 17.971-6.071 4.567-.764 5.652-5.079 5.697-5.263a.566.566 0 0 1 1.079-.077l3.785 9.656a17.89 17.89 0 0 1 2.595 2.67c.868-1.232 1.146-2.378 1.149-2.391a.565.565 0 0 1 .512-.435.57.57 0 0 1 .568.358l3.782 9.653a17.74 17.74 0 0 1 1.761 1.687c6.663 7.358 6.441 16.467-.61 24.993a.949.949 0 0 1-.751.338l-.044-.001c-2.218-.081-8.799-7.785-9.939-9.379l-.012-.016a10.41 10.41 0 0 1-.196-.29c-2.723-4.38-8.786-7.315-15.734-3.558-.084.717-.273 2.619-.105 3.89a.567.567 0 0 1-.956.482c-.012-.012-1.345-1.286-3.123-1.306-1.94 1.817-3.782 4.129-5.477 6.883l.103.778c.223.881.789 2.021 2.228 2.198a.566.566 0 0 1 .054 1.115l-.955.213a1.876 1.876 0 0 1-1.478-.286 1.675 1.675 0 0 1-.717-1.162l-.226-1.707-1.018 1.39c-.28.382-.701.623-1.186.676a1.88 1.88 0 0 1-1.434-.457l-.736-.645a.565.565 0 0 1 .582-.952c1.339.532 2.37-.172 2.988-.833l.528-.722c-1.487-7.431 1.316-15.402 7.365-21.048-1.698.186-3.389.732-5.044 1.629-.083.713-.274 2.623-.106 3.896a.565.565 0 0 1-.955.482c-.013-.012-1.339-1.27-3.122-1.303-1.933 1.813-3.777 4.118-5.479 6.881l.103.777c.223.882.789 2.021 2.228 2.198a.566.566 0 0 1 .054 1.115l-.955.213a1.883 1.883 0 0 1-1.477-.285c-.4-.28-.655-.692-.718-1.162l-.226-1.707-1.017 1.39c-.28.382-.702.623-1.187.676a1.875 1.875 0 0 1-1.433-.457l-.737-.645a.566.566 0 0 1 .582-.953c1.338.53 2.37-.173 2.988-.832l.531-.726c-1.534-7.661 1.471-15.89 7.92-21.568zm24.224-9.639c-.591 1.222-1.735 2.938-3.785 3.957a19.045 19.045 0 0 1 6.375 2.651l-2.59-6.608zm8.613 9.87a9.334 9.334 0 0 1-.996 1.619 18.14 18.14 0 0 1 2.269 4.191c.447.242.885.5 1.309.778l-2.582-6.588zm5.221 10.317a16.558 16.558 0 0 0-3.435-2.891c.461 1.768.607 3.581.439 5.416a10.446 10.446 0 0 1 5.185.384 19.493 19.493 0 0 0-2.189-2.909zm-.58 23.435c5.226-6.361 6.439-13.043 3.618-18.965a9.355 9.355 0 0 0-6.186-.753c-.585 3.543-2.327 7.149-5.228 10.657a.946.946 0 0 1-.752.338 1.15 1.15 0 0 1-.363-.057c1.897 2.596 7.605 8.639 8.911 8.78zm-8.607-9.858c5.226-6.36 6.439-13.043 3.616-18.966-3.373-1.656-7.308-1.192-10.035 1.187-2.442 2.13-3.378 5.479-2.519 8.972 1.651 2.329 7.587 8.668 8.938 8.807zm-18.563.547c-.006-.733.04-1.485.092-2.083-.624.406-1.243.862-1.852 1.364a6.264 6.264 0 0 1 1.76.719zm-8.689 5.557c1.62-2.479 3.365-4.584 5.197-6.271 1.286-1.185 2.63-2.175 3.993-2.94 4.258-2.393 8.228-2.462 11.44-1.225-1.717-1.875-3.156-3.65-3.514-4.225-1.965-3.161-5.271-5.094-8.918-5.25-.153.128-.308.256-.459.389-5.863 5.162-8.758 12.54-7.739 19.522zm.081-15.415c-.006-.73.041-1.48.092-2.077a20.44 20.44 0 0 0-1.855 1.363c.699.164 1.3.439 1.763.714zm-8.686 5.555c4.723-7.218 10.476-11.184 16.293-11.2h.033c3.558 0 6.857 1.538 9.161 4.188-.156-3.079.97-5.913 3.206-7.864 2.712-2.366 6.476-3.054 9.925-1.906a19.618 19.618 0 0 0-2.182-2.896c-6.977-7.703-19.852-7.632-28.701.158-5.776 5.087-8.721 12.615-7.735 19.52zm26.374-21.712a.566.566 0 1 1-.836.766 2.097 2.097 0 0 0-2.957-.129 2.095 2.095 0 0 0-.129 2.957.566.566 0 1 1-.835.765 3.228 3.228 0 0 1 .197-4.557 3.234 3.234 0 0 1 4.56.198zm-.888 4.252c.251.011.497.05.735.111a3.507 3.507 0 0 1 1.093-3.188 3.535 3.535 0 0 1 4.985.216.566.566 0 1 1-.835.766 2.4 2.4 0 0 0-3.384-.146 2.377 2.377 0 0 0-.774 1.66 2.38 2.38 0 0 0 .628 1.721.567.567 0 0 1-.223.914c-.022.008-.044.007-.067.012-.042.01-.085.024-.128.024l-.012-.003c-.049-.001-.095-.016-.142-.029-.025-.007-.052-.007-.076-.018a.57.57 0 0 1-.188-.134 2.38 2.38 0 0 0-1.661-.774 2.413 2.413 0 0 0-1.722.628 2.376 2.376 0 0 0-.774 1.66c-.028.638.195 1.25.627 1.721a.567.567 0 1 1-.835.766 3.507 3.507 0 0 1-.925-2.536 3.504 3.504 0 0 1 1.141-2.447 3.516 3.516 0 0 1 2.537-.924zm9.644 11.1h.012c.482.004.915.197 1.219.546.304.347.438.802.376 1.28a1.909 1.909 0 0 1-.646 1.186 1.906 1.906 0 0 1-1.25.479h-.012a1.61 1.61 0 0 1-1.219-.545 1.605 1.605 0 0 1-.376-1.281c.059-.453.288-.873.646-1.185.354-.31.798-.48 1.25-.48zm-.666 2.201a.48.48 0 0 0 .377.157.77.77 0 0 0 .504-.2c.15-.131.245-.3.267-.477a.492.492 0 0 0-.105-.39c-.12-.138-.302-.18-.377-.158a.775.775 0 0 0-.505.2.77.77 0 0 0-.266.477.495.495 0 0 0 .105.391zm.522-.905a.45.45 0 1 1-.001.9.45.45 0 0 1 .001-.9zm8.751 8.562h.013c.482.003.915.196 1.219.545.304.348.437.803.375 1.281a1.903 1.903 0 0 1-.645 1.185 1.91 1.91 0 0 1-1.25.478 1.62 1.62 0 0 1-1.232-.544c-.609-.698-.488-1.805.271-2.466a1.906 1.906 0 0 1 1.249-.479zm-.666 2.2c.195.223.6.204.882-.043a.771.771 0 0 0 .267-.477.492.492 0 0 0-.105-.39.503.503 0 0 0-.373-.158h-.005a.77.77 0 0 0-.504.201c-.283.246-.357.644-.162.867zm.522-.904a.449.449 0 1 1 0 .898.449.449 0 0 1 0-.898zm-53.911 52.245c3.056.824 3.969.351 4.242-.003.274-.355.496-1.36-1.081-4.1a.569.569 0 0 1 .209-.774.568.568 0 0 1 .774.208c1.577 2.743 2.559 3.062 3.002 2.997.444-.058 1.313-.611 2.137-3.665a.567.567 0 0 1 1.094.296c-.824 3.053-.351 3.967.004 4.24.354.274 1.359.497 4.102-1.08a.561.561 0 0 1 .718.146l84.446-48.735c.044.079.085.161.129.241.047.085.098.168.146.254l-84.661 48.859a.564.564 0 0 1-.213.218c-2.742 1.576-3.055 2.557-2.997 3 .058.445.611 1.313 3.665 2.136a.566.566 0 1 1-.295 1.094c-3.056-.823-3.969-.351-4.243.004-.273.354-.496 1.359 1.081 4.1a.566.566 0 1 1-.982.565c-1.578-2.742-2.559-3.048-3.003-2.996-.444.057-1.312.611-2.136 3.664a.568.568 0 0 1-1.095-.295c.824-3.054.352-3.968-.003-4.241-.355-.274-1.36-.497-4.103 1.08a.566.566 0 1 1-.565-.982c2.743-1.576 3.056-2.557 2.998-3.001-.058-.444-.611-1.312-3.665-2.136a.566.566 0 1 1 .295-1.094zm68.948 14.949a9.352 9.352 0 0 1 3.195 1.076c.78.435 1.46.997 2.031 1.651a7.596 7.596 0 0 1 1.889 5.209c.714-1.781 1.004-3.637 1.098-5.209a21.08 21.08 0 0 0-.082-3.512l-.003-.003v.001a.426.426 0 0 0-.022-.021l-.005-.006-.001-.001c-1.103-1.1-6.169-6.306-4.734-7.776a.887.887 0 0 1 .508-.253c1.02-.421 4.481-2.031 7.038-5.381a6.082 6.082 0 0 0 .943-1.803 13.498 13.498 0 0 1 3.152-5.196 13.191 13.191 0 0 1 9.389-4.006h.014v-.003h.06l-.001.002c1.3-.055 3.361 1.427 4.765 2.768l.005.003.019.019a.03.03 0 0 0 .008.008v.001c1.377 1.37 2.928 3.395 2.888 4.698l.001.005.002.072v.003c.062 3.547-1.28 6.912-3.782 9.473a13.503 13.503 0 0 1-5.121 3.275 6.116 6.116 0 0 0-1.781.986c-2.989 2.397-4.475 5.384-5.004 6.647l-.082.197a17.825 17.825 0 0 1-1.934 12.026 14.283 14.283 0 0 1-8.628 6.829 14.306 14.306 0 0 1-10.932-1.268 11.539 11.539 0 0 1-5.521-6.968 11.532 11.532 0 0 1 1.025-8.828c1.956-3.511 5.843-5.27 9.603-4.715zm7.775-2.781a16.489 16.489 0 0 0-1.471-3.891c-1.016-.683-1.734-1.021-2.071-1.073.109.604 1.168 2.414 3.542 4.964zm12.989-2.023a7.25 7.25 0 0 1 2.11-1.17 12.387 12.387 0 0 0 4.69-2.998c.128-.13.239-.271.36-.406a1.382 1.382 0 0 1-.82-.738 1.28 1.28 0 0 1-.014-1.027l.197-.455-.455.196a1.263 1.263 0 0 1-.495.101c-.181 0-.362-.038-.532-.114a1.384 1.384 0 0 1-.743-.828l-.193-.584a.564.564 0 0 1 .271-.677.565.565 0 0 1 .714.151c.479.615 1.176.565 1.666.421l.639-.276h.001a.558.558 0 0 1 .193-.043c.008-.001.015-.003.023-.003.053 0 .104.011.157.026.02.006.04.009.06.018.014.005.029.005.043.012.025.013.041.034.063.05.027.019.055.037.077.06a.582.582 0 0 1 .062.079c.015.022.036.038.049.062.007.014.007.029.012.044.008.019.012.039.018.059a.567.567 0 0 1 .025.158l-.001.021a.574.574 0 0 1-.043.193l-.001.003-.275.638c-.119.401-.168.941.156 1.387a11.954 11.954 0 0 0 2.245-7.192l.001-.002-.001-.001c0-.017.007-.032.008-.049-.001-.021-.009-.04-.007-.061.04-.516-.729-2.062-2.563-3.885-1.869-1.789-3.434-2.537-3.95-2.469-2.545.017-5.074.834-7.105 2.311.474.51 1.117.463 1.578.328l.639-.276h.003a.535.535 0 0 1 .189-.042l.027-.003c.053 0 .103.01.155.025.02.006.041.009.061.018.014.006.029.005.043.012.025.013.041.034.063.05.027.019.055.038.077.061.024.024.043.05.062.078.015.022.036.038.049.063.007.013.006.029.012.043.008.019.012.039.018.059a.567.567 0 0 1 .025.158l-.002.021a.56.56 0 0 1-.043.194v.002l-.275.638c-.145.489-.196 1.186.42 1.666a.566.566 0 0 1-.526.985l-.583-.194a1.386 1.386 0 0 1-.83-.742 1.28 1.28 0 0 1-.013-1.027l.197-.455-.455.196a1.248 1.248 0 0 1-.496.102c-.18 0-.361-.039-.531-.114a1.393 1.393 0 0 1-.744-.829l-.08-.242c-.212.19-.427.377-.628.584a12.377 12.377 0 0 0-2.886 4.758c-.256.78-.632 1.5-1.119 2.138-2.027 2.656-4.584 4.284-6.212 5.131 2.102 1.044 4.838 3.576 5.638 4.339l.045.042.002.003a29.152 29.152 0 0 1 1.644 1.806.546.546 0 0 1 .128.154c1.076 1.283 2.042 2.604 2.679 3.646.778-1.64 2.316-4.214 5.027-6.388zM87.914 353.57a10.413 10.413 0 0 0 4.983 6.287 13.161 13.161 0 0 0 10.07 1.169 13.156 13.156 0 0 0 7.948-6.291 16.69 16.69 0 0 0 1.795-11.351c-.338-.689-1.076-1.841-2.032-3.102.248 7.008-1.059 12.151-3.9 15.296-2.018 2.233-4.747 3.421-8.113 3.53a7.043 7.043 0 0 1-.29.005c-3.301 0-5.445-1.848-5.537-1.929a.567.567 0 0 1 .748-.852c.019.018 2.04 1.72 5.042 1.644 3.046-.099 5.505-1.162 7.309-3.157 2.838-3.141 4.024-8.54 3.531-16.041a28.124 28.124 0 0 0-1.513-1.645l-.001.001a39.426 39.426 0 0 0-2.311-2.055 17.66 17.66 0 0 1 1.039 4.111v.006l.002.015c.194 1.527.909 9.364-4.05 13.893l-.004.005-.037.035a6.033 6.033 0 0 1-.418.384c-.082.071-.168.135-.253.2-.054.041-.107.082-.162.122a6.104 6.104 0 0 1-.43.277c-.124.074-.25.144-.378.208l-.029.014a6.126 6.126 0 0 1-1.289.464c-.043.011-.086.023-.129.032a5.54 5.54 0 0 1-.337.062 5.895 5.895 0 0 1-.814.078c-.061.002-.122.009-.183.009-.019 0-.039-.003-.057-.004a6.11 6.11 0 0 1-.662-.041c-.05-.006-.1-.014-.149-.021a6.072 6.072 0 0 1-.627-.118c-.024-.006-.049-.01-.073-.017a6.047 6.047 0 0 1-.812-.274 6.054 6.054 0 0 1-.657-.312 5.095 5.095 0 0 1-1.97-6.924 4.194 4.194 0 0 1 5.697-1.621 3.44 3.44 0 0 1 1.646 2.078c.253.89.144 1.824-.307 2.632a2.865 2.865 0 0 1-1.73 1.37 2.87 2.87 0 0 1-2.192-.254.567.567 0 1 1 .551-.989 1.74 1.74 0 0 0 1.331.153c.45-.128.823-.423 1.05-.832a2.312 2.312 0 0 0 .206-1.77 2.312 2.312 0 0 0-1.107-1.398 3.058 3.058 0 0 0-4.155 1.182 3.96 3.96 0 0 0 1.531 5.383 5.104 5.104 0 0 0 4.008.408l.027-.01c.12-.038.24-.08.358-.128.022-.009.044-.021.067-.03.103-.043.206-.088.306-.139.036-.018.07-.039.105-.058.086-.045.173-.091.256-.142.042-.025.082-.054.123-.081.075-.049.151-.096.224-.149.046-.034.09-.072.135-.107.065-.051.131-.1.193-.154.049-.041.094-.087.141-.131.055-.052.112-.102.166-.157l.185-.245c.249-.33.419-.555.55-.707a6.453 6.453 0 0 0 .657-5.082 6.453 6.453 0 0 0-3.091-3.901c-3.986-2.22-9.035-.784-11.256 3.199a10.407 10.407 0 0 0-.925 7.967zm31.066-30.909c.474.608 1.15.572 1.635.433l.67-.289.006-.001a.581.581 0 0 1 .18-.04l.036-.003c.05 0 .099.01.148.024.022.006.044.01.065.018.014.006.029.006.043.013.024.013.04.033.062.049.027.019.055.038.079.061a.624.624 0 0 1 .06.078c.016.022.037.038.049.063.008.013.007.029.013.043.008.02.012.04.018.061.014.05.025.102.025.155l-.002.025a.574.574 0 0 1-.042.189l-.001.005-.275.638c-.145.489-.196 1.185.42 1.665a.566.566 0 0 1-.526.985l-.584-.193a1.391 1.391 0 0 1-.829-.743 1.28 1.28 0 0 1-.013-1.027l.197-.455-.455.196a1.248 1.248 0 0 1-.496.102c-.18 0-.362-.039-.532-.114a1.387 1.387 0 0 1-.743-.83l-.193-.582a.567.567 0 0 1 .985-.526zm-10.248 13.647a.008.008 0 0 0 .004.004l-.045-.042.001.001.04.037zm-2.963 72.438c3.071-.76 3.641-1.616 3.709-2.059.067-.443-.226-1.429-2.935-3.063a.567.567 0 1 1 .586-.97c2.709 1.634 3.718 1.431 4.079 1.166.361-.266.852-1.17.092-4.239a.566.566 0 0 1 1.1-.273c.76 3.07 1.617 3.641 2.06 3.708.446.064 1.431-.226 3.064-2.933a.554.554 0 0 1 .464-.263l48.824-84.529c.077.047.152.098.23.145.084.051.171.098.255.149l-48.805 84.497a.567.567 0 0 1 .003.586c-1.634 2.708-1.432 3.717-1.166 4.077.266.361 1.17.853 4.241.092a.568.568 0 0 1 .703.551.565.565 0 0 1-.431.549c-3.071.76-3.642 1.616-3.709 2.059-.067.443.225 1.43 2.934 3.063a.565.565 0 0 1 .193.778.566.566 0 0 1-.778.192c-2.709-1.634-3.719-1.43-4.08-1.166-.36.266-.852 1.17-.092 4.24a.566.566 0 0 1-1.1.272c-.76-3.07-1.616-3.641-2.059-3.708-.445-.064-1.43.225-3.065 2.934a.566.566 0 1 1-.97-.586c1.634-2.708 1.432-3.717 1.166-4.077-.266-.361-1.17-.852-4.241-.092a.569.569 0 0 1-.703-.55c0-.254.172-.486.431-.55zm52.333-54.042h.162c13.513 0 19.347 13.551 20.367 17.519h3.549c1.022-3.971 6.858-17.516 20.365-17.516h.162c.413.003.796.203 1.05.548.282.381.368.879.232 1.332a1.432 1.432 0 0 1-.483.717 1.464 1.464 0 0 1-.79.321c-2.951.265-10.968 3.745-12.813 16.468.345-.466.786-1.196 1.313-2.353.213-.471.439-.944.679-1.412.763-1.501 1.603-2.737 2.495-3.678l.007-.009.003-.003.024-.027c.776-.815 1.616-1.429 2.497-1.823.957-.43 1.601-.21 1.972.05 1.273.892 1.113 3.53 1.091 3.828-.132 4.075-3.712 10.129-7.653 11.501.027.614.021 1.244-.049 1.886-.165 1.515-.598 2.965-1.218 4.083-1.745 3.144-2.77 6.369-3.048 9.585-.347 3.991-3.692 7.118-7.615 7.118a7.59 7.59 0 0 1-7.602-6.969l-.013-.149c-.281-3.221-1.306-6.445-3.048-9.585-.621-1.118-1.054-2.568-1.219-4.083-.07-.646-.077-1.28-.049-1.9-3.964-1.405-7.554-7.433-7.687-11.512-.021-.273-.181-2.911 1.093-3.803.371-.261 1.015-.48 1.972-.05.88.395 1.721 1.008 2.497 1.823.009.009.016.02.025.028a.568.568 0 0 0 0 .001h.001l.003.005c.893.942 1.735 2.18 2.5 3.684.239.467.466.94.679 1.412.555 1.221 1.016 1.969 1.367 2.431v-.002c-1.823-12.79-9.869-16.282-12.822-16.547a1.479 1.479 0 0 1-.799-.325 1.44 1.44 0 0 1-.479-.716 1.52 1.52 0 0 1 .232-1.33 1.319 1.319 0 0 1 1.05-.548zm34.117 24.303c3.359-1.372 6.515-6.78 6.633-10.402.071-.967-.073-2.464-.611-2.84-.07-.05-.286-.2-.855.057-.743.332-1.459.857-2.13 1.559-2.207 2.673-3.333 6.119-3.351 10.242.14.429.239.897.314 1.384zm-26.709-11.628c-.671-.702-1.386-1.226-2.126-1.557-.572-.257-.786-.106-.857-.057-.591.415-.668 2.076-.612 2.816.125 3.853 3.538 9.054 6.657 10.407a8.204 8.204 0 0 1 .44-1.707c-.07-2.694-.744-6.568-3.502-9.902zm-7.604-11.122c.02.066.056.121.106.16.055.046.118.07.19.078 3.207.287 11.953 4.011 13.854 17.604h-.006l.113 1.307V375.415l.454 5.239c1.179-.548 2.461-.371 3.113.5.786 1.056.357 2.66-.977 3.653a3.66 3.66 0 0 1-.808.46 1.574 1.574 0 0 1-1.423-.113 1.576 1.576 0 0 1-.759-1.225l-.699-8.076c-.318-.182-.704-.528-1.152-1.146.15.961.219 1.862.236 2.662v.014a.566.566 0 0 1-.048.229c-.25.615-.418 1.371-.486 2.19-.057.685-.047 1.401.032 2.129.149 1.368.534 2.666 1.083 3.656 1.82 3.279 2.892 6.656 3.186 10.036l.013.149a6.462 6.462 0 0 0 6.468 5.934c3.345 0 6.194-2.672 6.49-6.083.292-3.376 1.364-6.752 3.187-10.036.549-.99.933-2.288 1.083-3.657.161-1.486.035-2.926-.356-4.055a.563.563 0 0 1-.031-.186v-.003c.002-1.112.08-2.179.234-3.199-.436.641-.86 1.09-1.262 1.33l-.705 8.163c-.043.49-.302.927-.711 1.198a1.547 1.547 0 0 1-1.329.188 3.615 3.615 0 0 1-1.078-.559c-1.332-.994-1.76-2.598-.975-3.652.672-.904 2.023-1.062 3.237-.44l.458-5.301c.001-.009.006-.016.008-.025.001-.01-.001-.021.001-.031v-.008l.103-1.219c.001-.01.007-.019.008-.029h-.004c1.901-13.593 10.647-17.317 13.857-17.605a.345.345 0 0 0 .184-.075.313.313 0 0 0 .108-.161.39.39 0 0 0-.058-.334c-.064-.086-.126-.087-.146-.087h-.154c-13.577 0-18.958 14.514-19.384 17.198l-.025-.004a.564.564 0 0 1-.507.322h-4.447a.563.563 0 0 1-.508-.325l-.025.004c-.426-2.683-5.81-17.198-19.385-17.198l-.153.001c-.02 0-.082 0-.146.086a.389.389 0 0 0-.059.333zm15.688 27.133a1.65 1.65 0 0 1-.754-.158l.052.6a.458.458 0 0 0 .219.354.439.439 0 0 0 .404.032c.193-.078.38-.185.561-.319.797-.594 1.138-1.54.745-2.068-.377-.504-1.311-.474-2.096.063l.016.195a1.6 1.6 0 0 1 .817-.227c.661-.013 1.207.32 1.217.741.01.421-.52.774-1.181.787zm13.73-1.528c.283.006.539.076.741.185l.007-.076a.573.573 0 0 1-.082-.049c-.422-.299-.89-.451-1.294-.451-.357 0-.664.119-.844.361-.392.526-.052 1.473.744 2.068.232.173.489.306.743.386a.417.417 0 0 0 .359-.052.471.471 0 0 0 .209-.352l.053-.609a1.723 1.723 0 0 1-.673.117c-.66-.013-1.19-.366-1.18-.787.01-.421.556-.754 1.217-.741zm-13.34-6.24c3.29-.961 9.51-.961 12.8 0a.567.567 0 0 1-.318 1.088c-3.126-.914-9.037-.913-12.164 0a.566.566 0 0 1-.318-1.088zm3.289 17.775c.45-.228.973-.259 1.437-.084.438.164.772.487.942.909l.569 1.418.569-1.418c.17-.422.504-.745.942-.909a1.789 1.789 0 0 1 1.437.084l.82.415a.568.568 0 0 1-.329 1.068c-1.328-.17-2.097.72-2.499 1.461l-.395.985a.471.471 0 0 1-.196.219.552.552 0 0 1-.192.109c-.033.011-.066.012-.098.016-.015.001-.026.012-.041.012l-.018-.003-.018.003a.567.567 0 0 1-.526-.356l-.396-.985c-.402-.74-1.171-1.634-2.499-1.461a.567.567 0 0 1-.328-1.068l.819-.415zm.943 4.688c1.012.784 2.999.783 4.01 0a.567.567 0 1 1 .695.895c-.707.547-1.703.821-2.7.821-.997 0-1.993-.274-2.7-.821a.567.567 0 1 1 .695-.895zm34.423 38.534c3.16.043 3.933-.639 4.11-1.051.177-.411.145-1.44-2.06-3.707a.566.566 0 0 1 .812-.79c2.205 2.266 3.233 2.327 3.65 2.162.416-.165 1.121-.915 1.165-4.077a.561.561 0 0 1 .169-.396v-97.838c.091.002.181.008.271.01.098.002.198.001.296.003v97.697a.559.559 0 0 1 .397.531v.008c-.044 3.163.64 3.932 1.051 4.109.413.179 1.441.146 3.709-2.06a.567.567 0 0 1 .79.813c-2.268 2.204-2.329 3.232-2.163 3.648.165.416.916 1.12 4.079 1.165a.566.566 0 0 1 .559.565v.009a.566.566 0 0 1-.575.559c-3.16-.043-3.932.638-4.11 1.05-.177.411-.145 1.44 2.061 3.707a.568.568 0 0 1-.011.801.566.566 0 0 1-.801-.011c-2.206-2.267-3.233-2.329-3.65-2.162-.416.165-1.121.915-1.165 4.077a.567.567 0 0 1-.567.559h-.008a.567.567 0 0 1-.559-.566v-.008c.044-3.163-.639-3.932-1.051-4.109-.411-.177-1.44-.146-3.708 2.06a.566.566 0 1 1-.791-.813c2.268-2.204 2.329-3.232 2.164-3.648-.166-.416-.916-1.12-4.08-1.164a.568.568 0 0 1-.559-.566v-.009a.574.574 0 0 1 .575-.558zm24.754-59.596c.012.004 3.209.659 8.121-9.405 1.766-3.619 4.042-5.64 6.763-6.007 3.692-.496 7.132 2.206 8.689 3.665l-.006-3.049-.988.005 1.583-6.732 1.595 6.714-1.057.006.006 3.048c1.56-1.462 4.986-4.154 8.678-3.653 2.721.366 4.996 2.387 6.763 6.006 4.91 10.061 8.106 9.402 8.14 9.399a.577.577 0 0 1 .647.281.561.561 0 0 1-.109.683c-.062.056-1.462 1.302-3.443 1.302a4.876 4.876 0 0 1-2.208-.548l-18.417 13.4.006 3.357.297.739c.396.73 1.158 1.613 2.462 1.44a.574.574 0 0 1 .614.396.566.566 0 0 1-.286.671l-.809.411a1.8 1.8 0 0 1-.812.194 1.74 1.74 0 0 1-.613-.111 1.595 1.595 0 0 1-.848-.737l.001.123.309.77c.397.73 1.156 1.612 2.462 1.44a.567.567 0 0 1 .328 1.068l-.809.41c-.255.13-.534.195-.812.195-.208 0-.416-.037-.613-.111a1.593 1.593 0 0 1-.935-.903l-.556-1.385-.557 1.385c-.168.419-.5.74-.934.903a1.789 1.789 0 0 1-1.426-.084l-.809-.41a.567.567 0 0 1 .329-1.068c1.293.168 2.05-.684 2.448-1.407l.405-1.006c.008-.022.025-.036.036-.056l-.001-.193-.066.164c-.168.419-.5.74-.935.903-.196.073-.405.11-.613.11a1.8 1.8 0 0 1-.812-.194l-.809-.411a.564.564 0 0 1-.285-.671.574.574 0 0 1 .613-.396c1.297.172 2.051-.684 2.45-1.408l.403-1.005c.012-.029.033-.049.049-.075l-.006-3.243-18.345-13.305a4.917 4.917 0 0 1-2.046.633c-2.17.157-3.724-1.23-3.79-1.29a.565.565 0 0 1-.109-.704.57.57 0 0 1 .667-.254zm24.754 13.715l17.4-12.659a8.464 8.464 0 0 1-1.283-1.269c-.595-.726-1.183-1.56-1.804-2.443-3.135-4.453-6.687-9.494-14.354-5.66l.041 22.031zm-.044-23.286c1.868-.862 3.525-1.234 5-1.234 5.007 0 7.967 4.205 10.284 7.497.609.865 1.184 1.682 1.754 2.375.502.613 1.026 1.088 1.566 1.428a.558.558 0 0 1 .221.129 3.822 3.822 0 0 0 1.571.495 3.844 3.844 0 0 0 1.695-.266c-1.666-.704-4.358-2.964-7.673-9.758-1.59-3.258-3.574-5.068-5.895-5.381-4.161-.561-8.209 3.789-8.524 4.136l.001.579zm-.921 30.752zm-.169-7.662l-.041-21.761c-.017-.007-.036-.005-.052-.013-7.714-3.945-11.2 1.076-14.276 5.504-.637.917-1.238 1.784-1.855 2.535a8.609 8.609 0 0 1-1.132 1.147l17.356 12.588zm-20.459-12.402c1.186-.092 2.316-.782 3.359-2.052.588-.716 1.177-1.564 1.8-2.462 2.953-4.25 6.98-10.035 15.257-6.091l-.001-.647c-.168-.186-4.3-4.736-8.544-4.153-2.321.314-4.303 2.124-5.892 5.38-3.316 6.793-6.007 9.054-7.674 9.758a3.856 3.856 0 0 0 1.695.267zm79.831 28.517c3.048.848 3.967.382 4.243.029.276-.353.506-1.355-1.05-4.109a.562.562 0 0 1-.074-.278c0-.076.02-.149.049-.218l-48.755-84.411c.08-.044.162-.085.242-.129.085-.048.168-.098.254-.146l48.714 84.341a.57.57 0 0 1 .557.283c1.555 2.753 2.528 3.071 2.979 3.019.445-.054 1.317-.6 2.164-3.647a.567.567 0 1 1 1.092.303c-.846 3.047-.381 3.965-.028 4.241.353.276 1.356.506 4.11-1.05a.57.57 0 0 1 .846.492c0 .198-.103.39-.288.494-2.754 1.556-3.074 2.534-3.02 2.979.055.445.601 1.316 3.649 2.163a.568.568 0 0 1 .395.698.566.566 0 0 1-.698.394c-3.049-.847-3.967-.381-4.243-.029-.276.353-.506 1.356 1.05 4.109.05.088.074.184.074.279a.58.58 0 0 1-.031.174l.012.02-.026.016a.568.568 0 0 1-.243.284.568.568 0 0 1-.772-.215c-1.556-2.753-2.535-3.074-2.98-3.019-.445.054-1.317.6-2.164 3.648a.568.568 0 0 1-1.092-.304c.847-3.047.381-3.964.028-4.24-.353-.276-1.356-.507-4.11 1.049a.568.568 0 0 1-.846-.492c0-.198.103-.39.288-.494 2.754-1.556 3.074-2.534 3.02-2.979-.055-.444-.601-1.316-3.649-2.163a.567.567 0 1 1 .303-1.092zm13.326-48.205c-.82-.534-1.348-1.706-1.323-3.072.017-.946.304-1.819.775-2.429-.62-.667-1.001-1.724-1.001-2.894 0-.863.211-1.689.581-2.331-1.126-.695-2.085-1.969-2.778-3.638a6.243 6.243 0 0 1-2.479.505 8.784 8.784 0 0 1-1.773-.195.568.568 0 0 1 .23-1.11c1.4.291 2.562.205 3.634-.261a15.538 15.538 0 0 1-.466-1.876 5.459 5.459 0 0 1-2.134.425 7.334 7.334 0 0 1-1.62-.192.568.568 0 0 1-.427-.679.571.571 0 0 1 .678-.427c1.285.292 2.346.197 3.324-.29a19.039 19.039 0 0 1-.121-1.737 5.477 5.477 0 0 1-1.834.314 7.278 7.278 0 0 1-1.62-.193.566.566 0 1 1 .251-1.105c1.236.28 2.264.203 3.211-.236.025-.738.085-1.467.193-2.176-1.663.448-3.376.78-5.111.973a.926.926 0 0 1-.685-.202c-.562-.458-3.437-3.046-5.166-9.19-1.077-1.453-1.236-4.313-.395-7.353.371-1.341.911-2.597 1.562-3.634a.747.747 0 0 1 .695-.347c.28.023.519.199.625.459l1.154 2.807 2.597-1.938a.739.739 0 0 1 .766-.075.74.74 0 0 1 .423.643c.049 1.268-.132 2.687-.523 4.104-.61 2.2-1.669 4.123-2.862 5.246.174 1.223.693 4.111 1.856 5.418.916-.066 3.589-.285 6.139-.719.119-.268.236-.537.37-.785a8.262 8.262 0 0 1 1.123-1.624v-.059c0-.847.137-1.678.397-2.403a.92.92 0 0 1 .583-.567c.27-.09.562-.05.8.109l1.437.962 1.333-.87a.914.914 0 0 1 .808-.1c.27.092.477.301.568.57.236.698.361 1.492.361 2.299v.06c.327.362.633.783.914 1.256h.006l.163.294c.15.273.289.564.422.866 2.532.428 5.174.645 6.09.711 1.164-1.309 1.683-4.197 1.856-5.419-1.194-1.122-2.252-3.045-2.862-5.244-.391-1.418-.572-2.837-.523-4.104a.74.74 0 0 1 .423-.644.74.74 0 0 1 .766.075l2.597 1.938 1.154-2.808a.74.74 0 0 1 .626-.458.751.751 0 0 1 .695.348c.65 1.035 1.19 2.292 1.561 3.633.842 3.04.682 5.899-.394 7.352-1.729 6.144-4.605 8.733-5.166 9.191a.93.93 0 0 1-.586.208c-.033 0-.066-.003-.1-.006a34.354 34.354 0 0 1-5.071-.962c.106.706.165 1.433.19 2.168.945.437 1.972.515 3.206.233a.567.567 0 0 1 .251 1.105 7.27 7.27 0 0 1-1.619.193c-.646 0-1.251-.11-1.83-.312a19.782 19.782 0 0 1-.121 1.737c.976.486 2.036.582 3.319.288a.57.57 0 0 1 .678.427.568.568 0 0 1-.427.679 7.325 7.325 0 0 1-1.619.192 5.449 5.449 0 0 1-2.13-.423 15.727 15.727 0 0 1-.467 1.876c1.07.464 2.232.55 3.63.259a.567.567 0 0 1 .23 1.11 8.784 8.784 0 0 1-1.773.195 6.26 6.26 0 0 1-2.475-.503c-.707 1.704-1.693 2.999-2.85 3.683.356.634.554 1.432.554 2.284 0 1.111-.353 2.138-.929 2.811.516.63.821 1.579.804 2.603a4.581 4.581 0 0 1-.302 1.556c.505.216.99.557 1.406 1.016.083.09.15.189.224.285.153-.222.316-.44.499-.648.543-.622 1.163-1.122 1.792-1.443l.855-.436-.082 2.542 2.298-.283-.339.881a6.496 6.496 0 0 1-1.179 1.907c-.956 1.098-2.106 1.777-3.075 1.817l-.089.002c-.318 0-.603-.077-.847-.217a1.993 1.993 0 0 1-.913.217l-.093-.002c-.844-.032-1.734-.495-2.441-1.27-.812-.892-1.199-2.011-1.063-2.943zm5.374 3.079c.01 0 .016.003.025.002.527-.022 1.434-.473 2.268-1.43.19-.217.361-.442.51-.672l-1.612.199.058-1.795a5.682 5.682 0 0 0-1.303 1.619c.286.756.305 1.493.054 2.077zm-4.558-3.924c.003.001.004.003.007.003l.007.001a.501.501 0 0 0 .145.022c.29.005.57-.202.803-.569v-.001c.271-.425.426-.998.438-1.612.015-.878-.266-1.549-.588-1.91-.216.082-.441.13-.666.13a1.85 1.85 0 0 1-.558-.089c-.31.363-.579.999-.594 1.819-.022 1.189.495 2.055 1.006 2.206zm-.246-5.181c.273.16.56.148.835-.033.466-.308.935-1.149.935-2.336 0-.714-.185-1.37-.492-1.845-.273.067-.55.113-.835.113a3.56 3.56 0 0 1-.931-.138c-.31.474-.497 1.156-.497 1.87 0 1.056.405 2.029.985 2.369zm-10.355-19.522c-.021.002-.042.002-.063.002a.905.905 0 0 1-.662-.279c-1.513-1.579-2.093-5.014-2.272-6.417l-.005-.071h-.001v-.265l.204-.172c1.121-.937 2.143-2.77 2.734-4.901.283-1.027.447-2.049.483-2.999l-2.378 1.774a.741.741 0 0 1-1.133-.313l-1.043-2.539a13.351 13.351 0 0 0-1.042 2.661c-.744 2.686-.638 5.336.259 6.443l.126.157v.118c1.574 5.615 4.085 8.039 4.731 8.589a33.083 33.083 0 0 0 5.38-1.074c.084-.372.176-.738.283-1.09.027-.089.063-.17.092-.257-2.488.387-4.937.58-5.693.633zm15.975-.438c.116.376.217.765.307 1.163a33.01 33.01 0 0 0 5.338 1.063c.645-.549 3.157-2.973 4.731-8.588v-.119l.127-.157c.896-1.107 1.002-3.757.258-6.443a13.351 13.351 0 0 0-1.042-2.661l-1.042 2.538a.742.742 0 0 1-1.134.315l-2.378-1.775c.036.95.2 1.972.483 2.999.591 2.131 1.613 3.964 2.734 4.901l.204.17v.265h-.001l-.005.073c-.178 1.403-.758 4.837-2.272 6.418a.906.906 0 0 1-.66.278l-.062-.001a74.762 74.762 0 0 1-5.65-.627c.021.063.044.124.064.188zm-.384 5.226c0-1.72-.241-3.411-.699-4.89-.22-.708-.486-1.36-.791-1.937l-.073-.132a6.784 6.784 0 0 0-1.065-1.48l-.161-.165v-.232a6.286 6.286 0 0 0-.213-1.944l-1.215.794a.921.921 0 0 1-1.018-.006l-1.322-.886a6.217 6.217 0 0 0-.242 2.021l.01.244-.171.174c-.399.409-.77.929-1.102 1.546a11.288 11.288 0 0 0-.843 2.059c-.447 1.465-.683 3.136-.683 4.834 0 5.15 2.196 9.5 4.795 9.5 2.598 0 4.793-4.35 4.793-9.5zm-3.905 22.939c.496.544 1.112.881 1.646.902.26.009.461-.056.608-.195l.027-.023c.312-.322.311-.991-.003-1.667a3.32 3.32 0 0 0-.564-.842c-.338-.373-.737-.65-1.132-.794-.387.451-.871.716-1.381.751-.02.522.219 1.232.799 1.868zm-1.33-27.357a1.52 1.52 0 0 1-.885.862 1.649 1.649 0 0 1-.588.107c-.261 0-.523-.061-.764-.181l-.749-.377a.567.567 0 0 1 .325-1.069c.216.027.41.014.594-.015.289-.116.569-.232.83-.349l.03-.013c.337-.253.585-.59.757-.903l.356-.895a.549.549 0 0 1 .28-.324c.011-.006.02-.013.031-.017.016-.007.028-.02.046-.025.03-.01.06-.007.091-.011.028-.004.056-.011.084-.011.035 0 .067.006.101.012.027.005.054.001.081.01.016.005.027.016.042.023.014.006.027.014.041.022a.56.56 0 0 1 .259.285l.015.036.342.861c.184.341.455.714.834.98.236.103.48.205.731.307.201.04.417.057.659.027a.568.568 0 0 1 .325 1.069l-.749.377a1.71 1.71 0 0 1-.764.181c-.199 0-.398-.035-.587-.107a1.517 1.517 0 0 1-.885-.862l-.442-1.111-.441 1.111zm-111.422-2.352c-59.533 0-107.967-48.414-107.967-107.922 0-59.508 48.434-107.922 107.967-107.922S330.826 163.492 330.826 223c0 59.508-48.433 107.922-107.966 107.922zm0-214.997c-59.066 0-107.12 48.033-107.12 107.075s48.054 107.075 107.12 107.075S329.979 282.042 329.979 223 281.926 115.925 222.86 115.925zm74.876 177.041v.424a4.28 4.28 0 0 1-4.276 4.274c-.013 0-.025-.007-.039-.008-.014.001-.025.008-.039.008a.566.566 0 0 1-.567-.566v-10.921l.001-.003a3.146 3.146 0 0 0-3.142-3.137c-.021 0-.038-.009-.057-.012-.02.003-.037.012-.057.012h-2.53a4.26 4.26 0 0 1 1.385 3.145v10.916a.566.566 0 0 1-1.134 0v-10.921l.001-.003a3.145 3.145 0 0 0-3.142-3.137h-2.644a4.26 4.26 0 0 1 1.386 3.141l-.001.004v10.916a.566.566 0 0 1-1.134 0v-10.921l.001-.003a3.145 3.145 0 0 0-3.142-3.137h-.454a.566.566 0 1 1 0-1.133h11.408c.02 0 .037.01.057.012.019-.002.036-.012.057-.012a4.28 4.28 0 0 1 4.275 4.274l-.001.004v10.307a3.144 3.144 0 0 0 2.655-3.095l-.001-.003v-.452l-.48.494a.563.563 0 0 1-.801.012.567.567 0 0 1-.013-.801l1.427-1.471a.561.561 0 0 1 .421-.168.56.56 0 0 1 .42.168l1.427 1.471a.566.566 0 1 1-.814.789l-.453-.467zm-7.606-29.058l24.371 14.065c-.047.078-.09.158-.137.235-.051.084-.105.166-.156.249l-24.362-14.058.284-.491zm12.782-9.325c0-.313.254-.567.567-.567h16.385a.567.567 0 0 1 0 1.133h-16.385a.566.566 0 0 1-.567-.566zm3.617-3.91c-.028 0-.052-.012-.079-.016-.027.004-.051.016-.079.016h-2.892a.567.567 0 0 1 0-1.133h2.484v-4.365a5.793 5.793 0 0 1 5.788-5.786 5.794 5.794 0 0 1 5.788 5.786v4.365h2.325a.566.566 0 1 1 0 1.133h-2.892a.567.567 0 0 1-.567-.567v-4.931a4.659 4.659 0 0 0-4.654-4.653 4.659 4.659 0 0 0-4.655 4.653v4.931a.567.567 0 0 1-.567.567zm-4.958-25.866h28.135c-.002.09-.001.182-.004.272-.001.098-.008.196-.01.294h-28.121v-.566zm18.272-19.244l-3.182 3.981a.566.566 0 0 1-.886-.707l1.445-1.807V197.744a2.62 2.62 0 0 0-2.618-2.614c-.017 0-.032-.009-.049-.01-.017.001-.032.01-.049.01h-1.972a3.733 3.733 0 0 1 1.07 2.617l-.001.004v9.374a.566.566 0 0 1-1.134 0v-9.379l.001-.002a2.62 2.62 0 0 0-2.618-2.614h-2.071a3.733 3.733 0 0 1 1.07 2.617v9.378a.566.566 0 0 1-1.134 0V197.745a2.62 2.62 0 0 0-2.618-2.615h-.39a.567.567 0 0 1 0-1.133h9.797c.017 0 .032.008.049.009.017-.001.032-.009.049-.009a3.755 3.755 0 0 1 3.752 3.75l-.001.004v2.356c1.276.605 2.058 1.412 2.314 2.408.253.985-.039 2.066-.822 3.046l-.002.002zm-27.899-20.346l24.368-14.064c.044.08.092.157.136.236.047.086.091.174.138.26l-24.359 14.058-.283-.49zm6.46-19.267a3.478 3.478 0 0 1-3.474-3.474v-8.513a2.644 2.644 0 0 0-2.642-2.64 2.643 2.643 0 0 0-2.641 2.637v8.517l-.001.002a3.477 3.477 0 0 1-3.474 3.471 3.478 3.478 0 0 1-3.475-3.474 3.478 3.478 0 0 1 3.475-3.473.566.566 0 0 1 0 1.133 2.343 2.343 0 0 0-2.341 2.34 2.343 2.343 0 0 0 2.341 2.341 2.343 2.343 0 0 0 2.341-2.341v-8.485-.076c0-.008.004-.014.004-.021.052-2.063 1.722-3.704 3.771-3.704a3.777 3.777 0 0 1 3.772 3.705c0 .007.004.013.004.02v8.562l-.001.002a2.344 2.344 0 0 0 2.341 2.338.566.566 0 1 1 0 1.133zm-34.62-10.193l14.071-24.361c.078.047.158.09.236.138.084.05.165.105.249.156l-14.065 24.351-.491-.284zm-7.423-14.502h-12.782l-.008-.002a4.453 4.453 0 0 1-4.443-4.448 4.455 4.455 0 0 1 4.451-4.449 4.454 4.454 0 0 1 4.45 4.449.567.567 0 0 1-1.133 0 3.32 3.32 0 0 0-3.317-3.316 3.32 3.32 0 0 0-3.317 3.316 3.32 3.32 0 0 0 3.317 3.316l.005.001h12.777a.566.566 0 1 1 0 1.133zm-4.799-6.863a4.454 4.454 0 0 1-4.45-4.448.567.567 0 1 1 1.133 0 3.32 3.32 0 0 0 3.317 3.315 3.32 3.32 0 0 0 3.318-3.315 3.321 3.321 0 0 0-3.318-3.317H238.78a.566.566 0 1 1 0-1.133h12.782a4.455 4.455 0 0 1 4.451 4.45 4.454 4.454 0 0 1-4.451 4.448zm-26.896-18.194l.273.003c.098.002.196.009.294.011v28.108h-.567v-28.122zM300.661 223c0 43.33-35.266 78.581-78.614 78.581a78.14 78.14 0 0 1-40.244-11.111l-13.939 24.133c-.078-.046-.158-.09-.236-.137-.084-.051-.165-.105-.249-.156l13.933-24.122a79.175 79.175 0 0 1-28.013-29.13l-23.892 13.788c-.044-.079-.092-.156-.135-.235-.048-.086-.091-.174-.139-.26l23.884-13.784c-6.107-11.167-9.584-23.968-9.584-37.567 0-.606.032-1.204.046-1.806h-27.465l.003-.273c.002-.098.008-.196.01-.294h27.466c.424-14.193 4.616-27.452 11.632-38.803l-23.907-13.797c.047-.078.091-.157.138-.235.05-.084.105-.165.156-.249l23.919 13.804a79.167 79.167 0 0 1 29.513-27.604l-13.953-24.156c.08-.044.157-.092.237-.136.086-.048.174-.091.26-.138l13.961 24.171a78.144 78.144 0 0 1 36.598-9.066c43.348 0 78.614 35.252 78.614 78.582zm-78.614-77.735c-42.881 0-77.767 34.872-77.767 77.735s34.886 77.735 77.767 77.735c42.881 0 77.767-34.872 77.767-77.735s-34.886-77.735-77.767-77.735zm-11.887-4.577a.567.567 0 1 1-1.134 0c0-1.945-3.458-3.589-7.55-3.589-4.093 0-7.551 1.644-7.551 3.589a.567.567 0 1 1-1.134 0c0-1.957 2.087-3.597 5.139-4.322v-5.983c-3.052-.725-5.139-2.365-5.139-4.322a.567.567 0 0 1 1.134 0c0 1.945 3.458 3.589 7.551 3.589 4.092 0 7.55-1.644 7.55-3.589a.567.567 0 0 1 1.134 0c0 1.957-2.086 3.597-5.139 4.322v5.983c3.053.725 5.139 2.365 5.139 4.322zm-46.515 19.804a5.466 5.466 0 0 1-5.461 5.458 5.465 5.465 0 0 1-5.46-5.458 5.459 5.459 0 0 1 3.003-4.868 5.459 5.459 0 0 1-3.003-4.868.565.565 0 1 1 1.133 0 4.331 4.331 0 0 0 3.869 4.3c.151-.012.304-.023.458-.023.155 0 .307.011.459.023a4.33 4.33 0 0 0 3.868-4.3.566.566 0 0 1 1.134 0 5.46 5.46 0 0 1-3.003 4.868 5.46 5.46 0 0 1 3.003 4.868zm-30.456 35.341a3.81 3.81 0 0 1 3.255-1.836 3.817 3.817 0 0 1 3.814 3.812 3.817 3.817 0 0 1-3.814 3.812.566.566 0 1 1 0-1.133 2.683 2.683 0 0 0 2.681-2.679 2.683 2.683 0 0 0-2.681-2.679 2.683 2.683 0 0 0-2.68 2.679l-.001.003c-.02 3.381-.02 6.87 0 10.371a.567.567 0 0 1-.563.571h-.004l-.006-.002-.007.002h-.002a.567.567 0 0 1-.567-.565c-.015-3.504-.015-6.997 0-10.38a2.683 2.683 0 0 0-2.68-2.679 2.683 2.683 0 0 0-2.681 2.679 2.683 2.683 0 0 0 2.681 2.679.567.567 0 0 1 0 1.133 3.818 3.818 0 0 1-3.815-3.812 3.818 3.818 0 0 1 3.815-3.812c1.378 0 2.585.737 3.255 1.836zm.559 1.979v-.001l-.001-.001.001.002zm-8.105 49.457c0-.314.254-.567.567-.567h3.322c-.181-2.46-1.441-4.823-3.622-6.275a.568.568 0 0 1 .629-.943c2.503 1.668 3.941 4.391 4.126 7.218h4.007c.185-2.827 1.623-5.55 4.126-7.218a.566.566 0 1 1 .629.943c-2.181 1.452-3.441 3.815-3.622 6.275h3.322a.567.567 0 1 1 0 1.133h-3.337a8.073 8.073 0 0 0 1.208 3.778 8.31 8.31 0 0 0 2.428 2.498.566.566 0 1 1-.628.943 9.441 9.441 0 0 1-2.761-2.84 9.175 9.175 0 0 1-1.377-4.379h-3.983a9.175 9.175 0 0 1-1.377 4.379 9.441 9.441 0 0 1-2.761 2.84.569.569 0 0 1-.786-.157.567.567 0 0 1 .158-.786 8.31 8.31 0 0 0 2.428-2.498 8.073 8.073 0 0 0 1.208-3.778h-3.337a.566.566 0 0 1-.567-.566zm22.405 34.635c.313 0 .566.254.566.567a4.04 4.04 0 0 0 4.037 4.035 4.04 4.04 0 0 0 4.038-4.035.566.566 0 1 1 1.133 0 4.04 4.04 0 0 0 4.037 4.035 4.04 4.04 0 0 0 4.037-4.035.567.567 0 0 1 1.134 0 5.176 5.176 0 0 1-5.171 5.168 5.172 5.172 0 0 1-4.604-2.828 5.171 5.171 0 0 1-4.604 2.828 5.176 5.176 0 0 1-5.17-5.168c0-.313.254-.567.567-.567zm0 10.025c.313 0 .566.253.566.566a4.04 4.04 0 0 0 4.037 4.036 4.04 4.04 0 0 0 4.038-4.036.565.565 0 1 1 1.133 0 4.04 4.04 0 0 0 4.037 4.036 4.04 4.04 0 0 0 4.037-4.036.566.566 0 0 1 1.134 0c0 2.85-2.32 5.169-5.171 5.169a5.172 5.172 0 0 1-4.604-2.828 5.171 5.171 0 0 1-4.604 2.828 5.176 5.176 0 0 1-5.17-5.169c0-.313.254-.566.567-.566zm47.008 10.568a4.18 4.18 0 0 1 4.174 4.106c0 .006.004.01.004.016V314.004a5.944 5.944 0 0 1 1.227-.334c.228-.054.464-.086.708-.086h.512a3.072 3.072 0 0 1 3.069 3.068v.512a3.072 3.072 0 0 1-3.069 3.067h-.512a3.072 3.072 0 0 1-3.069-3.067v-1.142c-1 .91-1.631 2.21-1.631 3.644a.566.566 0 0 1-1.133 0c0-2.107 1.106-3.983 2.764-5.076v-7.878l.001.003a.02.02 0 0 0-.001-.005c-.003-1.718-1.367-3.08-3.044-3.08a3.047 3.047 0 0 0-3.045 3.043V319.665a.566.566 0 0 1-1.134 0v-13.046c0-.008.005-.016.005-.024a4.179 4.179 0 0 1 4.174-4.098zm25.996 27.305l-.272-.003c-.098-.002-.196-.009-.295-.011V301.68h.567v28.122zm18.748-21.825c1.748 0 3.398.619 4.712 1.744l5.661-5.659-1.324.021h-.009a.566.566 0 0 1-.008-1.133l2.658-.042a.634.634 0 0 1 .248.07c.048.019.087.05.127.082.009.007.019.011.028.019.12.105.2.256.197.429l-.042 2.657a.566.566 0 0 1-.566.558h-.009a.567.567 0 0 1-.558-.575l.02-1.245-5.623 5.62c2.438 2.847 2.315 7.146-.38 9.839a.565.565 0 0 1-.801 0 .565.565 0 0 1 0-.801c2.252-2.251 2.378-5.834.38-8.237l-8.195 8.192a.565.565 0 0 1-.802 0 .567.567 0 0 1 0-.801l8.196-8.193a6.08 6.08 0 0 0-3.91-1.412 6.088 6.088 0 0 0-4.331 1.793.566.566 0 1 1-.802-.801 7.215 7.215 0 0 1 5.133-2.125zm34.927 8.437c-.079.044-.156.092-.236.135-.086.048-.174.092-.26.139l-14.064-24.348.491-.284 14.069 24.358zm134.244-42.56l.021.758a6.44 6.44 0 0 1-6.433 6.431 6.44 6.44 0 0 1-6.434-6.431l.022-.713.55-.045h.023l5.141-16.84c-1.069-.322-2.066-1.096-2.97-2.326-.522-.71-1.039-1.524-1.587-2.386-1.917-3.019-4.009-6.304-7.272-6.938.004.324.005.668.005.8 0 3.677-1.328 6.994-3.407 8.568v20.49a7.086 7.086 0 0 1 4.429 6.571.566.566 0 0 1-.566.567h-13.066a.566.566 0 0 1-.566-.567 7.082 7.082 0 0 1 4.427-6.569V254.73c-2.079-1.575-3.408-4.89-3.408-8.566l.006-.793c-3.248.655-5.34 3.932-7.259 6.945-.545.855-1.059 1.664-1.578 2.369-.9 1.225-1.891 1.997-2.955 2.322l5.144 16.847h.571l.019.547-.451.015v.007l.452.009c.002.061.004.12.004.18a6.44 6.44 0 0 1-6.434 6.431 6.44 6.44 0 0 1-6.434-6.431l.023-.707.549-.051h.023l5.06-16.687c-1.639-.142-2.766-1.252-2.818-1.305a.566.566 0 0 1 .599-.93c.009.003 2.821.564 7.169-9.389 1.608-3.68 3.701-5.712 6.222-6.041 1.257-.163 2.475.122 3.584.613 1.208-2.212 2.858-3.468 4.583-3.468 1.729 0 3.382 1.261 4.591 3.479 1.112-.496 2.336-.787 3.599-.622 2.519.328 4.612 2.361 6.221 6.042 4.354 9.967 7.167 9.386 7.196 9.381a.55.55 0 0 1 .659.229c.144.223.1.521-.087.71-.052.052-1.175 1.15-2.803 1.295l5.063 16.693h.573zm-30.947 7.373h11.872a5.961 5.961 0 0 0-7.857-5.079 5.953 5.953 0 0 0-4.015 5.079zm4.146-27.259l.251.168v20.735a7.155 7.155 0 0 1 3.076-.002v-20.73l.251-.169c1.887-1.267 3.156-4.404 3.156-7.806 0-.146-.002-.566-.006-.911-1.33-.003-2.842.416-4.589 1.413a.62.62 0 0 1-.296.075l-.087-.002a.567.567 0 0 1-.267-.075c-1.768-1.009-3.295-1.423-4.638-1.412-.004.346-.007.766-.007.912 0 3.401 1.268 6.537 3.156 7.804zm-22.058 21.019a5.306 5.306 0 0 0 5.287 4.923 5.305 5.305 0 0 0 5.287-4.923h-10.574zm23.847-37.207c-1.268 0-2.575 1.063-3.565 2.853 1.656.964 2.96 2.279 3.587 2.977.623-.695 1.913-1.998 3.553-2.961-.991-1.8-2.302-2.869-3.575-2.869zm20.3 17.996c-1.518-.707-3.956-2.974-6.928-9.777-1.438-3.29-3.229-5.097-5.325-5.371-3.79-.505-7.505 4.112-7.542 4.159a.563.563 0 0 1-.456.215l-.079-.002a.568.568 0 0 1-.432-.214c-.037-.046-3.763-4.653-7.561-4.16-2.098.275-3.89 2.082-5.327 5.37-2.969 6.797-5.406 9.066-6.924 9.774.412.183.917.32 1.473.275 1.045-.08 2.046-.763 2.978-2.03.496-.675 1.001-1.468 1.535-2.307 2.796-4.392 6.615-10.392 14.315-6.16 1.846-1.014 3.469-1.439 4.907-1.439 4.55 0 7.253 4.255 9.368 7.586.537.845 1.044 1.643 1.543 2.322.935 1.272 1.94 1.955 2.989 2.032a3.117 3.117 0 0 0 1.466-.273zm-6.987 19.211a5.305 5.305 0 0 0 5.287 4.923 5.306 5.306 0 0 0 5.287-4.923h-10.574zm2.285 58.402c3.06-.801 3.619-1.665 3.681-2.109.06-.444-.245-1.426-2.977-3.022a.558.558 0 0 1-.232-.273l-84.839-48.961c.047-.077.097-.152.144-.229.051-.085.098-.171.148-.255l84.656 48.854a.556.556 0 0 1 .696-.114c2.73 1.595 3.737 1.381 4.094 1.11.357-.271.837-1.182.034-4.241a.567.567 0 0 1 1.097-.287c.802 3.059 1.666 3.618 2.11 3.679.438.065 1.426-.244 3.024-2.974a.566.566 0 1 1 .979.572c-1.597 2.729-1.382 3.736-1.111 4.093.271.356 1.182.835 4.242.033a.57.57 0 0 1 .711.549.568.568 0 0 1-.423.548c-3.061.801-3.62 1.665-3.681 2.109-.061.444.245 1.426 2.976 3.022a.566.566 0 0 1-.572.978c-2.732-1.596-3.738-1.381-4.095-1.109-.357.27-.836 1.181-.034 4.24a.567.567 0 0 1-1.097.287c-.802-3.059-1.666-3.618-2.11-3.679-.439-.063-1.426.244-3.023 2.975a.566.566 0 1 1-.979-.573c1.597-2.729 1.381-3.736 1.111-4.093-.271-.356-1.183-.835-4.243-.033a.568.568 0 0 1-.287-1.097z" opacity=".302"/>
</svg>
