<svg xmlns="http://www.w3.org/2000/svg" width="77" height="36">
    <defs>
        <linearGradient id="a" x1="48.481%" x2="0%" y1="87.462%" y2="0%">
            <stop offset="0%" stop-color="#39125A"/>
            <stop offset="100%" stop-color="#17083A"/>
        </linearGradient>
    </defs>
    <path fill-rule="evenodd" d="M2.194 4.096c1.622-1.37 5.927-1.28 7.955-1.45 3.677-.264 7.37-.25 11.038.21 6.218.706 12.232 2.535 18.006 4.933 11.903 5.166 21.82 13.781 30.479 23.412a445.376 445.376 0 0 0-14.924-3.271c-1.391-.2-3.713 3.156-4.723 2.88 7.298 2.09 14.791 3.779 22.267 5.192.505.139 4.802-2.496 4.723-2.88-1.219-8.773-2.455-17.823-6.597-25.763 0 0-2.082 1.063-2.126 1.232 1.149 5.941 2.466 11.928 3.278 17.776C61.123 14.613 47.521 5.261 32.091 1.851 22.472-.33 7.99-1.847.006 5.221c-.257.292 1.718-.709 2.188-1.125z"/>
    <path fill="url(#a)" d="M2.194 4.096c1.622-1.37 5.927-1.28 7.955-1.45 3.677-.264 7.37-.25 11.038.21 6.218.706 12.232 2.535 18.006 4.933 11.903 5.166 21.82 13.781 30.479 23.412a445.376 445.376 0 0 0-14.924-3.271c-1.391-.2-3.713 3.156-4.723 2.88 7.298 2.09 14.791 3.779 22.267 5.192.505.139 4.802-2.496 4.723-2.88-1.219-8.773-2.455-17.823-6.597-25.763 0 0-2.082 1.063-2.126 1.232 1.149 5.941 2.466 11.928 3.278 17.776C61.123 14.613 47.521 5.261 32.091 1.851 22.472-.33 7.99-1.847.006 5.221c-.257.292 1.718-.709 2.188-1.125z"/>
</svg>
