<svg xmlns="http://www.w3.org/2000/svg" width="49" height="49">
    <path fill="#FFF" fill-rule="evenodd" d="M42.166 48.991H6.867a6.843 6.843 0 0 1-6.835-6.835v-35.3A6.843 6.843 0 0 1 6.867.021h35.299a6.843 6.843 0 0 1 6.835 6.835v35.3a6.842 6.842 0 0 1-6.835 6.835zm3.252-42.135a3.254 3.254 0 0 0-3.252-3.251H6.867a3.255 3.255 0 0 0-3.252 3.251v35.3a3.254 3.254 0 0 0 3.252 3.251h35.299a3.254 3.254 0 0 0 3.252-3.251v-35.3zm-9.617 32.367l.012.031c-3.445 1.29-7.35 1.973-11.297 1.973-6.576 0-12.442-1.777-16.721-4.689v-6.349c3.292 3.695 9.629 6.261 16.721 6.261.559 0 1.111-.041 1.665-.072-1.036-1.395-1.674-3.103-1.674-4.971 0-4.615 3.755-8.368 8.368-8.368 4.612 0 8.367 3.753 8.367 8.368.003 3.583-2.269 6.622-5.441 7.816zm-2.924-11.404a3.59 3.59 0 1 0 0 7.18 3.59 3.59 0 0 0 0-7.18zM22.851 12.634c1.037 1.395 1.675 3.103 1.675 4.971 0 4.615-3.755 8.368-8.368 8.368-4.612 0-8.37-3.755-8.37-8.37 0-3.581 2.272-6.622 5.442-7.814l-.01-.031c3.445-1.29 7.35-1.973 11.296-1.973 6.577 0 12.443 1.777 16.722 4.689v6.349c-3.292-3.695-9.629-6.261-16.722-6.261-.558 0-1.11.041-1.665.072zm-6.695 1.378a3.59 3.59 0 1 0 0 7.18 3.59 3.59 0 0 0 0-7.18z"/>
</svg>
