<svg xmlns="http://www.w3.org/2000/svg" width="203" height="185">
    <defs>
        <filter id="a" width="203" height="185" x="0" y="0" filterUnits="userSpaceOnUse">
            <feOffset dy="19" in="SourceAlpha"/>
            <feGaussianBlur result="blurOut" stdDeviation="3.606"/>
            <feFlood flood-color="#000" result="floodOut"/>
            <feComposite in="floodOut" in2="blurOut" operator="atop"/>
            <feComponentTransfer>
                <feFuncA type="linear"/>
            </feComponentTransfer>
            <feMerge>
                <feMergeNode/>
                <feMergeNode in="SourceGraphic"/>
            </feMerge>
        </filter>
        <linearGradient id="b" x1="0%" x2="82.904%" y1="0%" y2="55.919%">
            <stop offset="0%" stop-color="#ED8AA7"/>
            <stop offset="100%" stop-color="#5E28A3"/>
        </linearGradient>
    </defs>
    <path fill="#FFF" fill-rule="evenodd" d="M171.653 148.558c-.575.698-1.421 1.076-2.391 1.076l-.137-.002c-7.073-.257-28.1-24.973-31.645-29.969-.263-.374-.47-.684-.636-.945-8.659-13.973-27.941-23.346-50.05-11.351-.265 2.289-.868 8.357-.334 12.419a1.806 1.806 0 0 1-1.787 2.041c-.456 0-.906-.174-1.25-.506-.041-.039-4.291-3.991-9.951-4.154-6.168 5.801-12.022 13.175-17.41 21.952l.328 2.485c.708 2.811 2.509 6.451 7.087 7.014a1.805 1.805 0 0 1 1.58 1.706 1.805 1.805 0 0 1-1.407 1.851l-3.04.68a6.058 6.058 0 0 1-1.316.145 5.894 5.894 0 0 1-3.38-1.056c-1.273-.891-2.083-2.209-2.283-3.708l-.719-5.451-3.238 4.438c-.892 1.221-2.233 1.988-3.777 2.159a5.751 5.751 0 0 1-.629.035 5.967 5.967 0 0 1-3.927-1.494l-2.343-2.058a1.811 1.811 0 0 1-.351-2.301 1.8 1.8 0 0 1 2.201-.737c4.258 1.698 7.541-.552 9.507-2.659l1.67-2.289c-4.737-23.712 4.159-49.175 23.394-67.198-5.388.6-10.751 2.352-16.003 5.206-.263 2.277-.869 8.393-.337 12.44a1.808 1.808 0 0 1-1.786 2.043c-.456 0-.907-.174-1.252-.507-.04-.038-4.299-4.021-9.94-4.158-6.147 5.785-12.009 13.142-17.42 21.956l.327 2.482c.709 2.813 2.509 6.454 7.089 7.016.87.107 1.538.827 1.58 1.706a1.806 1.806 0 0 1-1.406 1.851l-3.042.681a6.007 6.007 0 0 1-1.317.146 5.904 5.904 0 0 1-3.38-1.056c-1.272-.892-2.083-2.209-2.282-3.709l-.72-5.452-3.237 4.438c-.892 1.221-2.231 1.988-3.775 2.159a5.834 5.834 0 0 1-.632.035 5.967 5.967 0 0 1-3.927-1.494l-2.343-2.058a1.812 1.812 0 0 1-.351-2.301 1.799 1.799 0 0 1 2.202-.737c4.256 1.696 7.54-.549 9.506-2.656l1.671-2.291c-4.89-24.456 4.692-50.731 25.212-68.857 16.722-14.772 37.781-21.231 57.181-19.372 14.517-2.443 17.965-16.21 18.106-16.798A1.806 1.806 0 0 1 126.771.01a1.808 1.808 0 0 1 1.802 1.142l12.04 30.812a56.919 56.919 0 0 1 5.595 5.38 71.52 71.52 0 0 1 2.662 3.143c2.762-3.931 3.646-7.591 3.656-7.633a1.8 1.8 0 0 1 3.431-.244l12.027 30.786a56.888 56.888 0 0 1 5.606 5.403c21.197 23.48 20.491 52.551-1.937 79.759zm-29.96-34c16.627-20.3 20.484-41.629 11.503-60.53-10.73-5.287-23.249-3.805-31.921 3.788-7.769 6.8-10.749 17.488-8.013 28.635 5.255 7.435 24.137 27.664 28.431 28.107zm-59.048 1.744c-.02-2.34.129-4.744.295-6.652a64.532 64.532 0 0 0-5.884 4.344c2.217.527 4.119 1.431 5.589 2.308zm-27.638 17.734c5.151-7.91 10.701-14.629 16.53-20.013 4.09-3.782 8.363-6.937 12.7-9.382 13.546-7.639 26.177-7.858 36.396-3.909-5.463-5.987-10.043-11.651-11.181-13.486-6.25-10.089-16.769-16.258-28.369-16.756-.489.408-.98.817-1.461 1.243-18.651 16.473-27.86 40.019-24.615 62.303zm.259-49.192c-.018-2.334.13-4.739.295-6.647a64.371 64.371 0 0 0-5.876 4.337c2.216.527 4.112 1.433 5.581 2.31zM126.911 6.8c-1.879 3.901-5.521 9.378-12.043 12.633 7.244 1.589 14.116 4.409 20.285 8.462L126.911 6.8zm16.625 32.969c-22.193-24.585-63.151-24.358-91.299.507-18.375 16.231-27.744 40.258-24.606 62.296 15.024-23.037 33.325-35.695 51.83-35.744h.106c11.316 0 21.812 4.908 29.141 13.366-.497-9.827 3.085-18.873 10.197-25.1 8.626-7.551 20.6-9.744 31.572-6.079a62.28 62.28 0 0 0-6.941-9.246zm10.773-1.472a29.775 29.775 0 0 1-3.171 5.171c3.093 4.317 5.498 8.791 7.219 13.379a57.576 57.576 0 0 1 4.169 2.481l-8.217-21.031zm16.609 32.927a52.739 52.739 0 0 0-5.591-5.352 52.658 52.658 0 0 0-5.339-3.875 50.142 50.142 0 0 1 1.396 17.279c5.464-1.005 11.126-.59 16.476 1.196a62.424 62.424 0 0 0-6.942-9.248zm-10.016 11.865c-1.86 11.306-7.401 22.816-16.629 34.01-.577.7-1.42 1.078-2.394 1.078-.087 0-.173-.004-.263-.01a4.464 4.464 0 0 1-.893-.174c6.028 8.279 24.201 27.579 28.351 28.022 16.626-20.299 20.484-41.627 11.507-60.526-6.208-3.057-13.141-3.879-19.679-2.4zm4.943 41.774c-1.482 0-2.913-.581-3.917-1.733-.968-1.111-1.391-2.563-1.194-4.088.185-1.443.915-2.786 2.053-3.781 2.412-2.112 5.952-2.017 7.891.209 1.938 2.229 1.551 5.759-.86 7.869-1.164 1.018-2.59 1.524-3.973 1.524zm2.117-7.017c-.289-.333-.723-.497-1.196-.497-.541 0-1.131.214-1.61.633-.474.416-.776.957-.849 1.524-.037.28-.042.815.335 1.248.62.712 1.908.65 2.807-.137.899-.788 1.135-2.057.513-2.771zm-1.659 2.887a1.43 1.43 0 0 1-1.429-1.433 1.43 1.43 0 0 1 1.429-1.433 1.43 1.43 0 0 1 1.428 1.433 1.43 1.43 0 0 1-1.428 1.433zm-38.584-80.571c-2.838-3.104-7.667-3.312-10.764-.468-3.096 2.847-3.305 7.689-.467 10.794a1.811 1.811 0 0 1-.11 2.553c-.178.164-.38.281-.594.36-.082.031-.168.029-.253.047-.124.026-.245.068-.371.068-.016 0-.032-.005-.048-.005-.027-.001-.052-.006-.079-.008a1.783 1.783 0 0 1-.607-.147c-.014-.006-.027-.015-.04-.022a1.77 1.77 0 0 1-.553-.404 7.566 7.566 0 0 0-5.286-2.47 7.56 7.56 0 0 0-5.479 2.002 7.603 7.603 0 0 0-2.463 5.3 7.606 7.606 0 0 0 1.997 5.494 1.81 1.81 0 0 1-.111 2.552 1.797 1.797 0 0 1-2.545-.11 11.2 11.2 0 0 1-2.94-8.093 11.193 11.193 0 0 1 3.627-7.806c2.911-2.674 6.858-3.509 10.421-2.58-.614-3.641.556-7.512 3.466-10.188 4.56-4.192 11.673-3.884 15.855.689a1.81 1.81 0 0 1-.111 2.552 1.798 1.798 0 0 1-2.545-.11zm-18.849-4.441a6.655 6.655 0 0 0-9.409-.41c-2.707 2.489-2.89 6.723-.409 9.438a1.81 1.81 0 0 1-.11 2.552 1.794 1.794 0 0 1-2.545-.111c-3.825-4.182-3.543-10.706.629-14.542 4.172-3.835 10.675-3.553 14.5.631a1.81 1.81 0 0 1-.11 2.552 1.797 1.797 0 0 1-2.546-.11zm34.426 48.292c.967 1.11 1.391 2.561 1.194 4.087-.187 1.442-.915 2.784-2.052 3.78-1.128.987-2.537 1.53-3.975 1.53h-.039c-1.534-.01-2.911-.628-3.877-1.74-1.938-2.226-1.553-5.755.859-7.868 2.413-2.111 5.954-2.015 7.89.211zm-6.035 5.282c.376.431.905.5 1.188.502h.014c.565 0 1.135-.227 1.605-.639.474-.415.776-.956.848-1.523.037-.28.041-.815-.334-1.246-.623-.712-1.906-.652-2.807.135-.899.788-1.135 2.057-.514 2.771zm1.66-2.886c.79 0 1.429.641 1.429 1.432a1.43 1.43 0 0 1-1.429 1.433 1.43 1.43 0 0 1-1.428-1.433 1.43 1.43 0 0 1 1.428-1.432z" filter="url(#a)"/>
    <path fill="url(#b)" d="M171.653 148.558c-.575.698-1.421 1.076-2.391 1.076l-.137-.002c-7.073-.257-28.1-24.973-31.645-29.969-.263-.374-.47-.684-.636-.945-8.659-13.973-27.941-23.346-50.05-11.351-.265 2.289-.868 8.357-.334 12.419a1.806 1.806 0 0 1-1.787 2.041c-.456 0-.906-.174-1.25-.506-.041-.039-4.291-3.991-9.951-4.154-6.168 5.801-12.022 13.175-17.41 21.952l.328 2.485c.708 2.811 2.509 6.451 7.087 7.014a1.805 1.805 0 0 1 1.58 1.706 1.805 1.805 0 0 1-1.407 1.851l-3.04.68a6.058 6.058 0 0 1-1.316.145 5.894 5.894 0 0 1-3.38-1.056c-1.273-.891-2.083-2.209-2.283-3.708l-.719-5.451-3.238 4.438c-.892 1.221-2.233 1.988-3.777 2.159a5.751 5.751 0 0 1-.629.035 5.967 5.967 0 0 1-3.927-1.494l-2.343-2.058a1.811 1.811 0 0 1-.351-2.301 1.8 1.8 0 0 1 2.201-.737c4.258 1.698 7.541-.552 9.507-2.659l1.67-2.289c-4.737-23.712 4.159-49.175 23.394-67.198-5.388.6-10.751 2.352-16.003 5.206-.263 2.277-.869 8.393-.337 12.44a1.808 1.808 0 0 1-1.786 2.043c-.456 0-.907-.174-1.252-.507-.04-.038-4.299-4.021-9.94-4.158-6.147 5.785-12.009 13.142-17.42 21.956l.327 2.482c.709 2.813 2.509 6.454 7.089 7.016.87.107 1.538.827 1.58 1.706a1.806 1.806 0 0 1-1.406 1.851l-3.042.681a6.007 6.007 0 0 1-1.317.146 5.904 5.904 0 0 1-3.38-1.056c-1.272-.892-2.083-2.209-2.282-3.709l-.72-5.452-3.237 4.438c-.892 1.221-2.231 1.988-3.775 2.159a5.834 5.834 0 0 1-.632.035 5.967 5.967 0 0 1-3.927-1.494l-2.343-2.058a1.812 1.812 0 0 1-.351-2.301 1.799 1.799 0 0 1 2.202-.737c4.256 1.696 7.54-.549 9.506-2.656l1.671-2.291c-4.89-24.456 4.692-50.731 25.212-68.857 16.722-14.772 37.781-21.231 57.181-19.372 14.517-2.443 17.965-16.21 18.106-16.798A1.806 1.806 0 0 1 126.771.01a1.808 1.808 0 0 1 1.802 1.142l12.04 30.812a56.919 56.919 0 0 1 5.595 5.38 71.52 71.52 0 0 1 2.662 3.143c2.762-3.931 3.646-7.591 3.656-7.633a1.8 1.8 0 0 1 3.431-.244l12.027 30.786a56.888 56.888 0 0 1 5.606 5.403c21.197 23.48 20.491 52.551-1.937 79.759zm-29.96-34c16.627-20.3 20.484-41.629 11.503-60.53-10.73-5.287-23.249-3.805-31.921 3.788-7.769 6.8-10.749 17.488-8.013 28.635 5.255 7.435 24.137 27.664 28.431 28.107zm-59.048 1.744c-.02-2.34.129-4.744.295-6.652a64.532 64.532 0 0 0-5.884 4.344c2.217.527 4.119 1.431 5.589 2.308zm-27.638 17.734c5.151-7.91 10.701-14.629 16.53-20.013 4.09-3.782 8.363-6.937 12.7-9.382 13.546-7.639 26.177-7.858 36.396-3.909-5.463-5.987-10.043-11.651-11.181-13.486-6.25-10.089-16.769-16.258-28.369-16.756-.489.408-.98.817-1.461 1.243-18.651 16.473-27.86 40.019-24.615 62.303zm.259-49.192c-.018-2.334.13-4.739.295-6.647a64.371 64.371 0 0 0-5.876 4.337c2.216.527 4.112 1.433 5.581 2.31zM126.911 6.8c-1.879 3.901-5.521 9.378-12.043 12.633 7.244 1.589 14.116 4.409 20.285 8.462L126.911 6.8zm16.625 32.969c-22.193-24.585-63.151-24.358-91.299.507-18.375 16.231-27.744 40.258-24.606 62.296 15.024-23.037 33.325-35.695 51.83-35.744h.106c11.316 0 21.812 4.908 29.141 13.366-.497-9.827 3.085-18.873 10.197-25.1 8.626-7.551 20.6-9.744 31.572-6.079a62.28 62.28 0 0 0-6.941-9.246zm10.773-1.472a29.775 29.775 0 0 1-3.171 5.171c3.093 4.317 5.498 8.791 7.219 13.379a57.576 57.576 0 0 1 4.169 2.481l-8.217-21.031zm16.609 32.927a52.739 52.739 0 0 0-5.591-5.352 52.658 52.658 0 0 0-5.339-3.875 50.142 50.142 0 0 1 1.396 17.279c5.464-1.005 11.126-.59 16.476 1.196a62.424 62.424 0 0 0-6.942-9.248zm-10.016 11.865c-1.86 11.306-7.401 22.816-16.629 34.01-.577.7-1.42 1.078-2.394 1.078-.087 0-.173-.004-.263-.01a4.464 4.464 0 0 1-.893-.174c6.028 8.279 24.201 27.579 28.351 28.022 16.626-20.299 20.484-41.627 11.507-60.526-6.208-3.057-13.141-3.879-19.679-2.4zm4.943 41.774c-1.482 0-2.913-.581-3.917-1.733-.968-1.111-1.391-2.563-1.194-4.088.185-1.443.915-2.786 2.053-3.781 2.412-2.112 5.952-2.017 7.891.209 1.938 2.229 1.551 5.759-.86 7.869-1.164 1.018-2.59 1.524-3.973 1.524zm2.117-7.017c-.289-.333-.723-.497-1.196-.497-.541 0-1.131.214-1.61.633-.474.416-.776.957-.849 1.524-.037.28-.042.815.335 1.248.62.712 1.908.65 2.807-.137.899-.788 1.135-2.057.513-2.771zm-1.659 2.887a1.43 1.43 0 0 1-1.429-1.433 1.43 1.43 0 0 1 1.429-1.433 1.43 1.43 0 0 1 1.428 1.433 1.43 1.43 0 0 1-1.428 1.433zm-38.584-80.571c-2.838-3.104-7.667-3.312-10.764-.468-3.096 2.847-3.305 7.689-.467 10.794a1.811 1.811 0 0 1-.11 2.553c-.178.164-.38.281-.594.36-.082.031-.168.029-.253.047-.124.026-.245.068-.371.068-.016 0-.032-.005-.048-.005-.027-.001-.052-.006-.079-.008a1.783 1.783 0 0 1-.607-.147c-.014-.006-.027-.015-.04-.022a1.77 1.77 0 0 1-.553-.404 7.566 7.566 0 0 0-5.286-2.47 7.56 7.56 0 0 0-5.479 2.002 7.603 7.603 0 0 0-2.463 5.3 7.606 7.606 0 0 0 1.997 5.494 1.81 1.81 0 0 1-.111 2.552 1.797 1.797 0 0 1-2.545-.11 11.2 11.2 0 0 1-2.94-8.093 11.193 11.193 0 0 1 3.627-7.806c2.911-2.674 6.858-3.509 10.421-2.58-.614-3.641.556-7.512 3.466-10.188 4.56-4.192 11.673-3.884 15.855.689a1.81 1.81 0 0 1-.111 2.552 1.798 1.798 0 0 1-2.545-.11zm-18.849-4.441a6.655 6.655 0 0 0-9.409-.41c-2.707 2.489-2.89 6.723-.409 9.438a1.81 1.81 0 0 1-.11 2.552 1.794 1.794 0 0 1-2.545-.111c-3.825-4.182-3.543-10.706.629-14.542 4.172-3.835 10.675-3.553 14.5.631a1.81 1.81 0 0 1-.11 2.552 1.797 1.797 0 0 1-2.546-.11zm34.426 48.292c.967 1.11 1.391 2.561 1.194 4.087-.187 1.442-.915 2.784-2.052 3.78-1.128.987-2.537 1.53-3.975 1.53h-.039c-1.534-.01-2.911-.628-3.877-1.74-1.938-2.226-1.553-5.755.859-7.868 2.413-2.111 5.954-2.015 7.89.211zm-6.035 5.282c.376.431.905.5 1.188.502h.014c.565 0 1.135-.227 1.605-.639.474-.415.776-.956.848-1.523.037-.28.041-.815-.334-1.246-.623-.712-1.906-.652-2.807.135-.899.788-1.135 2.057-.514 2.771zm1.66-2.886c.79 0 1.429.641 1.429 1.432a1.43 1.43 0 0 1-1.429 1.433 1.43 1.43 0 0 1-1.428-1.433 1.43 1.43 0 0 1 1.428-1.432z"/>
</svg>
