<svg xmlns="http://www.w3.org/2000/svg" width="170" height="178">
    <defs>
        <filter id="a" width="170" height="178" x="0" y="0" filterUnits="userSpaceOnUse">
            <feOffset dy="19" in="SourceAlpha"/>
            <feGaussianBlur result="blurOut" stdDeviation="3.606"/>
            <feFlood flood-color="#000" result="floodOut"/>
            <feComposite in="floodOut" in2="blurOut" operator="atop"/>
            <feComponentTransfer>
                <feFuncA type="linear"/>
            </feComponentTransfer>
            <feMerge>
                <feMergeNode/>
                <feMergeNode in="SourceGraphic"/>
            </feMerge>
        </filter>
        <linearGradient id="b" x1="0%" x2="82.904%" y1="0%" y2="55.919%">
            <stop offset="0%" stop-color="#ED8AA7"/>
            <stop offset="100%" stop-color="#5E28A3"/>
        </linearGradient>
    </defs>
    <path fill="#FFF" fill-rule="evenodd" d="M155.758 5.958a4.555 4.555 0 0 1-1.541 2.269c-.71.574-1.59.928-2.532 1.016-8.902.791-32.978 11.134-38.839 48.779.962-1.401 2.131-3.419 3.488-6.37a100.773 100.773 0 0 1 2.077-4.278c2.344-4.558 4.924-8.317 7.665-11.181l.008-.011.014-.013.08-.086c2.387-2.483 4.978-4.355 7.697-5.56 3.011-1.337 5.048-.646 6.227.171 3.902 2.707 3.535 10.27 3.423 11.758-.404 12.319-11.298 30.635-23.342 34.937a37.742 37.742 0 0 1-.199 5.564c-.516 4.679-1.814 8.978-3.751 12.429-5.318 9.485-8.444 19.212-9.291 28.911-1.071 12.178-11.384 21.716-23.48 21.716-12.306-.009-22.376-9.152-23.439-21.267l-.039-.449c-.857-9.716-3.983-19.444-9.293-28.911-1.938-3.453-3.234-7.751-3.749-12.428a37.562 37.562 0 0 1-.196-5.607c-12.115-4.394-23.045-22.638-23.451-34.976-.108-1.407-.475-8.97 3.426-11.677 1.178-.817 3.216-1.511 6.23-.17 2.716 1.204 5.308 3.076 7.699 5.561 2.776 2.875 5.39 6.675 7.763 11.293a99.18 99.18 0 0 1 2.078 4.276c1.436 3.124 2.664 5.212 3.654 6.621-5.788-37.859-29.956-48.246-38.871-49.039a4.746 4.746 0 0 1-2.549-1.022 4.562 4.562 0 0 1-1.535-2.271 4.748 4.748 0 0 1 .742-4.197C12.747.65 13.976.017 15.303.005c23.488-.248 38.908 12.852 47.719 23.82 8.653 10.773 13.602 22.694 15.21 29.17H88.72c1.611-6.479 6.56-18.394 15.209-29.162C112.678 12.941 127.953.01 151.149.01l.497.003c1.328.011 2.556.645 3.372 1.739a4.754 4.754 0 0 1 .74 4.206zm-35.975 67.479c10.1-4.294 19.519-20.389 19.874-31.191.206-2.803-.222-7.337-1.781-8.416-.515-.358-1.327-.296-2.414.19-2.249.996-4.417 2.57-6.449 4.677-6.694 8.029-10.119 18.38-10.185 30.766a25.95 25.95 0 0 1 .955 3.974zm-81.981-34.75c-2.033-2.103-4.196-3.673-6.437-4.666-1.089-.486-1.901-.547-2.418-.191-1.558 1.079-1.986 5.613-1.784 8.337.379 11.506 10.583 26.99 19.988 31.201.293-1.772.724-3.44 1.295-4.908-.219-8.104-2.272-19.747-10.644-29.773zM151.899 4.026c-.133-.18-.243-.181-.285-.181l-.466-.003c-41.356 0-57.749 43.761-59.048 51.852l-.056-.009a1.937 1.937 0 0 1-1.77 1.143H76.68a1.936 1.936 0 0 1-1.773-1.151l-.058.009c-1.297-8.091-17.69-51.851-59.047-51.851-.158 0-.31.001-.468.003-.036 0-.15.001-.284.18a.975.975 0 0 0-.147.829c.048.16.135.289.256.385.136.11.293.172.468.189 9.813.871 36.501 12.105 42.461 52.981.008.059.018.114.027.173.013.091.03.178.043.27l-.017.002.346 3.962a.209.209 0 0 1 .001.025L59.85 78.4c3.617-1.552 7.499-.958 9.5 1.691 2.472 3.286 1.14 8.263-3.028 11.337a11.418 11.418 0 0 1-2.516 1.413 5.055 5.055 0 0 1-1.914.379 5.07 5.07 0 0 1-2.617-.733 4.97 4.97 0 0 1-2.418-3.863l-2.128-24.32c-.968-.562-1.966-1.49-2.989-2.786.373 2.603.542 5.046.588 7.239v.049c0 .274-.058.536-.164.773-.755 1.839-1.262 4.107-1.467 6.56a33.052 33.052 0 0 0 .097 6.401c.452 4.114 1.619 8.015 3.285 10.984 5.575 9.939 8.86 20.181 9.764 30.439l.039.449c.889 10.12 9.3 17.757 19.566 17.764 10.119 0 18.737-8.001 19.635-18.213.894-10.238 4.179-20.48 9.763-30.439 1.666-2.969 2.832-6.87 3.286-10.985.49-4.466.106-8.791-1.078-12.179-.009-.025-.005-.051-.013-.076a1.875 1.875 0 0 1-.088-.525c0-.009-.005-.016-.005-.025l.001-.014c.005-3.058.212-5.998.6-8.828-1.146 1.555-2.262 2.662-3.344 3.316L110.06 88.78a5.025 5.025 0 0 1-2.262 3.772 4.98 4.98 0 0 1-2.74.827 4.964 4.964 0 0 1-1.497-.232 11.398 11.398 0 0 1-3.357-1.719c-4.163-3.078-5.489-8.055-3.021-11.333 2.064-2.748 6.155-3.29 9.88-1.522l1.374-15.739c.002-.018.008-.034.01-.052.004-.035.002-.07.008-.105l.324-3.725c.003-.034.014-.065.019-.099l-.006-.001c5.828-41.245 32.683-52.549 42.54-53.425a.825.825 0 0 0 .715-.568.974.974 0 0 0-.148-.833zM62.292 86.977a5.371 5.371 0 0 1-1.713-.246l.137 1.565c.047.545.417.823.573.917.189.114.577.278 1.048.083a7.582 7.582 0 0 0 1.67-.942c2.347-1.729 3.372-4.464 2.238-5.971-1.054-1.396-3.774-1.304-6.031.168l.017.206a5.277 5.277 0 0 1 1.95-.402c2.02-.038 3.688.967 3.719 2.241.031 1.275-1.588 2.343-3.608 2.381zm44.403-4.179a2.067 2.067 0 0 1-.153-.097c-1.24-.868-2.641-1.312-3.84-1.312-1.03 0-1.91.328-2.412.994-1.134 1.505-.113 4.241 2.23 5.974.69.507 1.456.902 2.214 1.137.422.136.756-.026.919-.133.315-.207.516-.54.549-.913l.153-1.759a5.313 5.313 0 0 1-1.843.288c-2.02-.038-3.638-1.106-3.608-2.381.031-1.274 1.7-2.279 3.719-2.241a5.226 5.226 0 0 1 2.071.452l.001-.009zm-4.206-15.759c-.18 0-.363-.025-.545-.077-9.526-2.752-27.538-2.752-37.065 0a1.94 1.94 0 0 1-2.402-1.301 1.913 1.913 0 0 1 1.315-2.377c10.086-2.914 29.153-2.914 39.239 0a1.913 1.913 0 0 1 1.316 2.377 1.933 1.933 0 0 1-1.858 1.378zm-31.183 51.283l2.503-1.257a5.742 5.742 0 0 1 4.557-.264c1.393.518 2.457 1.536 2.997 2.867l1.55 3.821 1.551-3.821c.538-1.33 1.601-2.348 2.993-2.867a5.75 5.75 0 0 1 4.56.264l2.503 1.257a1.905 1.905 0 0 1 .975 2.272 1.937 1.937 0 0 1-2.098 1.337c-3.903-.49-6.172 2.034-7.381 4.197l-1.25 3.079a1.936 1.936 0 0 1-1.797 1.202c-.019 0-.037-.008-.056-.009-.019.001-.037.009-.056.009a1.935 1.935 0 0 1-1.797-1.202l-1.204-2.965c-1.203-2.188-3.498-4.811-7.427-4.311a1.929 1.929 0 0 1-2.098-1.337 1.907 1.907 0 0 1 .975-2.272zm5.603 12.943c2.973 2.28 9.035 2.28 12.009 0a1.953 1.953 0 0 1 2.717.341c.656.837.501 2.04-.344 2.688-2.193 1.68-5.286 2.521-8.378 2.521-3.094 0-6.186-.841-8.378-2.521a1.902 1.902 0 0 1-.344-2.688 1.95 1.95 0 0 1 2.718-.341z" filter="url(#a)"/>
    <path fill="url(#b)" d="M155.758 5.958a4.555 4.555 0 0 1-1.541 2.269c-.71.574-1.59.928-2.532 1.016-8.902.791-32.978 11.134-38.839 48.779.962-1.401 2.131-3.419 3.488-6.37a100.773 100.773 0 0 1 2.077-4.278c2.344-4.558 4.924-8.317 7.665-11.181l.008-.011.014-.013.08-.086c2.387-2.483 4.978-4.355 7.697-5.56 3.011-1.337 5.048-.646 6.227.171 3.902 2.707 3.535 10.27 3.423 11.758-.404 12.319-11.298 30.635-23.342 34.937a37.742 37.742 0 0 1-.199 5.564c-.516 4.679-1.814 8.978-3.751 12.429-5.318 9.485-8.444 19.212-9.291 28.911-1.071 12.178-11.384 21.716-23.48 21.716-12.306-.009-22.376-9.152-23.439-21.267l-.039-.449c-.857-9.716-3.983-19.444-9.293-28.911-1.938-3.453-3.234-7.751-3.749-12.428a37.562 37.562 0 0 1-.196-5.607c-12.115-4.394-23.045-22.638-23.451-34.976-.108-1.407-.475-8.97 3.426-11.677 1.178-.817 3.216-1.511 6.23-.17 2.716 1.204 5.308 3.076 7.699 5.561 2.776 2.875 5.39 6.675 7.763 11.293a99.18 99.18 0 0 1 2.078 4.276c1.436 3.124 2.664 5.212 3.654 6.621-5.788-37.859-29.956-48.246-38.871-49.039a4.746 4.746 0 0 1-2.549-1.022 4.562 4.562 0 0 1-1.535-2.271 4.748 4.748 0 0 1 .742-4.197C12.747.65 13.976.017 15.303.005c23.488-.248 38.908 12.852 47.719 23.82 8.653 10.773 13.602 22.694 15.21 29.17H88.72c1.611-6.479 6.56-18.394 15.209-29.162C112.678 12.941 127.953.01 151.149.01l.497.003c1.328.011 2.556.645 3.372 1.739a4.754 4.754 0 0 1 .74 4.206zm-35.975 67.479c10.1-4.294 19.519-20.389 19.874-31.191.206-2.803-.222-7.337-1.781-8.416-.515-.358-1.327-.296-2.414.19-2.249.996-4.417 2.57-6.449 4.677-6.694 8.029-10.119 18.38-10.185 30.766a25.95 25.95 0 0 1 .955 3.974zm-81.981-34.75c-2.033-2.103-4.196-3.673-6.437-4.666-1.089-.486-1.901-.547-2.418-.191-1.558 1.079-1.986 5.613-1.784 8.337.379 11.506 10.583 26.99 19.988 31.201.293-1.772.724-3.44 1.295-4.908-.219-8.104-2.272-19.747-10.644-29.773zM151.899 4.026c-.133-.18-.243-.181-.285-.181l-.466-.003c-41.356 0-57.749 43.761-59.048 51.852l-.056-.009a1.937 1.937 0 0 1-1.77 1.143H76.68a1.936 1.936 0 0 1-1.773-1.151l-.058.009c-1.297-8.091-17.69-51.851-59.047-51.851-.158 0-.31.001-.468.003-.036 0-.15.001-.284.18a.975.975 0 0 0-.147.829c.048.16.135.289.256.385.136.11.293.172.468.189 9.813.871 36.501 12.105 42.461 52.981.008.059.018.114.027.173.013.091.03.178.043.27l-.017.002.346 3.962a.209.209 0 0 1 .001.025L59.85 78.4c3.617-1.552 7.499-.958 9.5 1.691 2.472 3.286 1.14 8.263-3.028 11.337a11.418 11.418 0 0 1-2.516 1.413 5.055 5.055 0 0 1-1.914.379 5.07 5.07 0 0 1-2.617-.733 4.97 4.97 0 0 1-2.418-3.863l-2.128-24.32c-.968-.562-1.966-1.49-2.989-2.786.373 2.603.542 5.046.588 7.239v.049c0 .274-.058.536-.164.773-.755 1.839-1.262 4.107-1.467 6.56a33.052 33.052 0 0 0 .097 6.401c.452 4.114 1.619 8.015 3.285 10.984 5.575 9.939 8.86 20.181 9.764 30.439l.039.449c.889 10.12 9.3 17.757 19.566 17.764 10.119 0 18.737-8.001 19.635-18.213.894-10.238 4.179-20.48 9.763-30.439 1.666-2.969 2.832-6.87 3.286-10.985.49-4.466.106-8.791-1.078-12.179-.009-.025-.005-.051-.013-.076a1.875 1.875 0 0 1-.088-.525c0-.009-.005-.016-.005-.025l.001-.014c.005-3.058.212-5.998.6-8.828-1.146 1.555-2.262 2.662-3.344 3.316L110.06 88.78a5.025 5.025 0 0 1-2.262 3.772 4.98 4.98 0 0 1-2.74.827 4.964 4.964 0 0 1-1.497-.232 11.398 11.398 0 0 1-3.357-1.719c-4.163-3.078-5.489-8.055-3.021-11.333 2.064-2.748 6.155-3.29 9.88-1.522l1.374-15.739c.002-.018.008-.034.01-.052.004-.035.002-.07.008-.105l.324-3.725c.003-.034.014-.065.019-.099l-.006-.001c5.828-41.245 32.683-52.549 42.54-53.425a.825.825 0 0 0 .715-.568.974.974 0 0 0-.148-.833zM62.292 86.977a5.371 5.371 0 0 1-1.713-.246l.137 1.565c.047.545.417.823.573.917.189.114.577.278 1.048.083a7.582 7.582 0 0 0 1.67-.942c2.347-1.729 3.372-4.464 2.238-5.971-1.054-1.396-3.774-1.304-6.031.168l.017.206a5.277 5.277 0 0 1 1.95-.402c2.02-.038 3.688.967 3.719 2.241.031 1.275-1.588 2.343-3.608 2.381zm44.403-4.179a2.067 2.067 0 0 1-.153-.097c-1.24-.868-2.641-1.312-3.84-1.312-1.03 0-1.91.328-2.412.994-1.134 1.505-.113 4.241 2.23 5.974.69.507 1.456.902 2.214 1.137.422.136.756-.026.919-.133.315-.207.516-.54.549-.913l.153-1.759a5.313 5.313 0 0 1-1.843.288c-2.02-.038-3.638-1.106-3.608-2.381.031-1.274 1.7-2.279 3.719-2.241a5.226 5.226 0 0 1 2.071.452l.001-.009zm-4.206-15.759c-.18 0-.363-.025-.545-.077-9.526-2.752-27.538-2.752-37.065 0a1.94 1.94 0 0 1-2.402-1.301 1.913 1.913 0 0 1 1.315-2.377c10.086-2.914 29.153-2.914 39.239 0a1.913 1.913 0 0 1 1.316 2.377 1.933 1.933 0 0 1-1.858 1.378zm-31.183 51.283l2.503-1.257a5.742 5.742 0 0 1 4.557-.264c1.393.518 2.457 1.536 2.997 2.867l1.55 3.821 1.551-3.821c.538-1.33 1.601-2.348 2.993-2.867a5.75 5.75 0 0 1 4.56.264l2.503 1.257a1.905 1.905 0 0 1 .975 2.272 1.937 1.937 0 0 1-2.098 1.337c-3.903-.49-6.172 2.034-7.381 4.197l-1.25 3.079a1.936 1.936 0 0 1-1.797 1.202c-.019 0-.037-.008-.056-.009-.019.001-.037.009-.056.009a1.935 1.935 0 0 1-1.797-1.202l-1.204-2.965c-1.203-2.188-3.498-4.811-7.427-4.311a1.929 1.929 0 0 1-2.098-1.337 1.907 1.907 0 0 1 .975-2.272zm5.603 12.943c2.973 2.28 9.035 2.28 12.009 0a1.953 1.953 0 0 1 2.717.341c.656.837.501 2.04-.344 2.688-2.193 1.68-5.286 2.521-8.378 2.521-3.094 0-6.186-.841-8.378-2.521a1.902 1.902 0 0 1-.344-2.688 1.95 1.95 0 0 1 2.718-.341z"/>
</svg>
