<svg xmlns="http://www.w3.org/2000/svg" width="129" height="115">
    <path fill="#FFF" fill-rule="evenodd" d="M128.421 72.37c-1.528 2.897-3.71 5.826-6.312 8.473-5.9 6.008-12.722 9.449-17.522 8.882-16.517 4.17-26.359.939-28.17.244a2.51 2.51 0 0 1-1.378-1.319 91.743 91.743 0 0 1-4.574-13.083 50.25 50.25 0 0 1-4.781 3.376c.261 2.775 1.462 5.261 3.759 7.746a1.5 1.5 0 1 1-2.199 2.04c-1.054-1.142-1.925-2.309-2.615-3.506a14.785 14.785 0 0 1-1.728-4.664 51.44 51.44 0 0 1-4.207 2.032c.185 2.924 1.387 5.519 3.785 8.113a1.5 1.5 0 1 1-2.199 2.04c-1.054-1.143-1.925-2.309-2.615-3.506a14.704 14.704 0 0 1-1.873-5.517 41.691 41.691 0 0 1-4.99 1.424c.364 3.109 1.723 5.923 4.269 8.792.553.61.501 1.572-.118 2.125a1.499 1.499 0 0 1-2.119-.129c-1.138-1.281-2.077-2.56-2.826-3.86a16.832 16.832 0 0 1-2.152-6.41c-4.901.634-9.226.058-12.364-1.726-.987 1.671-2.566 3.191-4.535 4.326-2.569 1.481-5.42 2.028-7.745 1.585-.762 2.041-2.547 4.016-4.94 5.343a12.18 12.18 0 0 1-3.995 1.37c.178 1.464.024 3.053-.479 4.632-.098.312-.209.616-.329.914.716.06 1.436.156 2.146.301 2.166.43 4.152 1.206 5.735 2.241l2.135 1.394-5.983 3.194 3.73 4.958-2.469.385c-1.838.286-3.908.217-5.982-.199-3.818-.76-6.929-2.524-8.319-4.722a5.422 5.422 0 0 1-.122-.202c-.426-.739-.629-1.502-.631-2.256a5.37 5.37 0 0 1-1.848-2.055c-1.055-2.003-1.176-4.684-.331-7.357.971-3.07 3.032-5.455 5.361-6.381.13-2.62 2.148-5.412 5.343-7.177 2.214-1.225 4.618-1.719 6.659-1.433.707-2.33 2.641-4.627 5.347-6.187 1.991-1.148 4.178-1.757 6.154-1.755.096-3.551 1.759-7.497 4.701-11.338a16.832 16.832 0 0 1-4.478-5.081c-.75-1.3-1.386-2.753-1.925-4.381a1.5 1.5 0 0 1 .951-1.899 1.507 1.507 0 0 1 1.898.964c1.206 3.641 2.966 6.233 5.479 8.107a41.67 41.67 0 0 1 3.732-3.605 14.667 14.667 0 0 1-3.844-4.392c-.691-1.198-1.263-2.534-1.724-4.02a1.498 1.498 0 1 1 2.867-.88c1.046 3.382 2.69 5.723 5.134 7.348a51.085 51.085 0 0 1 3.864-2.623 14.786 14.786 0 0 1-3.177-3.839c-.691-1.199-1.263-2.535-1.724-4.021a1.499 1.499 0 1 1 2.867-.88c1.002 3.24 2.553 5.526 4.829 7.141a50.064 50.064 0 0 1 5.341-2.451 91.767 91.767 0 0 1-9.106-10.59 2.49 2.49 0 0 1-.451-1.846c.307-1.923 2.442-12.059 14.328-24.264 1.916-4.437 8.312-8.616 16.467-10.712C80.018.669 83.647.248 86.916.379a1.985 1.985 0 0 1 1.723 1.146 1.974 1.974 0 0 1-.222 2.051l-4.957 6.438 7.978 3.46a1.991 1.991 0 0 1 1.193 1.671 1.969 1.969 0 0 1-.915 1.83c-2.864 1.8-6.386 3.27-10.187 4.252-5.903 1.516-11.795 1.637-15.989.356-2.606 2.044-8.57 7.094-10.032 11.537 1.144 1.689 5.38 7.848 9.885 13.305a29.827 29.827 0 0 1 2.331-.167c1.899-.052 3.664.098 5.262.447l.143-.083c1.956-1.128 4.06-1.915 6.083-2.277a2.45 2.45 0 0 1 2.082.594c.569.507.864 1.238.814 1.998l-.299 4.631 3.808 1.939a2.464 2.464 0 0 1 1.308 1.739 2.413 2.413 0 0 1-.554 2.068c-1.298 1.478-2.968 2.827-4.829 3.901l-.145.082a20.951 20.951 0 0 1-1.682 3.808l.008.014-.457.765a29.834 29.834 0 0 1-1.442 2.139c2.46 6.602 5.64 13.296 6.523 15.121 4.582.96 11.937-1.669 15.011-2.899.993-4.271 4.05-9.308 8.319-13.657 2.756-2.8 5.793-5.111 8.784-6.687a1.972 1.972 0 0 1 2.044.125c.605.418.932 1.136.847 1.869l-1.002 8.638 8.054-1.063a1.974 1.974 0 0 1 1.886.834c.423.607.478 1.405.131 2.066zM6.995 108.055c.759 1.2 3.02 2.709 6.358 3.373.765.154 1.526.251 2.266.292l-2.628-3.492 4.241-2.265a15.513 15.513 0 0 0-2.193-.604 15.25 15.25 0 0 0-3.319-.302c-1.373 1.691-3.063 2.727-4.76 2.92.015.026.018.051.035.078zm.664-13.706C6.42 95 5.09 96.506 4.392 98.712c-.594 1.881-.549 3.765.122 5.038.31.605.75 1.002 1.271 1.161l.085.028c1.171.302 2.725-.594 3.872-2.233a8.883 8.883 0 0 0 1.194-2.436c.41-1.287.516-2.59.317-3.704-1.568-.298-2.832-1.073-3.594-2.217zm11.593-7.103a4.955 4.955 0 0 1-.54-1.421c-1.258-.239-3.098-.018-5.019 1.045-2.785 1.539-4.099 3.899-3.761 5.294l.002.014c.001.007.004.013.006.02.027.123.075.249.143.371l.014.027c.372.645 1.241 1.04 2.392 1.09h.002c1.349.062 2.884-.341 4.322-1.134 2.056-1.139 3.234-2.693 3.64-3.928a5.005 5.005 0 0 1-1.201-1.378zm12.433-7.008a9.537 9.537 0 0 1-.963-2.357c-1.51-.082-3.33.393-4.976 1.342-2.445 1.409-4.156 3.654-4.163 5.459-.002.856.411 1.516 1.201 1.908 1.341.675 3.921.644 6.667-.939 1.639-.945 2.932-2.237 3.624-3.573a9.472 9.472 0 0 1-1.39-1.84zm21.189-45.661a2.418 2.418 0 0 1-.33-2.046c1.624-5.618 8.786-11.541 11.79-13.828l.158-.104-.002-.003.607-.35.662.242c3.675 1.359 9.286 1.292 15.01-.178 2.764-.714 5.357-1.7 7.607-2.889l-7.313-3.172a1.983 1.983 0 0 1-1.135-1.327 1.964 1.964 0 0 1 .346-1.708l4.49-5.831c-2.423.082-5.006.465-7.582 1.128-7.212 1.853-13.201 5.636-14.563 9.2l-.19.496-.273.157c-10.88 11.152-13.121 20.231-13.524 22.462a88.572 88.572 0 0 0 9.7 11.081 41.21 41.21 0 0 1 2.91-.789c.243-.056.484-.099.727-.15-4.387-5.468-8.286-11.191-9.095-12.391zM78.69 59.856l.165-.59.533-.307c.252-.134.451-.243.648-.356 1.349-.778 2.574-1.718 3.577-2.746l-3.479-1.772a2.466 2.466 0 0 1-1.345-2.362l.277-4.272c-1.477.344-2.995.954-4.431 1.783-.203.117-.398.234-.593.356l-.544.34-.623-.161c-1.484-.384-3.185-.553-5.055-.501-1.877.05-3.859.316-5.894.785-3.988.915-8.172 2.595-12.098 4.858-11.914 6.869-19.033 17.781-15.546 23.83 3.486 6.046 16.496 5.351 28.409-1.517 3.982-2.296 7.569-5.112 10.374-8.147 1.356-1.469 2.516-2.972 3.451-4.471l.179-.297c.927-1.531 1.599-3.029 1.995-4.453zm38.754 13.835a1.96 1.96 0 0 1-1.649-.555 1.98 1.98 0 0 1-.58-1.648l.92-7.919c-2.157 1.352-4.311 3.102-6.315 5.138-4.139 4.217-7.008 9.038-7.674 12.898l-.119.692-.607.35-.001-.001-.172.086c-3.485 1.453-12.201 4.683-17.881 3.272a2.419 2.419 0 0 1-1.6-1.311c-.631-1.294-3.601-7.481-6.127-13.98-.124.138-.24.278-.367.416a41.015 41.015 0 0 1-2.278 2.27 88.466 88.466 0 0 0 4.7 13.839c2.116.764 11.098 3.383 26.215-.449l.272-.157.526.085c3.766.607 10.04-2.68 15.258-7.992 1.865-1.898 3.491-3.942 4.776-5.997l-7.297.963zM73.635 57.765l-1.431 1.814c-.541.882-1.046 2.01-1.153 3.245.08.722.175 1.458.283 2.215.178.493.441.989.81 1.481.448.588.4 1.403-.097 1.937a1.497 1.497 0 0 1-1.92.223l-1.875-1.239a4.589 4.589 0 0 1-1.439-1.529 4.49 4.49 0 0 1-.538-1.505c-.189-1.163.096-2.298.804-3.195l1.998-2.533-3.193.46c-1.13.163-2.254-.159-3.167-.905a4.448 4.448 0 0 1-1.034-1.221 4.584 4.584 0 0 1-.602-2.01l-.133-2.245a1.497 1.497 0 0 1 2.88-.663c.214.511.477.944.771 1.319.68.535 1.344 1.044 1.984 1.513.024.017.043.03.066.048 1.074.458 2.232.572 3.212.547l2.291-.33a1.5 1.5 0 0 1 1.476.315c.026.024.045.051.069.075l.015.018c.051.055.099.111.14.17.033.048.062.097.089.147.012.023.026.045.037.069.053.108.098.221.125.344a1.498 1.498 0 0 1-.467 1.434l-.001.001z" opacity=".102"/>
</svg>
