<svg xmlns="http://www.w3.org/2000/svg" width="174" height="168">
    <defs>
        <filter id="a" width="174" height="168" x="0" y="0" filterUnits="userSpaceOnUse">
            <feOffset dy="19" in="SourceAlpha"/>
            <feGaussianBlur result="blurOut" stdDeviation="3.606"/>
            <feFlood flood-color="#000" result="floodOut"/>
            <feComposite in="floodOut" in2="blurOut" operator="atop"/>
            <feComponentTransfer>
                <feFuncA type="linear"/>
            </feComponentTransfer>
            <feMerge>
                <feMergeNode/>
                <feMergeNode in="SourceGraphic"/>
            </feMerge>
        </filter>
        <linearGradient id="b" x1="0%" x2="82.904%" y1="0%" y2="55.919%">
            <stop offset="0%" stop-color="#ED8AA7"/>
            <stop offset="100%" stop-color="#5E28A3"/>
        </linearGradient>
    </defs>
    <path fill="#FFF" fill-rule="evenodd" d="M140.898 132.079c-10.533 0-19.101-8.558-19.101-19.075 0-.172.005-.342.011-.513l.056-1.664h1.686l15.372-50.298c-3.202-.937-6.187-3.24-8.895-6.921-1.555-2.113-3.096-4.536-4.727-7.102-5.749-9.04-12.023-18.884-21.834-20.729.011 1.008.016 2.109.016 2.488 0 10.948-3.962 20.818-10.16 25.482v61.128a21.026 21.026 0 0 1 13.208 19.519c0 .887-.721 1.606-1.609 1.606H65.966a1.608 1.608 0 0 1-1.609-1.606 21.019 21.019 0 0 1 13.2-19.512V53.74c-6.197-4.664-10.159-14.531-10.159-25.475 0-.361.006-1.462.018-2.474-9.769 1.906-16.043 11.73-21.795 20.756-1.623 2.548-3.157 4.954-4.701 7.053-2.695 3.663-5.665 5.961-8.849 6.906l15.379 50.321h1.695l.048 1.71c.005.155.009.311.009.467 0 10.517-8.568 19.075-19.101 19.075-10.532 0-19.101-8.558-19.101-19.075 0-.172.005-.342.012-.513l.055-1.664h1.684l15.134-49.853c-4.908-.365-8.295-3.719-8.452-3.877a1.606 1.606 0 0 1 1.699-2.637c.019.002 8.454 1.772 21.481-28.011 4.781-10.93 11-16.968 18.485-17.945 3.757-.487 7.408.361 10.719 1.834C75.407 3.746 80.315 0 85.441 0c5.134 0 10.05 3.757 13.641 10.367 3.321-1.492 6.99-2.352 10.769-1.857 7.479.972 13.697 7.011 18.482 17.948 13.034 29.799 21.467 28.015 21.553 27.989.705-.264 1.465.017 1.871.649.407.632.285 1.475-.244 2.009-.156.159-3.515 3.49-8.395 3.88l15.131 49.842h1.684l.055 1.664c.007.171.012.341.012.513 0 10.517-8.57 19.075-19.102 19.075zm-73.246.709h35.583a17.82 17.82 0 0 0-12.037-15.289c-3.667-1.264-7.817-1.267-11.509.003a17.816 17.816 0 0 0-12.037 15.286zM80.061 51.58l.712.477v61.817a21.284 21.284 0 0 1 9.333-.005V52.064l.712-.477c5.651-3.787 9.448-13.159 9.448-23.322 0-.475-.007-1.77-.019-2.799-3.999-.021-8.544 1.224-13.805 4.226-.251.143-.53.204-.83.211l-.261-.005a1.62 1.62 0 0 1-.765-.212c-5.323-3.037-9.914-4.275-13.95-4.226a274.12 274.12 0 0 0-.022 2.805c0 10.157 3.796 19.527 9.447 23.315zm-49.96 77.287c8.411 0 15.317-6.562 15.852-14.829H14.25c.535 8.267 7.441 14.829 15.851 14.829zm-13.988-18.04h12.398l-.969-2.415c-1.028-1.883-2.971-4.137-6.339-3.714a1.596 1.596 0 0 1-1.742-1.12c-.23-.746.111-1.55.809-1.904l2.125-1.077a4.806 4.806 0 0 1 3.837-.225c1.172.441 2.069 1.305 2.522 2.435l1.348 3.353 1.348-3.353c.453-1.13 1.349-1.994 2.521-2.434a4.792 4.792 0 0 1 3.837.224l2.125 1.077a1.604 1.604 0 1 1-.932 3.024c-3.356-.422-5.313 1.831-6.338 3.712l-.97 2.417h12.394L30.053 64.905l-13.94 45.922zM85.441 3.211c-3.831 0-7.785 3.188-10.757 8.595 5.024 2.904 8.968 6.908 10.82 8.974 1.842-2.058 5.743-6.035 10.719-8.934-2.975-5.432-6.94-8.635-10.782-8.635zm60.715 53.688c-4.488-2.004-11.802-8.651-20.771-29.155-4.3-9.833-9.667-15.232-15.95-16.05-11.368-1.478-22.443 12.28-22.553 12.42a1.612 1.612 0 0 1-1.267.607h-.013l-.238-.003a1.612 1.612 0 0 1-1.238-.605c-.109-.14-11.257-13.934-22.619-12.423-6.284.824-11.65 6.222-15.946 16.045-8.961 20.486-16.27 27.139-20.758 29.15 1.265.582 2.848 1.021 4.584.895 3.14-.241 6.148-2.287 8.94-6.081 1.482-2.013 2.987-4.375 4.58-6.876 8.324-13.062 19.695-30.904 42.612-18.297 5.503-3.026 10.338-4.295 14.623-4.295 13.532 0 21.577 12.652 27.873 22.553 1.602 2.519 3.114 4.897 4.604 6.924 2.801 3.806 5.819 5.853 8.971 6.083 1.743.131 3.312-.316 4.566-.892zm-5.209 8.006l-14.034 45.922h12.395l-.97-2.415c-1.026-1.883-2.978-4.137-6.338-3.714a1.599 1.599 0 0 1-1.743-1.12c-.23-.746.111-1.55.81-1.904l2.124-1.077a4.782 4.782 0 0 1 3.838-.224c1.172.44 2.068 1.304 2.521 2.434l1.348 3.353 1.348-3.353c.454-1.13 1.35-1.994 2.521-2.434a4.795 4.795 0 0 1 3.838.224l2.125 1.077a1.604 1.604 0 0 1 .809 1.904 1.601 1.601 0 0 1-1.742 1.12c-3.35-.422-5.311 1.831-6.337 3.712l-.971 2.417h12.399l-13.941-45.922zm-15.901 49.133c.535 8.267 7.441 14.829 15.852 14.829 8.411 0 15.317-6.562 15.852-14.829h-31.704z" filter="url(#a)"/>
    <path fill="url(#b)" d="M140.898 132.079c-10.533 0-19.101-8.558-19.101-19.075 0-.172.005-.342.011-.513l.056-1.664h1.686l15.372-50.298c-3.202-.937-6.187-3.24-8.895-6.921-1.555-2.113-3.096-4.536-4.727-7.102-5.749-9.04-12.023-18.884-21.834-20.729.011 1.008.016 2.109.016 2.488 0 10.948-3.962 20.818-10.16 25.482v61.128a21.026 21.026 0 0 1 13.208 19.519c0 .887-.721 1.606-1.609 1.606H65.966a1.608 1.608 0 0 1-1.609-1.606 21.019 21.019 0 0 1 13.2-19.512V53.74c-6.197-4.664-10.159-14.531-10.159-25.475 0-.361.006-1.462.018-2.474-9.769 1.906-16.043 11.73-21.795 20.756-1.623 2.548-3.157 4.954-4.701 7.053-2.695 3.663-5.665 5.961-8.849 6.906l15.379 50.321h1.695l.048 1.71c.005.155.009.311.009.467 0 10.517-8.568 19.075-19.101 19.075-10.532 0-19.101-8.558-19.101-19.075 0-.172.005-.342.012-.513l.055-1.664h1.684l15.134-49.853c-4.908-.365-8.295-3.719-8.452-3.877a1.606 1.606 0 0 1 1.699-2.637c.019.002 8.454 1.772 21.481-28.011 4.781-10.93 11-16.968 18.485-17.945 3.757-.487 7.408.361 10.719 1.834C75.407 3.746 80.315 0 85.441 0c5.134 0 10.05 3.757 13.641 10.367 3.321-1.492 6.99-2.352 10.769-1.857 7.479.972 13.697 7.011 18.482 17.948 13.034 29.799 21.467 28.015 21.553 27.989.705-.264 1.465.017 1.871.649.407.632.285 1.475-.244 2.009-.156.159-3.515 3.49-8.395 3.88l15.131 49.842h1.684l.055 1.664c.007.171.012.341.012.513 0 10.517-8.57 19.075-19.102 19.075zm-73.246.709h35.583a17.82 17.82 0 0 0-12.037-15.289c-3.667-1.264-7.817-1.267-11.509.003a17.816 17.816 0 0 0-12.037 15.286zM80.061 51.58l.712.477v61.817a21.284 21.284 0 0 1 9.333-.005V52.064l.712-.477c5.651-3.787 9.448-13.159 9.448-23.322 0-.475-.007-1.77-.019-2.799-3.999-.021-8.544 1.224-13.805 4.226-.251.143-.53.204-.83.211l-.261-.005a1.62 1.62 0 0 1-.765-.212c-5.323-3.037-9.914-4.275-13.95-4.226a274.12 274.12 0 0 0-.022 2.805c0 10.157 3.796 19.527 9.447 23.315zm-49.96 77.287c8.411 0 15.317-6.562 15.852-14.829H14.25c.535 8.267 7.441 14.829 15.851 14.829zm-13.988-18.04h12.398l-.969-2.415c-1.028-1.883-2.971-4.137-6.339-3.714a1.596 1.596 0 0 1-1.742-1.12c-.23-.746.111-1.55.809-1.904l2.125-1.077a4.806 4.806 0 0 1 3.837-.225c1.172.441 2.069 1.305 2.522 2.435l1.348 3.353 1.348-3.353c.453-1.13 1.349-1.994 2.521-2.434a4.792 4.792 0 0 1 3.837.224l2.125 1.077a1.604 1.604 0 1 1-.932 3.024c-3.356-.422-5.313 1.831-6.338 3.712l-.97 2.417h12.394L30.053 64.905l-13.94 45.922zM85.441 3.211c-3.831 0-7.785 3.188-10.757 8.595 5.024 2.904 8.968 6.908 10.82 8.974 1.842-2.058 5.743-6.035 10.719-8.934-2.975-5.432-6.94-8.635-10.782-8.635zm60.715 53.688c-4.488-2.004-11.802-8.651-20.771-29.155-4.3-9.833-9.667-15.232-15.95-16.05-11.368-1.478-22.443 12.28-22.553 12.42a1.612 1.612 0 0 1-1.267.607h-.013l-.238-.003a1.612 1.612 0 0 1-1.238-.605c-.109-.14-11.257-13.934-22.619-12.423-6.284.824-11.65 6.222-15.946 16.045-8.961 20.486-16.27 27.139-20.758 29.15 1.265.582 2.848 1.021 4.584.895 3.14-.241 6.148-2.287 8.94-6.081 1.482-2.013 2.987-4.375 4.58-6.876 8.324-13.062 19.695-30.904 42.612-18.297 5.503-3.026 10.338-4.295 14.623-4.295 13.532 0 21.577 12.652 27.873 22.553 1.602 2.519 3.114 4.897 4.604 6.924 2.801 3.806 5.819 5.853 8.971 6.083 1.743.131 3.312-.316 4.566-.892zm-5.209 8.006l-14.034 45.922h12.395l-.97-2.415c-1.026-1.883-2.978-4.137-6.338-3.714a1.599 1.599 0 0 1-1.743-1.12c-.23-.746.111-1.55.81-1.904l2.124-1.077a4.782 4.782 0 0 1 3.838-.224c1.172.44 2.068 1.304 2.521 2.434l1.348 3.353 1.348-3.353c.454-1.13 1.35-1.994 2.521-2.434a4.795 4.795 0 0 1 3.838.224l2.125 1.077a1.604 1.604 0 0 1 .809 1.904 1.601 1.601 0 0 1-1.742 1.12c-3.35-.422-5.311 1.831-6.337 3.712l-.971 2.417h12.399l-13.941-45.922zm-15.901 49.133c.535 8.267 7.441 14.829 15.852 14.829 8.411 0 15.317-6.562 15.852-14.829h-31.704z"/>
</svg>
