<svg xmlns="http://www.w3.org/2000/svg" width="116" height="127">
    <path fill="#FFF" fill-rule="evenodd" d="M97.194 31.325a1.517 1.517 0 0 1 1.901.401c1.276 1.631 3.095 1.535 4.402 1.162l1.8-.771.009-.003a1.532 1.532 0 0 1 .795-.104c.132.019.262.056.389.112.025.011.053.01.078.023.028.014.051.034.078.05l.025.016a1.357 1.357 0 0 1 .277.219c.03.03.061.059.087.091.051.061.098.124.138.192l.009.014c.017.027.037.051.052.081.014.026.013.056.025.083.051.119.09.242.109.37a1.388 1.388 0 0 1-.006.444 1.503 1.503 0 0 1-.095.353l-.005.015-.74 1.705c-.323 1.087-.457 2.555.452 3.758a33.052 33.052 0 0 1-2.255 2.804l-.029-.01a3.7 3.7 0 0 1-2.219-1.979 3.378 3.378 0 0 1-.034-2.729l.541-1.245-1.253.537a3.329 3.329 0 0 1-1.323.271c-.483 0-.968-.102-1.422-.305a3.692 3.692 0 0 1-1.988-2.206l-.518-1.555a1.496 1.496 0 0 1 .72-1.794zm-1.148-2.63c.579.448.75 1.245.404 1.89a1.508 1.508 0 0 1-1.804.716l-1.564-.515a3.7 3.7 0 0 1-2.219-1.978 3.38 3.38 0 0 1-.033-2.73l.539-1.244-1.251.537c-.419.18-.871.269-1.324.269-.483 0-.969-.101-1.422-.303a3.696 3.696 0 0 1-1.988-2.205l-.517-1.558a1.495 1.495 0 0 1 .721-1.794 1.514 1.514 0 0 1 1.899.403c1.293 1.651 3.171 1.512 4.485 1.126l1.715-.736.013-.004c.107-.044.214-.075.328-.093a1.503 1.503 0 0 1 .468-.01c.131.02.261.056.387.112.025.011.052.01.076.023.027.013.05.033.076.048.013.007.025.016.037.024.06.038.119.077.172.122.037.031.071.065.104.099.026.027.054.052.077.08.052.062.1.127.141.196l.007.011c.017.029.038.053.053.082.014.027.012.056.024.084a1.373 1.373 0 0 1 .104.811 1.446 1.446 0 0 1-.101.369l-.74 1.709c-.388 1.308-.526 3.174 1.133 4.459zm18.429-9.941h.027c.82 0 1.492.654 1.507 1.473v.001c.169 9.471-3.435 18.452-10.146 25.29a36.272 36.272 0 0 1-13.739 8.74 16.44 16.44 0 0 0-4.783 2.636c-8.474 6.758-12.452 15.29-13.655 18.281-.029-.15-.051-.301-.081-.451a1.511 1.511 0 0 1 0 0c.03.15.052.301.081.451a47.37 47.37 0 0 1-5.189 32.106c-5.014 8.952-13.235 15.425-23.147 18.228a38.96 38.96 0 0 1-10.613 1.482c-6.484 0-12.896-1.643-18.717-4.867-7.273-4.03-12.532-10.634-14.811-18.595-2.278-7.963-1.301-16.332 2.751-23.564 3.279-5.856 8.657-10.091 15.14-11.924 6.484-1.834 13.298-1.046 19.186 2.216 4.782 2.647 8.239 6.988 9.737 12.223.583 2.04.831 4.119.772 6.18 3.876-9.553 3.149-19.958 2.759-23.393l-.009-.009-.002.002c-2.814-2.784-16.652-16.873-12.779-20.819.367-.375.831-.592 1.371-.678 2.757-1.135 12.033-5.439 18.881-14.365a16.273 16.273 0 0 0 2.534-4.818 36.01 36.01 0 0 1 8.454-13.871C76.714 3.872 85.656.072 95.182.011l.01 1.499.034-1.174-.033-.317c.014-.002.028 0 .042-.001V.011h.142v.003c3.469-.214 9.02 3.802 12.791 7.39l.013.007.046.047.027.025-.001.002-2.088 2.16-.019-.019a.368.368 0 0 0 .02.019l2.087-2.16c3.692 3.656 7.85 9.052 7.747 12.527-.047-.813-.751-1.456-1.56-1.412a1.498 1.498 0 0 0-1.443 1.464c0-.027-.005-.054-.003-.082.109-1.383-1.957-5.516-6.886-10.391l-.002-.002c-5.015-4.775-9.187-6.734-10.605-6.587l-.154-1.492-.029 1.5h-.116a32.263 32.263 0 0 0-18.805 6.156c1.281 1.397 3.03 1.273 4.277.906l1.715-.736.017-.005a1.522 1.522 0 0 1 .581-.115c.072.001.141.003.213.014.128.02.255.056.379.11.027.011.056.01.082.024.029.014.053.035.081.051l.015.01a1.275 1.275 0 0 1 .284.224c.029.029.061.058.087.091a1.373 1.373 0 0 1 .147.205c.017.028.037.052.053.082.013.026.012.056.024.083.051.119.09.242.109.37a1.51 1.51 0 0 1-.101.797l-.005.015-.739 1.704c-.39 1.309-.529 3.177 1.132 4.462.579.448.75 1.246.404 1.889a1.508 1.508 0 0 1-1.804.717l-1.566-.515a3.695 3.695 0 0 1-2.217-1.977 3.374 3.374 0 0 1-.034-2.731l.539-1.243-1.25.536a3.34 3.34 0 0 1-1.324.27c-.483 0-.969-.101-1.423-.304a3.69 3.69 0 0 1-1.987-2.206l-.23-.688a33.483 33.483 0 0 0-1.694 1.598 32.996 32.996 0 0 0-7.748 12.712 19.234 19.234 0 0 1-3.001 5.701c-5.443 7.096-12.316 11.447-16.684 13.706 5.638 2.78 12.996 9.56 15.144 11.599.008.007.017.011.024.018l.074.071a80.21 80.21 0 0 1 4.608 5.01c.03.034.06.067.087.103 2.947 3.482 5.556 7.082 7.291 9.905a40.814 40.814 0 0 0-1.221 2.812v-.001c.283-.73.688-1.691 1.221-2.811 2.084-4.377 6.213-11.265 13.498-17.074a19.415 19.415 0 0 1 5.659-3.122 33.267 33.267 0 0 0 12.592-8.01c.348-.354.683-.717 1.013-1.083.808-.9 1.56-1.836 2.255-2.804a31.856 31.856 0 0 0 6.02-19.255v-.001a1.504 1.504 0 0 1 1.481-1.526zM46.647 49.547c-2.749-1.839-4.685-2.743-5.584-2.874.274 1.601 3.122 6.459 9.549 13.321a43.95 43.95 0 0 0-3.965-10.447zm24.034 25.954c-.912-1.845-2.901-4.936-5.481-8.316.674 18.727-2.832 32.47-10.461 40.869-5.413 5.961-12.735 9.132-21.764 9.425-.261.009-.52.013-.776.013-8.855 0-14.606-4.932-14.853-5.148a1.494 1.494 0 0 1-.137-2.116c.549-.62 1.5-.683 2.125-.138.092.08 5.481 4.648 13.543 4.392 8.179-.265 14.781-3.104 19.624-8.438 7.619-8.389 10.804-22.805 9.479-42.839a74.687 74.687 0 0 0-4.065-4.398 106.511 106.511 0 0 0-6.243-5.517 47.048 47.048 0 0 1 2.794 10.954l.005.033.013.088c.521 4.078 2.439 25.012-10.879 37.098v.001a1.299 1.299 0 0 1-.066.063l-.022.021c-.366.369-.748.713-1.141 1.042-.117.099-.24.188-.36.283-.289.229-.582.45-.884.658a16.327 16.327 0 0 1-1.343.83c-.148.082-.295.166-.446.244-.354.183-.714.35-1.08.507-.1.044-.198.093-.3.134-.473.193-.955.363-1.442.511-.091.028-.182.047-.273.073a16.57 16.57 0 0 1-1.201.297c-.154.032-.308.058-.464.085-.35.063-.702.115-1.056.155-.164.019-.327.036-.491.051-.371.031-.743.047-1.115.054-.1.002-.2.014-.301.014-.049 0-.097-.003-.146-.004-.144-.001-.287-.008-.43-.013a16.504 16.504 0 0 1-.802-.046c-.15-.013-.301-.026-.45-.042a18.147 18.147 0 0 1-.865-.119c-.115-.019-.231-.033-.347-.054a16.734 16.734 0 0 1-1.177-.261c-.102-.026-.204-.059-.306-.088a16.729 16.729 0 0 1-.886-.273c-.134-.046-.267-.095-.401-.144a17.114 17.114 0 0 1-.815-.328c-.121-.051-.241-.101-.36-.155-.381-.175-.759-.36-1.13-.566-6.578-3.646-8.947-11.933-5.282-18.472.187-.333.389-.654.605-.961.027-.038.058-.072.085-.11a11.195 11.195 0 0 1 5.807-4.144c.082-.026.156-.067.239-.09.068-.02.138-.022.206-.04 2.35-.62 4.901-.493 7.258.505.015.007.03.011.046.018.347.148.689.316 1.026.503a9.174 9.174 0 0 1 4.41 5.539 9.124 9.124 0 0 1-.821 7.016 7.664 7.664 0 0 1-4.636 3.653 7.7 7.7 0 0 1-5.874-.676 1.497 1.497 0 0 1-.583-2.041 1.511 1.511 0 0 1 2.052-.579 4.701 4.701 0 0 0 3.58.413 4.683 4.683 0 0 0 2.827-2.228 6.161 6.161 0 0 0 .554-4.738 6.19 6.19 0 0 0-2.976-3.739 8.491 8.491 0 0 0-.749-.367c-.033-.014-.067-.024-.1-.037a7.847 7.847 0 0 0-.675-.25l-.04-.011a8.26 8.26 0 0 0-8.618 2.429l-.041.044a7.996 7.996 0 0 0-.414.53c-.03.041-.064.078-.093.12a8.313 8.313 0 0 0-.441.702c-2.855 5.094-1.01 11.55 4.115 14.391a13.78 13.78 0 0 0 13.695-.219l.058-.032c.265-.16.524-.335.78-.514.051-.036.104-.067.154-.103.222-.16.435-.335.649-.509.079-.065.162-.123.24-.19.184-.158.359-.33.537-.5.096-.092.197-.178.292-.273.098-.125.277-.364.495-.652.681-.898 1.142-1.504 1.494-1.909.074-.12.142-.235.206-.35 2.279-4.065 2.827-8.756 1.55-13.221s-4.225-8.167-8.302-10.424a22.177 22.177 0 0 0-16.894-1.952c-5.709 1.614-10.444 5.343-13.332 10.499-3.66 6.533-4.541 14.091-2.484 21.284 2.058 7.191 6.809 13.157 13.378 16.796 8.297 4.597 17.898 5.703 27.037 3.122 9.137-2.585 16.715-8.553 21.338-16.804a44.386 44.386 0 0 0 4.818-30.321z" opacity=".102"/>
</svg>
