<svg xmlns="http://www.w3.org/2000/svg" width="52" height="55">
    <path fill="#FFF" fill-rule="evenodd" d="M44.781 55.004H7.232C3.249 55.004.01 51.67.01 47.571V11.894c0-4.099 3.239-7.433 7.222-7.433h4.331V.003h2.89v4.458h23.106V.003h2.89v4.458h4.332c3.982 0 7.221 3.337 7.221 7.433v35.677c0 4.099-3.239 7.433-7.221 7.433zm4.334-43.11c0-2.459-1.943-4.458-4.332-4.458h-4.331v2.974h-2.89V7.436H14.453v2.974h-2.892V7.436H7.229c-2.389 0-4.332 1.999-4.332 4.458v4.461h46.218v-4.461zm0 7.433H2.9v28.244c0 2.459 1.942 4.459 4.332 4.459h37.551c2.389 0 4.332-2 4.332-4.459V19.327zm-5.779 29.731h-5.777c-1.591 0-2.887-1.334-2.889-2.974v-5.946c0-1.64 1.296-2.974 2.889-2.974h5.777c1.593 0 2.89 1.334 2.89 2.974v5.946c0 1.64-1.297 2.974-2.89 2.974zm0-8.92h-5.777v5.946h5.78l-.003-5.946zm0-5.945h-5.777c-1.591 0-2.887-1.334-2.889-2.975v-5.945c0-1.641 1.296-2.975 2.889-2.975h5.777c1.593 0 2.89 1.334 2.89 2.975v5.945c0 1.641-1.297 2.975-2.89 2.975zm0-8.92h-5.777v5.945h5.78l-.003-5.945zM28.893 49.058h-5.777c-1.59 0-2.886-1.334-2.889-2.974v-5.946c0-1.64 1.296-2.974 2.889-2.974h5.777c1.594 0 2.89 1.334 2.89 2.974v5.946c0 1.64-1.296 2.974-2.89 2.974zm0-8.92h-5.777v5.946h5.78l-.003-5.946zm0-5.945h-5.777c-1.59 0-2.886-1.334-2.889-2.975v-5.945c0-1.641 1.296-2.975 2.889-2.975h5.777c1.594 0 2.89 1.334 2.89 2.975v5.945c0 1.641-1.296 2.975-2.89 2.975zm0-8.92h-5.777v5.945h5.78l-.003-5.945zm-14.44 23.785H8.676c-1.593 0-2.889-1.334-2.889-2.974v-5.946c0-1.64 1.296-2.974 2.889-2.974h5.777c1.594 0 2.89 1.334 2.89 2.974v5.946c0 1.64-1.296 2.974-2.89 2.974zm0-8.92H8.676v5.946h5.78l-.003-5.946z"/>
</svg>
