<svg xmlns="http://www.w3.org/2000/svg" width="60" height="49">
    <path fill="#FFF" fill-rule="evenodd" d="M51.613 49H8.387C3.755 49 0 45.247 0 40.618V8.381C0 3.753 3.755 0 8.387 0h43.226C56.245 0 60 3.753 60 8.381v32.237C60 45.247 56.245 49 51.613 49zm4.516-40.619a4.515 4.515 0 0 0-4.516-4.513H8.387a4.515 4.515 0 0 0-4.516 4.513v5.803h52.258V8.381zm0 9.672H3.871v22.565a4.514 4.514 0 0 0 4.516 4.513h43.226a4.514 4.514 0 0 0 4.516-4.513V18.053zm-19.356 14.5l-1.865.664 2.143 2.541c.357.424.526.96.478 1.51a2.049 2.049 0 0 1-.733 1.401l-1.938 1.619c-.385.322-.854.48-1.322.48a2.06 2.06 0 0 1-1.578-.731l-2.17-2.574-.984 1.68a2.064 2.064 0 0 1-3.764-.471l-4.036-14.035a2.062 2.062 0 0 1 2.906-2.414l13.095 6.543a2.057 2.057 0 0 1 1.136 1.97 2.058 2.058 0 0 1-1.368 1.817zM23.81 25.056l3.377 11.743.743-1.27a2.065 2.065 0 0 1 3.358-.288h.001l2.309 2.739 1.145-.957-2.289-2.715a2.061 2.061 0 0 1 .886-3.272l1.424-.506-10.954-5.474zM9.677 5.803a3.224 3.224 0 1 1 0 6.447 3.224 3.224 0 1 1 0-6.447zm8.387 0a3.224 3.224 0 1 1 0 6.447 3.224 3.224 0 1 1 0-6.447zm8.388 0a3.224 3.224 0 1 1 0 6.447 3.225 3.225 0 1 1 0-6.447z"/>
</svg>
