<svg xmlns="http://www.w3.org/2000/svg" width="65" height="60">
    <defs>
        <linearGradient id="a" x1="48.481%" x2="0%" y1="87.462%" y2="0%">
            <stop offset="0%" stop-color="#39125A"/>
            <stop offset="100%" stop-color="#17083A"/>
        </linearGradient>
    </defs>
    <path fill-rule="evenodd" d="M63.707 2.533c.377 2.09-1.854 5.773-2.721 7.615-1.61 3.315-3.469 6.508-5.701 9.453-3.72 5.033-8.31 9.327-13.275 13.128-10.425 7.726-22.845 12.006-35.515 14.69A444.045 444.045 0 0 0 16.79 36.13c.869-1.105-.877-4.794-.133-5.531-5.459 5.276-10.669 10.92-15.63 16.688-.372.368-.24 5.407.133 5.53 8.207 3.331 16.662 6.786 25.61 7.169 0 0 .12-2.335-.004-2.458-5.719-1.975-11.563-3.828-17.034-6.049 15.404-3.17 30.304-10.274 40.971-21.931 6.699-7.24 15.254-19.023 13.125-29.472-.125-.369-.246 1.843-.121 2.457z"/>
    <path fill="url(#a)" d="M63.707 2.533c.377 2.09-1.854 5.773-2.721 7.615-1.61 3.315-3.469 6.508-5.701 9.453-3.72 5.033-8.31 9.327-13.275 13.128-10.425 7.726-22.845 12.006-35.515 14.69A444.045 444.045 0 0 0 16.79 36.13c.869-1.105-.877-4.794-.133-5.531-5.459 5.276-10.669 10.92-15.63 16.688-.372.368-.24 5.407.133 5.53 8.207 3.331 16.662 6.786 25.61 7.169 0 0 .12-2.335-.004-2.458-5.719-1.975-11.563-3.828-17.034-6.049 15.404-3.17 30.304-10.274 40.971-21.931 6.699-7.24 15.254-19.023 13.125-29.472-.125-.369-.246 1.843-.121 2.457z"/>
</svg>
